<svg width="375" height="812" viewBox="0 0 375 812" fill="none" xmlns="http://www.w3.org/2000/svg">
    <g clip-path="url(#clip0_6_1306)">
        <rect width="375" height="812" fill="#151515" />
        <circle r="113" transform="matrix(-1 0 0 1 -57 451)" fill="#FF1E47" />
        <circle r="79.5" transform="matrix(-1 0 0 1 403.5 609.5)" fill="#5AB500" />
        <path opacity="0.7"
            d="M54.3125 536.188C52.7552 536.188 51.5182 535.664 50.6016 534.617C49.6901 533.565 49.2344 532.146 49.2344 530.359C49.2344 528.589 49.6953 527.177 50.6172 526.125C51.5391 525.068 52.7708 524.539 54.3125 524.539C55.5417 524.539 56.5833 524.883 57.4375 525.57C58.2969 526.253 58.8151 527.156 58.9922 528.281H57.5703C57.388 527.542 57 526.951 56.4062 526.508C55.8125 526.06 55.1146 525.836 54.3125 525.836C53.2135 525.836 52.3333 526.247 51.6719 527.07C51.0104 527.893 50.6797 528.99 50.6797 530.359C50.6797 531.745 51.0078 532.846 51.6641 533.664C52.3203 534.482 53.2057 534.891 54.3203 534.891C55.1484 534.891 55.8464 534.701 56.4141 534.32C56.9818 533.94 57.3672 533.406 57.5703 532.719H58.9922C58.7318 533.833 58.1979 534.69 57.3906 535.289C56.5833 535.888 55.5573 536.188 54.3125 536.188ZM60.5156 536V524.727H61.875V529.172H61.9062C62.1354 528.714 62.4688 528.359 62.9062 528.109C63.349 527.859 63.875 527.734 64.4844 527.734C65.3698 527.734 66.0677 528.008 66.5781 528.555C67.0885 529.102 67.3438 529.833 67.3438 530.75V536H65.9844V531C65.9844 530.344 65.8203 529.836 65.4922 529.477C65.1693 529.117 64.6927 528.938 64.0625 528.938C63.3906 528.938 62.8568 529.148 62.4609 529.57C62.0703 529.992 61.875 530.557 61.875 531.266V536H60.5156ZM71.75 534.984C72.3906 534.984 72.9271 534.786 73.3594 534.391C73.7969 533.99 74.0156 533.497 74.0156 532.914V532.25L71.8438 532.383C71.2969 532.419 70.8724 532.552 70.5703 532.781C70.2734 533.01 70.125 533.318 70.125 533.703C70.125 534.089 70.2734 534.398 70.5703 534.633C70.8672 534.867 71.2604 534.984 71.75 534.984ZM71.4453 536.141C70.638 536.141 69.9844 535.917 69.4844 535.469C68.9896 535.021 68.7422 534.432 68.7422 533.703C68.7422 533.005 68.9974 532.448 69.5078 532.031C70.0234 531.615 70.75 531.38 71.6875 531.328L74.0156 531.195V530.516C74.0156 530.021 73.8594 529.633 73.5469 529.352C73.2344 529.07 72.7969 528.93 72.2344 528.93C71.7188 528.93 71.2995 529.044 70.9766 529.273C70.6536 529.497 70.4479 529.812 70.3594 530.219H69.0469C69.0938 529.495 69.4062 528.901 69.9844 528.438C70.5677 527.969 71.3281 527.734 72.2656 527.734C73.2188 527.734 73.974 527.974 74.5312 528.453C75.0938 528.932 75.375 529.576 75.375 530.383V536H74.0859V534.602H74.0547C73.8099 535.065 73.4505 535.438 72.9766 535.719C72.5026 536 71.9922 536.141 71.4453 536.141ZM77.1016 536V527.875H78.3828V529.172H78.4141C78.6484 528.719 78.9844 528.367 79.4219 528.117C79.8594 527.862 80.3828 527.734 80.9922 527.734C81.8776 527.734 82.5677 528.003 83.0625 528.539C83.5573 529.07 83.8047 529.799 83.8047 530.727V536H82.4453V530.969C82.4453 530.307 82.2891 529.805 81.9766 529.461C81.6641 529.112 81.1979 528.938 80.5781 528.938C79.9375 528.938 79.4245 529.146 79.0391 529.562C78.6536 529.979 78.4609 530.531 78.4609 531.219V536H77.1016ZM88.8438 534.867C89.5521 534.867 90.1224 534.596 90.5547 534.055C90.987 533.513 91.2031 532.797 91.2031 531.906C91.2031 531.01 90.987 530.292 90.5547 529.75C90.1224 529.203 89.5521 528.93 88.8438 528.93C88.1406 528.93 87.5781 529.201 87.1562 529.742C86.7396 530.279 86.5312 531 86.5312 531.906C86.5312 532.812 86.7396 533.534 87.1562 534.07C87.5781 534.602 88.1406 534.867 88.8438 534.867ZM88.8906 539.062C88 539.062 87.2344 538.836 86.5938 538.383C85.9531 537.935 85.5755 537.365 85.4609 536.672H86.8594C86.9948 537.047 87.25 537.346 87.625 537.57C88 537.794 88.4401 537.906 88.9453 537.906C89.6432 537.906 90.1927 537.721 90.5938 537.352C91 536.982 91.2031 536.492 91.2031 535.883V534.602H91.1719C90.9167 535.049 90.5599 535.406 90.1016 535.672C89.6432 535.932 89.1328 536.062 88.5703 536.062C87.5339 536.062 86.7031 535.685 86.0781 534.93C85.4531 534.174 85.1406 533.167 85.1406 531.906C85.1406 530.635 85.4531 529.622 86.0781 528.867C86.7083 528.112 87.5495 527.734 88.6016 527.734C89.1745 527.734 89.6901 527.867 90.1484 528.133C90.6068 528.398 90.9714 528.768 91.2422 529.242H91.2656V527.875H92.5625V535.836C92.5625 536.81 92.2292 537.591 91.5625 538.18C90.8958 538.768 90.0052 539.062 88.8906 539.062ZM97.5938 528.914C96.9635 528.914 96.4401 529.133 96.0234 529.57C95.612 530.003 95.3854 530.56 95.3438 531.242H99.7578C99.7422 530.555 99.5365 529.995 99.1406 529.562C98.7448 529.13 98.2292 528.914 97.5938 528.914ZM99.7266 533.672H101.062C100.943 534.391 100.568 534.982 99.9375 535.445C99.3125 535.909 98.5599 536.141 97.6797 536.141C96.5182 536.141 95.6042 535.766 94.9375 535.016C94.2708 534.266 93.9375 533.25 93.9375 531.969C93.9375 530.698 94.2708 529.674 94.9375 528.898C95.6094 528.122 96.5026 527.734 97.6172 527.734C98.7109 527.734 99.5755 528.102 100.211 528.836C100.846 529.57 101.164 530.555 101.164 531.789V532.305H95.3359V532.383C95.3359 533.164 95.5495 533.789 95.9766 534.258C96.4036 534.727 96.9818 534.961 97.7109 534.961C98.2214 534.961 98.6562 534.844 99.0156 534.609C99.375 534.375 99.612 534.062 99.7266 533.672ZM106.258 525.914H107.617V527.875H109.195V528.992H107.617V533.82C107.617 534.19 107.698 534.464 107.859 534.641C108.021 534.812 108.276 534.898 108.625 534.898C108.844 534.898 109.031 534.885 109.188 534.859V536C109.01 536.042 108.724 536.062 108.328 536.062C107.583 536.062 107.052 535.896 106.734 535.562C106.417 535.229 106.258 534.672 106.258 533.891V528.992H105.047V527.875H106.258V525.914ZM110.719 536V524.727H112.078V529.172H112.109C112.339 528.714 112.672 528.359 113.109 528.109C113.552 527.859 114.078 527.734 114.688 527.734C115.573 527.734 116.271 528.008 116.781 528.555C117.292 529.102 117.547 529.833 117.547 530.75V536H116.188V531C116.188 530.344 116.023 529.836 115.695 529.477C115.372 529.117 114.896 528.938 114.266 528.938C113.594 528.938 113.06 529.148 112.664 529.57C112.273 529.992 112.078 530.557 112.078 531.266V536H110.719ZM122.531 528.914C121.901 528.914 121.378 529.133 120.961 529.57C120.549 530.003 120.323 530.56 120.281 531.242H124.695C124.68 530.555 124.474 529.995 124.078 529.562C123.682 529.13 123.167 528.914 122.531 528.914ZM124.664 533.672H126C125.88 534.391 125.505 534.982 124.875 535.445C124.25 535.909 123.497 536.141 122.617 536.141C121.456 536.141 120.542 535.766 119.875 535.016C119.208 534.266 118.875 533.25 118.875 531.969C118.875 530.698 119.208 529.674 119.875 528.898C120.547 528.122 121.44 527.734 122.555 527.734C123.648 527.734 124.513 528.102 125.148 528.836C125.784 529.57 126.102 530.555 126.102 531.789V532.305H120.273V532.383C120.273 533.164 120.487 533.789 120.914 534.258C121.341 534.727 121.919 534.961 122.648 534.961C123.159 534.961 123.594 534.844 123.953 534.609C124.312 534.375 124.549 534.062 124.664 533.672ZM137.508 530.539H136.18C136.076 530.07 135.844 529.685 135.484 529.383C135.13 529.081 134.669 528.93 134.102 528.93C133.393 528.93 132.823 529.203 132.391 529.75C131.958 530.292 131.742 531.021 131.742 531.938C131.742 532.87 131.958 533.604 132.391 534.141C132.828 534.677 133.404 534.945 134.117 534.945C134.664 534.945 135.115 534.81 135.469 534.539C135.828 534.263 136.068 533.878 136.188 533.383H137.523C137.419 534.195 137.052 534.859 136.422 535.375C135.797 535.885 135.026 536.141 134.109 536.141C132.974 536.141 132.065 535.766 131.383 535.016C130.701 534.26 130.359 533.234 130.359 531.938C130.359 530.661 130.701 529.643 131.383 528.883C132.065 528.117 132.969 527.734 134.094 527.734C135.062 527.734 135.849 528.008 136.453 528.555C137.062 529.102 137.414 529.763 137.508 530.539ZM142.141 536.141C141.005 536.141 140.094 535.763 139.406 535.008C138.719 534.247 138.375 533.224 138.375 531.938C138.375 530.651 138.719 529.63 139.406 528.875C140.094 528.115 141.005 527.734 142.141 527.734C143.271 527.734 144.18 528.115 144.867 528.875C145.555 529.63 145.898 530.651 145.898 531.938C145.898 533.219 145.555 534.24 144.867 535C144.18 535.76 143.271 536.141 142.141 536.141ZM140.398 534.148C140.831 534.68 141.411 534.945 142.141 534.945C142.87 534.945 143.448 534.682 143.875 534.156C144.302 533.625 144.516 532.885 144.516 531.938C144.516 530.99 144.302 530.253 143.875 529.727C143.448 529.195 142.87 528.93 142.141 528.93C141.411 528.93 140.831 529.195 140.398 529.727C139.971 530.258 139.758 530.995 139.758 531.938C139.758 532.88 139.971 533.617 140.398 534.148ZM147.344 536V524.727H148.703V536H147.344ZM153.906 536.141C152.771 536.141 151.859 535.763 151.172 535.008C150.484 534.247 150.141 533.224 150.141 531.938C150.141 530.651 150.484 529.63 151.172 528.875C151.859 528.115 152.771 527.734 153.906 527.734C155.036 527.734 155.945 528.115 156.633 528.875C157.32 529.63 157.664 530.651 157.664 531.938C157.664 533.219 157.32 534.24 156.633 535C155.945 535.76 155.036 536.141 153.906 536.141ZM152.164 534.148C152.596 534.68 153.177 534.945 153.906 534.945C154.635 534.945 155.214 534.682 155.641 534.156C156.068 533.625 156.281 532.885 156.281 531.938C156.281 530.99 156.068 530.253 155.641 529.727C155.214 529.195 154.635 528.93 153.906 528.93C153.177 528.93 152.596 529.195 152.164 529.727C151.737 530.258 151.523 530.995 151.523 531.938C151.523 532.88 151.737 533.617 152.164 534.148ZM159.039 536V527.875H160.32V529.203H160.352C160.487 528.75 160.729 528.393 161.078 528.133C161.432 527.867 161.846 527.734 162.32 527.734C162.43 527.734 162.612 527.753 162.867 527.789V529.109C162.721 529.057 162.479 529.031 162.141 529.031C161.615 529.031 161.193 529.206 160.875 529.555C160.557 529.904 160.398 530.365 160.398 530.938V536H159.039ZM164.125 538.242H162.992L163.75 534.266H165.195L164.125 538.242ZM169.617 530.117C169.617 529.419 169.898 528.849 170.461 528.406C171.029 527.958 171.758 527.734 172.648 527.734C173.487 527.734 174.185 527.958 174.742 528.406C175.299 528.854 175.594 529.422 175.625 530.109H174.328C174.281 529.714 174.104 529.404 173.797 529.18C173.495 528.956 173.096 528.844 172.602 528.844C172.107 528.844 171.708 528.956 171.406 529.18C171.104 529.398 170.953 529.688 170.953 530.047C170.953 530.599 171.404 530.99 172.305 531.219L173.562 531.523C174.38 531.732 174.956 532.003 175.289 532.336C175.628 532.664 175.797 533.128 175.797 533.727C175.797 534.435 175.495 535.016 174.891 535.469C174.286 535.917 173.51 536.141 172.562 536.141C171.677 536.141 170.945 535.922 170.367 535.484C169.794 535.042 169.471 534.458 169.398 533.734H170.758C170.909 534.599 171.539 535.031 172.648 535.031C173.195 535.031 173.628 534.924 173.945 534.711C174.268 534.492 174.43 534.198 174.43 533.828C174.43 533.536 174.333 533.305 174.141 533.133C173.953 532.961 173.633 532.815 173.18 532.695L171.75 532.328C170.328 531.964 169.617 531.227 169.617 530.117ZM180.469 528.914C179.839 528.914 179.315 529.133 178.898 529.57C178.487 530.003 178.26 530.56 178.219 531.242H182.633C182.617 530.555 182.411 529.995 182.016 529.562C181.62 529.13 181.104 528.914 180.469 528.914ZM182.602 533.672H183.938C183.818 534.391 183.443 534.982 182.812 535.445C182.188 535.909 181.435 536.141 180.555 536.141C179.393 536.141 178.479 535.766 177.812 535.016C177.146 534.266 176.812 533.25 176.812 531.969C176.812 530.698 177.146 529.674 177.812 528.898C178.484 528.122 179.378 527.734 180.492 527.734C181.586 527.734 182.451 528.102 183.086 528.836C183.721 529.57 184.039 530.555 184.039 531.789V532.305H178.211V532.383C178.211 533.164 178.424 533.789 178.852 534.258C179.279 534.727 179.857 534.961 180.586 534.961C181.096 534.961 181.531 534.844 181.891 534.609C182.25 534.375 182.487 534.062 182.602 533.672ZM185.852 525.914H187.211V527.875H188.789V528.992H187.211V533.82C187.211 534.19 187.292 534.464 187.453 534.641C187.615 534.812 187.87 534.898 188.219 534.898C188.438 534.898 188.625 534.885 188.781 534.859V536C188.604 536.042 188.318 536.062 187.922 536.062C187.177 536.062 186.646 535.896 186.328 535.562C186.01 535.229 185.852 534.672 185.852 533.891V528.992H184.641V527.875H185.852V525.914ZM193.594 536V527.875H194.953V536H193.594ZM194.273 526.508C194.044 526.508 193.846 526.424 193.68 526.258C193.513 526.091 193.43 525.893 193.43 525.664C193.43 525.43 193.513 525.232 193.68 525.07C193.846 524.904 194.044 524.82 194.273 524.82C194.508 524.82 194.708 524.904 194.875 525.07C195.042 525.232 195.125 525.43 195.125 525.664C195.125 525.893 195.042 526.091 194.875 526.258C194.708 526.424 194.508 526.508 194.273 526.508ZM203.539 530.539H202.211C202.107 530.07 201.875 529.685 201.516 529.383C201.161 529.081 200.701 528.93 200.133 528.93C199.424 528.93 198.854 529.203 198.422 529.75C197.99 530.292 197.773 531.021 197.773 531.938C197.773 532.87 197.99 533.604 198.422 534.141C198.859 534.677 199.435 534.945 200.148 534.945C200.695 534.945 201.146 534.81 201.5 534.539C201.859 534.263 202.099 533.878 202.219 533.383H203.555C203.451 534.195 203.083 534.859 202.453 535.375C201.828 535.885 201.057 536.141 200.141 536.141C199.005 536.141 198.096 535.766 197.414 535.016C196.732 534.26 196.391 533.234 196.391 531.938C196.391 530.661 196.732 529.643 197.414 528.883C198.096 528.117 199 527.734 200.125 527.734C201.094 527.734 201.88 528.008 202.484 528.555C203.094 529.102 203.445 529.763 203.539 530.539ZM208.172 536.141C207.036 536.141 206.125 535.763 205.438 535.008C204.75 534.247 204.406 533.224 204.406 531.938C204.406 530.651 204.75 529.63 205.438 528.875C206.125 528.115 207.036 527.734 208.172 527.734C209.302 527.734 210.211 528.115 210.898 528.875C211.586 529.63 211.93 530.651 211.93 531.938C211.93 533.219 211.586 534.24 210.898 535C210.211 535.76 209.302 536.141 208.172 536.141ZM206.43 534.148C206.862 534.68 207.443 534.945 208.172 534.945C208.901 534.945 209.479 534.682 209.906 534.156C210.333 533.625 210.547 532.885 210.547 531.938C210.547 530.99 210.333 530.253 209.906 529.727C209.479 529.195 208.901 528.93 208.172 528.93C207.443 528.93 206.862 529.195 206.43 529.727C206.003 530.258 205.789 530.995 205.789 531.938C205.789 532.88 206.003 533.617 206.43 534.148ZM213.305 536V527.875H214.586V529.172H214.617C214.852 528.719 215.188 528.367 215.625 528.117C216.062 527.862 216.586 527.734 217.195 527.734C218.081 527.734 218.771 528.003 219.266 528.539C219.76 529.07 220.008 529.799 220.008 530.727V536H218.648V530.969C218.648 530.307 218.492 529.805 218.18 529.461C217.867 529.112 217.401 528.938 216.781 528.938C216.141 528.938 215.628 529.146 215.242 529.562C214.857 529.979 214.664 530.531 214.664 531.219V536H213.305ZM221.602 530.117C221.602 529.419 221.883 528.849 222.445 528.406C223.013 527.958 223.742 527.734 224.633 527.734C225.471 527.734 226.169 527.958 226.727 528.406C227.284 528.854 227.578 529.422 227.609 530.109H226.312C226.266 529.714 226.089 529.404 225.781 529.18C225.479 528.956 225.081 528.844 224.586 528.844C224.091 528.844 223.693 528.956 223.391 529.18C223.089 529.398 222.938 529.688 222.938 530.047C222.938 530.599 223.388 530.99 224.289 531.219L225.547 531.523C226.365 531.732 226.94 532.003 227.273 532.336C227.612 532.664 227.781 533.128 227.781 533.727C227.781 534.435 227.479 535.016 226.875 535.469C226.271 535.917 225.495 536.141 224.547 536.141C223.661 536.141 222.93 535.922 222.352 535.484C221.779 535.042 221.456 534.458 221.383 533.734H222.742C222.893 534.599 223.523 535.031 224.633 535.031C225.18 535.031 225.612 534.924 225.93 534.711C226.253 534.492 226.414 534.198 226.414 533.828C226.414 533.536 226.318 533.305 226.125 533.133C225.938 532.961 225.617 532.815 225.164 532.695L223.734 532.328C222.312 531.964 221.602 531.227 221.602 530.117ZM235.156 534.984C235.797 534.984 236.333 534.786 236.766 534.391C237.203 533.99 237.422 533.497 237.422 532.914V532.25L235.25 532.383C234.703 532.419 234.279 532.552 233.977 532.781C233.68 533.01 233.531 533.318 233.531 533.703C233.531 534.089 233.68 534.398 233.977 534.633C234.273 534.867 234.667 534.984 235.156 534.984ZM234.852 536.141C234.044 536.141 233.391 535.917 232.891 535.469C232.396 535.021 232.148 534.432 232.148 533.703C232.148 533.005 232.404 532.448 232.914 532.031C233.43 531.615 234.156 531.38 235.094 531.328L237.422 531.195V530.516C237.422 530.021 237.266 529.633 236.953 529.352C236.641 529.07 236.203 528.93 235.641 528.93C235.125 528.93 234.706 529.044 234.383 529.273C234.06 529.497 233.854 529.812 233.766 530.219H232.453C232.5 529.495 232.812 528.901 233.391 528.438C233.974 527.969 234.734 527.734 235.672 527.734C236.625 527.734 237.38 527.974 237.938 528.453C238.5 528.932 238.781 529.576 238.781 530.383V536H237.492V534.602H237.461C237.216 535.065 236.857 535.438 236.383 535.719C235.909 536 235.398 536.141 234.852 536.141ZM240.508 536V527.875H241.789V529.172H241.82C242.055 528.719 242.391 528.367 242.828 528.117C243.266 527.862 243.789 527.734 244.398 527.734C245.284 527.734 245.974 528.003 246.469 528.539C246.964 529.07 247.211 529.799 247.211 530.727V536H245.852V530.969C245.852 530.307 245.695 529.805 245.383 529.461C245.07 529.112 244.604 528.938 243.984 528.938C243.344 528.938 242.831 529.146 242.445 529.562C242.06 529.979 241.867 530.531 241.867 531.219V536H240.508ZM252.023 536.141C250.982 536.141 250.141 535.758 249.5 534.992C248.865 534.227 248.547 533.208 248.547 531.938C248.547 530.672 248.865 529.656 249.5 528.891C250.135 528.12 250.966 527.734 251.992 527.734C252.565 527.734 253.078 527.865 253.531 528.125C253.984 528.385 254.333 528.742 254.578 529.195H254.609V524.727H255.969V536H254.672V534.625H254.648C254.383 535.099 254.023 535.471 253.57 535.742C253.117 536.008 252.602 536.141 252.023 536.141ZM252.281 528.93C251.562 528.93 250.992 529.203 250.57 529.75C250.148 530.292 249.938 531.021 249.938 531.938C249.938 532.859 250.148 533.591 250.57 534.133C250.992 534.674 251.562 534.945 252.281 534.945C252.984 534.945 253.549 534.672 253.977 534.125C254.404 533.573 254.617 532.844 254.617 531.938C254.617 531.031 254.401 530.305 253.969 529.758C253.542 529.206 252.979 528.93 252.281 528.93ZM263.766 534.984C264.406 534.984 264.943 534.786 265.375 534.391C265.812 533.99 266.031 533.497 266.031 532.914V532.25L263.859 532.383C263.312 532.419 262.888 532.552 262.586 532.781C262.289 533.01 262.141 533.318 262.141 533.703C262.141 534.089 262.289 534.398 262.586 534.633C262.883 534.867 263.276 534.984 263.766 534.984ZM263.461 536.141C262.654 536.141 262 535.917 261.5 535.469C261.005 535.021 260.758 534.432 260.758 533.703C260.758 533.005 261.013 532.448 261.523 532.031C262.039 531.615 262.766 531.38 263.703 531.328L266.031 531.195V530.516C266.031 530.021 265.875 529.633 265.562 529.352C265.25 529.07 264.812 528.93 264.25 528.93C263.734 528.93 263.315 529.044 262.992 529.273C262.669 529.497 262.464 529.812 262.375 530.219H261.062C261.109 529.495 261.422 528.901 262 528.438C262.583 527.969 263.344 527.734 264.281 527.734C265.234 527.734 265.99 527.974 266.547 528.453C267.109 528.932 267.391 529.576 267.391 530.383V536H266.102V534.602H266.07C265.826 535.065 265.466 535.438 264.992 535.719C264.518 536 264.008 536.141 263.461 536.141ZM272.195 536.141C271.154 536.141 270.312 535.758 269.672 534.992C269.036 534.227 268.719 533.208 268.719 531.938C268.719 530.672 269.036 529.656 269.672 528.891C270.307 528.12 271.138 527.734 272.164 527.734C272.737 527.734 273.25 527.865 273.703 528.125C274.156 528.385 274.505 528.742 274.75 529.195H274.781V524.727H276.141V536H274.844V534.625H274.82C274.555 535.099 274.195 535.471 273.742 535.742C273.289 536.008 272.773 536.141 272.195 536.141ZM272.453 528.93C271.734 528.93 271.164 529.203 270.742 529.75C270.32 530.292 270.109 531.021 270.109 531.938C270.109 532.859 270.32 533.591 270.742 534.133C271.164 534.674 271.734 534.945 272.453 534.945C273.156 534.945 273.721 534.672 274.148 534.125C274.576 533.573 274.789 532.844 274.789 531.938C274.789 531.031 274.573 530.305 274.141 529.758C273.714 529.206 273.151 528.93 272.453 528.93ZM281.055 536.141C280.013 536.141 279.172 535.758 278.531 534.992C277.896 534.227 277.578 533.208 277.578 531.938C277.578 530.672 277.896 529.656 278.531 528.891C279.167 528.12 279.997 527.734 281.023 527.734C281.596 527.734 282.109 527.865 282.562 528.125C283.016 528.385 283.365 528.742 283.609 529.195H283.641V524.727H285V536H283.703V534.625H283.68C283.414 535.099 283.055 535.471 282.602 535.742C282.148 536.008 281.633 536.141 281.055 536.141ZM281.312 528.93C280.594 528.93 280.023 529.203 279.602 529.75C279.18 530.292 278.969 531.021 278.969 531.938C278.969 532.859 279.18 533.591 279.602 534.133C280.023 534.674 280.594 534.945 281.312 534.945C282.016 534.945 282.581 534.672 283.008 534.125C283.435 533.573 283.648 532.844 283.648 531.938C283.648 531.031 283.432 530.305 283 529.758C282.573 529.206 282.01 528.93 281.312 528.93ZM290.117 536V527.875H291.398V529.172H291.43C291.664 528.719 292 528.367 292.438 528.117C292.875 527.862 293.398 527.734 294.008 527.734C294.893 527.734 295.583 528.003 296.078 528.539C296.573 529.07 296.82 529.799 296.82 530.727V536H295.461V530.969C295.461 530.307 295.305 529.805 294.992 529.461C294.68 529.112 294.214 528.938 293.594 528.938C292.953 528.938 292.44 529.146 292.055 529.562C291.669 529.979 291.477 530.531 291.477 531.219V536H290.117ZM301.922 536.141C300.786 536.141 299.875 535.763 299.188 535.008C298.5 534.247 298.156 533.224 298.156 531.938C298.156 530.651 298.5 529.63 299.188 528.875C299.875 528.115 300.786 527.734 301.922 527.734C303.052 527.734 303.961 528.115 304.648 528.875C305.336 529.63 305.68 530.651 305.68 531.938C305.68 533.219 305.336 534.24 304.648 535C303.961 535.76 303.052 536.141 301.922 536.141ZM300.18 534.148C300.612 534.68 301.193 534.945 301.922 534.945C302.651 534.945 303.229 534.682 303.656 534.156C304.083 533.625 304.297 532.885 304.297 531.938C304.297 530.99 304.083 530.253 303.656 529.727C303.229 529.195 302.651 528.93 301.922 528.93C301.193 528.93 300.612 529.195 300.18 529.727C299.753 530.258 299.539 530.995 299.539 531.938C299.539 532.88 299.753 533.617 300.18 534.148ZM307.492 525.914H308.852V527.875H310.43V528.992H308.852V533.82C308.852 534.19 308.932 534.464 309.094 534.641C309.255 534.812 309.51 534.898 309.859 534.898C310.078 534.898 310.266 534.885 310.422 534.859V536C310.245 536.042 309.958 536.062 309.562 536.062C308.818 536.062 308.286 535.896 307.969 535.562C307.651 535.229 307.492 534.672 307.492 533.891V528.992H306.281V527.875H307.492V525.914ZM314.906 528.914C314.276 528.914 313.753 529.133 313.336 529.57C312.924 530.003 312.698 530.56 312.656 531.242H317.07C317.055 530.555 316.849 529.995 316.453 529.562C316.057 529.13 315.542 528.914 314.906 528.914ZM317.039 533.672H318.375C318.255 534.391 317.88 534.982 317.25 535.445C316.625 535.909 315.872 536.141 314.992 536.141C313.831 536.141 312.917 535.766 312.25 535.016C311.583 534.266 311.25 533.25 311.25 531.969C311.25 530.698 311.583 529.674 312.25 528.898C312.922 528.122 313.815 527.734 314.93 527.734C316.023 527.734 316.888 528.102 317.523 528.836C318.159 529.57 318.477 530.555 318.477 531.789V532.305H312.648V532.383C312.648 533.164 312.862 533.789 313.289 534.258C313.716 534.727 314.294 534.961 315.023 534.961C315.534 534.961 315.969 534.844 316.328 534.609C316.688 534.375 316.924 534.062 317.039 533.672ZM319.711 530.117C319.711 529.419 319.992 528.849 320.555 528.406C321.122 527.958 321.852 527.734 322.742 527.734C323.581 527.734 324.279 527.958 324.836 528.406C325.393 528.854 325.688 529.422 325.719 530.109H324.422C324.375 529.714 324.198 529.404 323.891 529.18C323.589 528.956 323.19 528.844 322.695 528.844C322.201 528.844 321.802 528.956 321.5 529.18C321.198 529.398 321.047 529.688 321.047 530.047C321.047 530.599 321.497 530.99 322.398 531.219L323.656 531.523C324.474 531.732 325.049 532.003 325.383 532.336C325.721 532.664 325.891 533.128 325.891 533.727C325.891 534.435 325.589 535.016 324.984 535.469C324.38 535.917 323.604 536.141 322.656 536.141C321.771 536.141 321.039 535.922 320.461 535.484C319.888 535.042 319.565 534.458 319.492 533.734H320.852C321.003 534.599 321.633 535.031 322.742 535.031C323.289 535.031 323.721 534.924 324.039 534.711C324.362 534.492 324.523 534.198 324.523 533.828C324.523 533.536 324.427 533.305 324.234 533.133C324.047 532.961 323.727 532.815 323.273 532.695L321.844 532.328C320.422 531.964 319.711 531.227 319.711 530.117Z"
            fill="white" />
        <path
            d="M97.0195 488.328C94.194 488.328 91.9564 487.417 90.3066 485.594C88.666 483.771 87.8457 481.283 87.8457 478.129C87.8457 474.993 88.6706 472.514 90.3203 470.691C91.9792 468.859 94.2122 467.943 97.0195 467.943C99.3164 467.943 101.253 468.6 102.83 469.912C104.407 471.215 105.305 472.924 105.523 475.039H102.051C101.823 473.799 101.244 472.806 100.314 472.059C99.3939 471.311 98.2956 470.938 97.0195 470.938C95.3242 470.938 93.9707 471.589 92.959 472.893C91.9564 474.187 91.4551 475.932 91.4551 478.129C91.4551 480.344 91.9564 482.098 92.959 483.393C93.9616 484.687 95.3197 485.334 97.0332 485.334C98.3366 485.334 99.4303 485.001 100.314 484.336C101.208 483.661 101.791 482.732 102.064 481.547H105.523C105.214 483.661 104.302 485.32 102.789 486.523C101.276 487.727 99.3529 488.328 97.0195 488.328ZM113.098 485.662C114.073 485.662 114.893 485.375 115.559 484.801C116.233 484.217 116.57 483.493 116.57 482.627V481.52L113.221 481.725C112.4 481.779 111.762 481.984 111.307 482.34C110.86 482.686 110.637 483.146 110.637 483.721C110.637 484.313 110.86 484.787 111.307 485.143C111.762 485.489 112.359 485.662 113.098 485.662ZM112.072 488.232C110.66 488.232 109.497 487.827 108.586 487.016C107.684 486.204 107.232 485.152 107.232 483.857C107.232 482.572 107.706 481.556 108.654 480.809C109.611 480.061 110.974 479.633 112.742 479.523L116.57 479.305V478.266C116.57 477.509 116.329 476.921 115.846 476.502C115.372 476.083 114.711 475.873 113.863 475.873C113.07 475.873 112.423 476.051 111.922 476.406C111.421 476.762 111.115 477.245 111.006 477.855H107.848C107.921 476.479 108.508 475.363 109.611 474.506C110.723 473.64 112.186 473.207 114 473.207C115.796 473.207 117.231 473.645 118.307 474.52C119.391 475.395 119.934 476.561 119.934 478.02V488H116.652V485.689H116.584C116.174 486.464 115.554 487.084 114.725 487.549C113.895 488.005 113.011 488.232 112.072 488.232ZM122.777 488V468.271H126.182V488H122.777ZM135.328 475.846C134.38 475.846 133.587 476.174 132.949 476.83C132.32 477.477 131.969 478.311 131.896 479.332H138.664C138.628 478.302 138.304 477.464 137.693 476.816C137.083 476.169 136.294 475.846 135.328 475.846ZM138.678 483.666H141.863C141.645 485.042 140.947 486.159 139.771 487.016C138.596 487.863 137.156 488.287 135.451 488.287C133.282 488.287 131.577 487.622 130.338 486.291C129.098 484.951 128.479 483.124 128.479 480.809C128.479 478.512 129.094 476.671 130.324 475.285C131.564 473.9 133.227 473.207 135.314 473.207C137.365 473.207 138.992 473.868 140.195 475.189C141.398 476.502 142 478.261 142 480.467V481.574H131.869V481.779C131.869 482.946 132.197 483.885 132.854 484.596C133.519 485.307 134.408 485.662 135.52 485.662C136.303 485.662 136.978 485.484 137.543 485.129C138.117 484.764 138.495 484.277 138.678 483.666ZM144.201 488V473.508H147.469V475.996H147.537C147.938 475.121 148.521 474.442 149.287 473.959C150.062 473.476 150.996 473.234 152.09 473.234C153.676 473.234 154.906 473.713 155.781 474.67C156.665 475.627 157.107 476.949 157.107 478.635V488H153.703V479.318C153.703 478.279 153.457 477.486 152.965 476.939C152.482 476.393 151.762 476.119 150.805 476.119C149.829 476.119 149.05 476.438 148.467 477.076C147.893 477.714 147.605 478.557 147.605 479.605V488H144.201ZM165.256 488.232C163.424 488.232 161.961 487.558 160.867 486.209C159.783 484.86 159.24 483.037 159.24 480.74C159.24 478.452 159.783 476.634 160.867 475.285C161.961 473.936 163.424 473.262 165.256 473.262C166.277 473.262 167.179 473.503 167.963 473.986C168.756 474.469 169.348 475.121 169.74 475.941H169.822V468.271H173.227V488H169.891V485.525H169.836C169.435 486.355 168.829 487.016 168.018 487.508C167.215 487.991 166.295 488.232 165.256 488.232ZM166.281 476.064C165.188 476.064 164.322 476.488 163.684 477.336C163.046 478.174 162.727 479.314 162.727 480.754C162.727 482.203 163.041 483.347 163.67 484.186C164.308 485.024 165.178 485.443 166.281 485.443C167.357 485.443 168.218 485.02 168.865 484.172C169.512 483.324 169.836 482.185 169.836 480.754C169.836 479.332 169.512 478.197 168.865 477.35C168.218 476.493 167.357 476.064 166.281 476.064ZM181.375 485.662C182.35 485.662 183.171 485.375 183.836 484.801C184.51 484.217 184.848 483.493 184.848 482.627V481.52L181.498 481.725C180.678 481.779 180.04 481.984 179.584 482.34C179.137 482.686 178.914 483.146 178.914 483.721C178.914 484.313 179.137 484.787 179.584 485.143C180.04 485.489 180.637 485.662 181.375 485.662ZM180.35 488.232C178.937 488.232 177.775 487.827 176.863 487.016C175.961 486.204 175.51 485.152 175.51 483.857C175.51 482.572 175.984 481.556 176.932 480.809C177.889 480.061 179.251 479.633 181.02 479.523L184.848 479.305V478.266C184.848 477.509 184.606 476.921 184.123 476.502C183.649 476.083 182.988 475.873 182.141 475.873C181.348 475.873 180.701 476.051 180.199 476.406C179.698 476.762 179.393 477.245 179.283 477.855H176.125C176.198 476.479 176.786 475.363 177.889 474.506C179.001 473.64 180.464 473.207 182.277 473.207C184.073 473.207 185.508 473.645 186.584 474.52C187.669 475.395 188.211 476.561 188.211 478.02V488H184.93V485.689H184.861C184.451 486.464 183.831 487.084 183.002 487.549C182.173 488.005 181.288 488.232 180.35 488.232ZM190.959 488V473.508H194.227V476.037H194.295C194.541 475.153 194.965 474.469 195.566 473.986C196.177 473.503 196.911 473.262 197.768 473.262C198.068 473.262 198.424 473.307 198.834 473.398V476.475C198.497 476.347 198.036 476.283 197.453 476.283C196.487 476.283 195.73 476.575 195.184 477.158C194.637 477.742 194.363 478.544 194.363 479.564V488H190.959ZM211.604 488.232C209.771 488.232 208.309 487.558 207.215 486.209C206.13 484.86 205.588 483.037 205.588 480.74C205.588 478.452 206.13 476.634 207.215 475.285C208.309 473.936 209.771 473.262 211.604 473.262C212.624 473.262 213.527 473.503 214.311 473.986C215.104 474.469 215.696 475.121 216.088 475.941H216.17V468.271H219.574V488H216.238V485.525H216.184C215.783 486.355 215.176 487.016 214.365 487.508C213.563 487.991 212.643 488.232 211.604 488.232ZM212.629 476.064C211.535 476.064 210.669 476.488 210.031 477.336C209.393 478.174 209.074 479.314 209.074 480.754C209.074 482.203 209.389 483.347 210.018 484.186C210.656 485.024 211.526 485.443 212.629 485.443C213.704 485.443 214.566 485.02 215.213 484.172C215.86 483.324 216.184 482.185 216.184 480.754C216.184 479.332 215.86 478.197 215.213 477.35C214.566 476.493 213.704 476.064 212.629 476.064ZM228.68 475.846C227.732 475.846 226.939 476.174 226.301 476.83C225.672 477.477 225.321 478.311 225.248 479.332H232.016C231.979 478.302 231.656 477.464 231.045 476.816C230.434 476.169 229.646 475.846 228.68 475.846ZM232.029 483.666H235.215C234.996 485.042 234.299 486.159 233.123 487.016C231.947 487.863 230.507 488.287 228.803 488.287C226.633 488.287 224.929 487.622 223.689 486.291C222.45 484.951 221.83 483.124 221.83 480.809C221.83 478.512 222.445 476.671 223.676 475.285C224.915 473.9 226.579 473.207 228.666 473.207C230.717 473.207 232.344 473.868 233.547 475.189C234.75 476.502 235.352 478.261 235.352 480.467V481.574H225.221V481.779C225.221 482.946 225.549 483.885 226.205 484.596C226.87 485.307 227.759 485.662 228.871 485.662C229.655 485.662 230.329 485.484 230.895 485.129C231.469 484.764 231.847 484.277 232.029 483.666ZM237.293 477.664C237.293 476.333 237.831 475.258 238.906 474.438C239.982 473.617 241.399 473.207 243.158 473.207C244.854 473.207 246.23 473.626 247.287 474.465C248.354 475.294 248.91 476.379 248.955 477.719H245.783C245.729 477.09 245.464 476.598 244.99 476.242C244.516 475.887 243.883 475.709 243.09 475.709C242.342 475.709 241.741 475.873 241.285 476.201C240.829 476.52 240.602 476.944 240.602 477.473C240.602 478.275 241.294 478.844 242.68 479.182L245.264 479.756C246.713 480.093 247.747 480.567 248.367 481.178C248.987 481.788 249.297 482.632 249.297 483.707C249.297 485.074 248.723 486.182 247.574 487.029C246.426 487.868 244.936 488.287 243.104 488.287C241.299 488.287 239.845 487.877 238.742 487.057C237.648 486.227 237.042 485.12 236.924 483.734H240.273C240.374 484.4 240.674 484.91 241.176 485.266C241.686 485.621 242.37 485.799 243.227 485.799C244.056 485.799 244.708 485.644 245.182 485.334C245.665 485.015 245.906 484.587 245.906 484.049C245.906 483.63 245.756 483.297 245.455 483.051C245.163 482.796 244.667 482.577 243.965 482.395L241.326 481.779C238.637 481.15 237.293 479.779 237.293 477.664ZM251.553 488V473.508H254.957V488H251.553ZM254.588 471.074C254.223 471.43 253.777 471.607 253.248 471.607C252.719 471.607 252.273 471.43 251.908 471.074C251.544 470.71 251.361 470.272 251.361 469.762C251.361 469.242 251.544 468.805 251.908 468.449C252.273 468.085 252.719 467.902 253.248 467.902C253.777 467.902 254.223 468.085 254.588 468.449C254.962 468.805 255.148 469.242 255.148 469.762C255.148 470.272 254.962 470.71 254.588 471.074ZM264.213 485.307C265.307 485.307 266.177 484.896 266.824 484.076C267.471 483.247 267.795 482.126 267.795 480.713C267.795 479.3 267.467 478.174 266.811 477.336C266.163 476.488 265.298 476.064 264.213 476.064C263.137 476.064 262.281 476.484 261.643 477.322C261.014 478.161 260.699 479.291 260.699 480.713C260.699 482.144 261.014 483.27 261.643 484.09C262.281 484.901 263.137 485.307 264.213 485.307ZM264.199 493.469C262.422 493.469 260.936 493.059 259.742 492.238C258.557 491.427 257.878 490.379 257.705 489.094H261.082C261.264 489.65 261.647 490.096 262.23 490.434C262.814 490.78 263.507 490.953 264.309 490.953C265.402 490.953 266.255 490.671 266.865 490.105C267.485 489.549 267.795 488.802 267.795 487.863V485.416H267.713C267.33 486.209 266.733 486.842 265.922 487.316C265.12 487.781 264.204 488.014 263.174 488.014C261.369 488.014 259.924 487.357 258.84 486.045C257.755 484.723 257.213 482.941 257.213 480.699C257.213 478.411 257.755 476.602 258.84 475.271C259.924 473.932 261.392 473.262 263.242 473.262C264.263 473.262 265.174 473.508 265.977 474C266.779 474.483 267.389 475.148 267.809 475.996H267.863V473.508H271.199V487.768C271.199 489.499 270.561 490.88 269.285 491.91C268.009 492.949 266.314 493.469 264.199 493.469ZM273.975 488V473.508H277.242V475.996H277.311C277.712 475.121 278.295 474.442 279.061 473.959C279.835 473.476 280.77 473.234 281.863 473.234C283.449 473.234 284.68 473.713 285.555 474.67C286.439 475.627 286.881 476.949 286.881 478.635V488H283.477V479.318C283.477 478.279 283.23 477.486 282.738 476.939C282.255 476.393 281.535 476.119 280.578 476.119C279.603 476.119 278.824 476.438 278.24 477.076C277.666 477.714 277.379 478.557 277.379 479.605V488H273.975Z"
            fill="white" />
        <path
            d="M90.3066 485.594L90.2323 485.661L90.2325 485.661L90.3066 485.594ZM90.3203 470.691L90.2462 470.624L90.2462 470.624L90.3203 470.691ZM102.83 469.912L102.766 469.989L102.766 469.989L102.83 469.912ZM105.523 475.039V475.139H105.634L105.623 475.029L105.523 475.039ZM102.051 475.039L101.952 475.057L101.967 475.139H102.051V475.039ZM100.314 472.059L100.251 472.136L100.252 472.137L100.314 472.059ZM92.959 472.893L92.88 472.831L92.8799 472.831L92.959 472.893ZM92.959 483.393L92.8799 483.454L92.959 483.393ZM100.314 484.336L100.375 484.416L100.375 484.416L100.314 484.336ZM102.064 481.547V481.447H101.985L101.967 481.524L102.064 481.547ZM105.523 481.547L105.622 481.561L105.639 481.447H105.523V481.547ZM102.789 486.523L102.727 486.445L102.789 486.523ZM97.0195 488.228C94.2176 488.228 92.0087 487.325 90.3808 485.527L90.2325 485.661C91.9041 487.508 94.1704 488.428 97.0195 488.428V488.228ZM90.381 485.527C88.7612 483.727 87.9457 481.265 87.9457 478.129H87.7457C87.7457 481.3 88.5709 483.815 90.2323 485.661L90.381 485.527ZM87.9457 478.129C87.9457 475.011 88.7656 472.558 90.3945 470.759L90.2462 470.624C88.5756 472.47 87.7457 474.976 87.7457 478.129H87.9457ZM90.3944 470.759C92.0317 468.95 94.2362 468.043 97.0195 468.043V467.843C94.1882 467.843 91.9267 468.768 90.2462 470.624L90.3944 470.759ZM97.0195 468.043C99.296 468.043 101.209 468.693 102.766 469.989L102.894 469.835C101.297 468.506 99.3368 467.843 97.0195 467.843V468.043ZM102.766 469.989C104.322 471.275 105.208 472.96 105.424 475.049L105.623 475.029C105.402 472.889 104.492 471.156 102.894 469.835L102.766 469.989ZM105.523 474.939H102.051V475.139H105.523V474.939ZM102.149 475.021C101.917 473.759 101.327 472.744 100.377 471.981L100.252 472.137C101.162 472.868 101.729 473.84 101.952 475.057L102.149 475.021ZM100.377 471.981C99.4377 471.218 98.3167 470.837 97.0195 470.837V471.038C98.2745 471.038 99.3501 471.404 100.251 472.136L100.377 471.981ZM97.0195 470.837C95.2943 470.837 93.9113 471.503 92.88 472.831L93.038 472.954C94.0302 471.676 95.3541 471.038 97.0195 471.038V470.837ZM92.8799 472.831C91.8598 474.148 91.3551 475.918 91.3551 478.129H91.5551C91.5551 475.947 92.053 474.225 93.038 472.954L92.8799 472.831ZM91.3551 478.129C91.3551 480.358 91.8597 482.137 92.8799 483.454L93.038 483.331C92.0531 482.06 91.5551 480.329 91.5551 478.129H91.3551ZM92.8799 483.454C93.9025 484.774 95.2904 485.434 97.0332 485.434V485.234C95.3489 485.234 94.0207 484.6 93.038 483.331L92.8799 483.454ZM97.0332 485.434C98.3543 485.434 99.4702 485.096 100.375 484.416L100.254 484.256C99.3905 484.906 98.3189 485.234 97.0332 485.234V485.434ZM100.375 484.416C101.288 483.726 101.884 482.775 102.162 481.569L101.967 481.524C101.698 482.689 101.127 483.597 100.254 484.256L100.375 484.416ZM102.064 481.647H105.523V481.447H102.064V481.647ZM105.424 481.532C105.118 483.625 104.218 485.26 102.727 486.445L102.851 486.602C104.386 485.381 105.309 483.698 105.622 481.561L105.424 481.532ZM102.727 486.445C101.235 487.631 99.3351 488.228 97.0195 488.228V488.428C99.3706 488.428 101.317 487.822 102.851 486.602L102.727 486.445ZM115.559 484.801L115.624 484.876L115.624 484.876L115.559 484.801ZM116.57 481.52H116.67V481.413L116.564 481.42L116.57 481.52ZM113.221 481.725L113.215 481.625L113.214 481.625L113.221 481.725ZM111.307 482.34L111.368 482.419L111.368 482.419L111.307 482.34ZM111.307 485.143L111.244 485.221L111.246 485.222L111.307 485.143ZM108.586 487.016L108.519 487.09L108.519 487.09L108.586 487.016ZM108.654 480.809L108.593 480.73L108.592 480.73L108.654 480.809ZM112.742 479.523L112.736 479.424L112.736 479.424L112.742 479.523ZM116.57 479.305L116.576 479.405L116.67 479.399V479.305H116.57ZM115.846 476.502L115.779 476.577L115.78 476.577L115.846 476.502ZM111.006 477.855V477.955H111.09L111.104 477.873L111.006 477.855ZM107.848 477.855L107.748 477.85L107.742 477.955H107.848V477.855ZM109.611 474.506L109.673 474.585L109.673 474.585L109.611 474.506ZM118.307 474.52L118.244 474.597L118.244 474.597L118.307 474.52ZM119.934 488V488.1H120.034V488H119.934ZM116.652 488H116.552V488.1H116.652V488ZM116.652 485.689H116.752V485.589H116.652V485.689ZM116.584 485.689V485.589H116.524L116.496 485.643L116.584 485.689ZM114.725 487.549L114.773 487.636L114.773 487.636L114.725 487.549ZM113.098 485.762C114.094 485.762 114.938 485.468 115.624 484.876L115.493 484.725C114.848 485.282 114.052 485.562 113.098 485.562V485.762ZM115.624 484.876C116.32 484.275 116.67 483.523 116.67 482.627H116.47C116.47 483.463 116.146 484.16 115.493 484.725L115.624 484.876ZM116.67 482.627V481.52H116.47V482.627H116.67ZM116.564 481.42L113.215 481.625L113.227 481.824L116.576 481.619L116.564 481.42ZM113.214 481.625C112.382 481.68 111.722 481.889 111.245 482.261L111.368 482.419C111.803 482.08 112.419 481.878 113.227 481.824L113.214 481.625ZM111.245 482.261C110.774 482.626 110.537 483.116 110.537 483.721H110.737C110.737 483.177 110.946 482.746 111.368 482.419L111.245 482.261ZM110.537 483.721C110.537 484.342 110.773 484.846 111.244 485.221L111.369 485.064C110.947 484.729 110.737 484.284 110.737 483.721H110.537ZM111.246 485.222C111.724 485.585 112.344 485.762 113.098 485.762V485.562C112.375 485.562 111.801 485.393 111.367 485.063L111.246 485.222ZM112.072 488.132C110.68 488.132 109.543 487.733 108.652 486.941L108.519 487.09C109.452 487.92 110.639 488.332 112.072 488.332V488.132ZM108.653 486.941C107.773 486.15 107.332 485.125 107.332 483.857H107.132C107.132 485.178 107.594 486.258 108.519 487.09L108.653 486.941ZM107.332 483.857C107.332 482.601 107.794 481.614 108.716 480.887L108.592 480.73C107.619 481.498 107.132 482.544 107.132 483.857H107.332ZM108.716 480.887C109.651 480.157 110.991 479.732 112.748 479.623L112.736 479.424C110.956 479.534 109.571 479.965 108.593 480.73L108.716 480.887ZM112.748 479.623L116.576 479.405L116.565 479.205L112.736 479.424L112.748 479.623ZM116.67 479.305V478.266H116.47V479.305H116.67ZM116.67 478.266C116.67 477.486 116.42 476.868 115.911 476.426L115.78 476.577C116.237 476.974 116.47 477.532 116.47 478.266H116.67ZM115.912 476.427C115.414 475.987 114.727 475.773 113.863 475.773V475.973C114.695 475.973 115.329 476.179 115.779 476.577L115.912 476.427ZM113.863 475.773C113.056 475.773 112.387 475.954 111.864 476.325L111.98 476.488C112.46 476.147 113.085 475.973 113.863 475.973V475.773ZM111.864 476.325C111.341 476.695 111.021 477.202 110.907 477.838L111.104 477.873C111.209 477.288 111.5 476.828 111.98 476.488L111.864 476.325ZM111.006 477.755H107.848V477.955H111.006V477.755ZM107.948 477.861C108.019 476.514 108.592 475.424 109.673 474.585L109.55 474.427C108.425 475.301 107.822 476.444 107.748 477.85L107.948 477.861ZM109.673 474.585C110.763 473.736 112.202 473.307 114 473.307V473.107C112.17 473.107 110.684 473.544 109.55 474.427L109.673 474.585ZM114 473.307C115.779 473.307 117.191 473.74 118.244 474.597L118.37 474.442C117.272 473.549 115.812 473.107 114 473.107V473.307ZM118.244 474.597C119.304 475.452 119.834 476.59 119.834 478.02H120.034C120.034 476.533 119.479 475.337 118.369 474.442L118.244 474.597ZM119.834 478.02V488H120.034V478.02H119.834ZM119.934 487.9H116.652V488.1H119.934V487.9ZM116.752 488V485.689H116.552V488H116.752ZM116.652 485.589H116.584V485.789H116.652V485.589ZM116.496 485.643C116.095 486.399 115.49 487.005 114.676 487.462L114.773 487.636C115.618 487.163 116.252 486.529 116.672 485.736L116.496 485.643ZM114.676 487.461C113.862 487.909 112.994 488.132 112.072 488.132V488.332C113.028 488.332 113.929 488.1 114.773 487.636L114.676 487.461ZM122.777 488H122.677V488.1H122.777V488ZM122.777 468.271V468.171H122.677V468.271H122.777ZM126.182 468.271H126.282V468.171H126.182V468.271ZM126.182 488V488.1H126.282V488H126.182ZM122.877 488V468.271H122.677V488H122.877ZM122.777 468.371H126.182V468.171H122.777V468.371ZM126.082 468.271V488H126.282V468.271H126.082ZM126.182 487.9H122.777V488.1H126.182V487.9ZM132.949 476.83L132.878 476.76L132.878 476.76L132.949 476.83ZM131.896 479.332L131.797 479.325L131.789 479.432H131.896V479.332ZM138.664 479.332V479.432H138.768L138.764 479.328L138.664 479.332ZM138.678 483.666V483.566H138.603L138.582 483.637L138.678 483.666ZM141.863 483.666L141.962 483.682L141.98 483.566H141.863V483.666ZM139.771 487.016L139.83 487.097L139.83 487.096L139.771 487.016ZM130.338 486.291L130.264 486.359L130.265 486.359L130.338 486.291ZM130.324 475.285L130.25 475.218L130.249 475.219L130.324 475.285ZM140.195 475.189L140.121 475.257L140.122 475.257L140.195 475.189ZM142 481.574V481.674H142.1V481.574H142ZM131.869 481.574V481.474H131.769V481.574H131.869ZM132.854 484.596L132.78 484.664L132.781 484.664L132.854 484.596ZM137.543 485.129L137.596 485.214L137.597 485.213L137.543 485.129ZM135.328 475.746C134.354 475.746 133.535 476.084 132.878 476.76L133.021 476.9C133.639 476.264 134.406 475.946 135.328 475.946V475.746ZM132.878 476.76C132.23 477.427 131.871 478.284 131.797 479.325L131.996 479.339C132.068 478.338 132.411 477.528 133.021 476.9L132.878 476.76ZM131.896 479.432H138.664V479.232H131.896V479.432ZM138.764 479.328C138.727 478.278 138.396 477.415 137.766 476.748L137.621 476.885C138.212 477.512 138.528 478.326 138.564 479.336L138.764 479.328ZM137.766 476.748C137.135 476.079 136.319 475.746 135.328 475.746V475.946C136.269 475.946 137.031 476.26 137.621 476.885L137.766 476.748ZM138.678 483.766H141.863V483.566H138.678V483.766ZM141.765 483.65C141.55 484.999 140.868 486.093 139.713 486.935L139.83 487.096C141.026 486.225 141.739 485.085 141.962 483.682L141.765 483.65ZM139.713 486.935C138.557 487.768 137.138 488.187 135.451 488.187V488.387C137.173 488.387 138.634 487.959 139.83 487.097L139.713 486.935ZM135.451 488.187C133.304 488.187 131.628 487.529 130.411 486.223L130.265 486.359C131.527 487.714 133.26 488.387 135.451 488.387V488.187ZM130.411 486.223C129.193 484.906 128.579 483.106 128.579 480.809H128.379C128.379 483.142 129.004 484.996 130.264 486.359L130.411 486.223ZM128.579 480.809C128.579 478.53 129.188 476.715 130.399 475.352L130.249 475.219C128.999 476.627 128.379 478.493 128.379 480.809H128.579ZM130.399 475.352C131.617 473.99 133.252 473.307 135.314 473.307V473.107C133.203 473.107 131.511 473.809 130.25 475.218L130.399 475.352ZM135.314 473.307C137.342 473.307 138.94 473.959 140.121 475.257L140.269 475.122C139.044 473.777 137.389 473.107 135.314 473.107V473.307ZM140.122 475.257C141.304 476.547 141.9 478.28 141.9 480.467H142.1C142.1 478.242 141.493 476.457 140.269 475.122L140.122 475.257ZM141.9 480.467V481.574H142.1V480.467H141.9ZM142 481.474H131.869V481.674H142V481.474ZM131.769 481.574V481.779H131.969V481.574H131.769ZM131.769 481.779C131.769 482.966 132.103 483.93 132.78 484.664L132.927 484.528C132.291 483.839 131.969 482.926 131.969 481.779H131.769ZM132.781 484.664C133.468 485.398 134.384 485.762 135.52 485.762V485.562C134.431 485.562 133.57 485.215 132.927 484.527L132.781 484.664ZM135.52 485.762C136.319 485.762 137.013 485.581 137.596 485.214L137.49 485.044C136.943 485.388 136.288 485.562 135.52 485.562V485.762ZM137.597 485.213C138.19 484.837 138.584 484.33 138.774 483.695L138.582 483.637C138.407 484.223 138.045 484.692 137.489 485.044L137.597 485.213ZM144.201 488H144.101V488.1H144.201V488ZM144.201 473.508V473.408H144.101V473.508H144.201ZM147.469 473.508H147.569V473.408H147.469V473.508ZM147.469 475.996H147.369V476.096H147.469V475.996ZM147.537 475.996V476.096H147.601L147.628 476.038L147.537 475.996ZM149.287 473.959L149.234 473.874L149.234 473.874L149.287 473.959ZM155.781 474.67L155.707 474.737L155.708 474.738L155.781 474.67ZM157.107 488V488.1H157.207V488H157.107ZM153.703 488H153.603V488.1H153.703V488ZM152.965 476.939L152.89 477.006L152.891 477.006L152.965 476.939ZM148.467 477.076L148.393 477.009L148.392 477.009L148.467 477.076ZM147.605 488V488.1H147.705V488H147.605ZM144.301 488V473.508H144.101V488H144.301ZM144.201 473.608H147.469V473.408H144.201V473.608ZM147.369 473.508V475.996H147.569V473.508H147.369ZM147.469 476.096H147.537V475.896H147.469V476.096ZM147.628 476.038C148.022 475.179 148.592 474.516 149.34 474.044L149.234 473.874C148.451 474.369 147.855 475.063 147.446 475.954L147.628 476.038ZM149.34 474.044C150.096 473.572 151.011 473.334 152.09 473.334V473.134C150.981 473.134 150.028 473.379 149.234 473.874L149.34 474.044ZM152.09 473.334C153.654 473.334 154.856 473.806 155.707 474.737L155.855 474.602C154.957 473.62 153.697 473.134 152.09 473.134V473.334ZM155.708 474.738C156.57 475.671 157.007 476.966 157.007 478.635H157.207C157.207 476.931 156.76 475.583 155.855 474.602L155.708 474.738ZM157.007 478.635V488H157.207V478.635H157.007ZM157.107 487.9H153.703V488.1H157.107V487.9ZM153.803 488V479.318H153.603V488H153.803ZM153.803 479.318C153.803 478.265 153.554 477.444 153.039 476.873L152.891 477.006C153.36 477.529 153.603 478.294 153.603 479.318H153.803ZM153.04 476.873C152.532 476.299 151.781 476.019 150.805 476.019V476.219C151.743 476.219 152.431 476.486 152.89 477.006L153.04 476.873ZM150.805 476.019C149.805 476.019 148.998 476.347 148.393 477.009L148.541 477.144C149.102 476.529 149.854 476.219 150.805 476.219V476.019ZM148.392 477.009C147.798 477.67 147.505 478.538 147.505 479.605H147.705C147.705 478.576 147.987 477.759 148.541 477.143L148.392 477.009ZM147.505 479.605V488H147.705V479.605H147.505ZM147.605 487.9H144.201V488.1H147.605V487.9ZM160.867 486.209L160.789 486.272L160.79 486.272L160.867 486.209ZM160.867 475.285L160.79 475.222L160.789 475.222L160.867 475.285ZM167.963 473.986L167.91 474.071L167.911 474.072L167.963 473.986ZM169.74 475.941L169.65 475.985L169.677 476.041H169.74V475.941ZM169.822 475.941V476.041H169.922V475.941H169.822ZM169.822 468.271V468.171H169.722V468.271H169.822ZM173.227 468.271H173.327V468.171H173.227V468.271ZM173.227 488V488.1H173.327V488H173.227ZM169.891 488H169.791V488.1H169.891V488ZM169.891 485.525H169.991V485.425H169.891V485.525ZM169.836 485.525V485.425H169.773L169.746 485.482L169.836 485.525ZM168.018 487.508L168.069 487.593L168.069 487.593L168.018 487.508ZM163.684 477.336L163.763 477.396L163.763 477.396L163.684 477.336ZM163.67 484.186L163.59 484.246L163.59 484.246L163.67 484.186ZM168.865 477.35L168.785 477.41L168.786 477.41L168.865 477.35ZM165.256 488.132C163.452 488.132 162.018 487.47 160.945 486.146L160.79 486.272C161.903 487.646 163.396 488.332 165.256 488.332V488.132ZM160.945 486.146C159.879 484.82 159.34 483.022 159.34 480.74H159.14C159.14 483.052 159.686 484.9 160.789 486.272L160.945 486.146ZM159.34 480.74C159.34 478.468 159.879 476.674 160.945 475.348L160.789 475.222C159.686 476.594 159.14 478.437 159.14 480.74H159.34ZM160.945 475.348C162.018 474.024 163.452 473.362 165.256 473.362V473.162C163.396 473.162 161.903 473.848 160.79 475.222L160.945 475.348ZM165.256 473.362C166.26 473.362 167.144 473.599 167.91 474.071L168.015 473.901C167.214 473.407 166.293 473.162 165.256 473.162V473.362ZM167.911 474.072C168.688 474.545 169.267 475.182 169.65 475.985L169.83 475.898C169.43 475.06 168.824 474.394 168.015 473.901L167.911 474.072ZM169.74 476.041H169.822V475.841H169.74V476.041ZM169.922 475.941V468.271H169.722V475.941H169.922ZM169.822 468.371H173.227V468.171H169.822V468.371ZM173.127 468.271V488H173.327V468.271H173.127ZM173.227 487.9H169.891V488.1H173.227V487.9ZM169.991 488V485.525H169.791V488H169.991ZM169.891 485.425H169.836V485.625H169.891V485.425ZM169.746 485.482C169.354 486.293 168.761 486.94 167.966 487.422L168.069 487.593C168.897 487.091 169.516 486.416 169.926 485.569L169.746 485.482ZM167.966 487.422C167.181 487.895 166.279 488.132 165.256 488.132V488.332C166.311 488.332 167.25 488.087 168.069 487.593L167.966 487.422ZM166.281 475.964C165.157 475.964 164.261 476.402 163.604 477.276L163.763 477.396C164.382 476.574 165.218 476.164 166.281 476.164V475.964ZM163.604 477.275C162.949 478.137 162.627 479.3 162.627 480.754H162.827C162.827 479.328 163.143 478.212 163.763 477.396L163.604 477.275ZM162.627 480.754C162.627 482.217 162.944 483.384 163.59 484.246L163.75 484.126C163.138 483.31 162.827 482.19 162.827 480.754H162.627ZM163.59 484.246C164.248 485.111 165.149 485.543 166.281 485.543V485.343C165.208 485.343 164.368 484.937 163.75 484.125L163.59 484.246ZM166.281 485.543C167.388 485.543 168.278 485.105 168.945 484.233L168.786 484.111C168.158 484.934 167.326 485.343 166.281 485.343V485.543ZM168.945 484.233C169.609 483.362 169.936 482.199 169.936 480.754H169.736C169.736 482.17 169.416 483.286 168.786 484.111L168.945 484.233ZM169.936 480.754C169.936 479.317 169.609 478.159 168.945 477.289L168.786 477.41C169.416 478.236 169.736 479.347 169.736 480.754H169.936ZM168.945 477.289C168.279 476.407 167.388 475.964 166.281 475.964V476.164C167.325 476.164 168.157 476.578 168.785 477.41L168.945 477.289ZM183.836 484.801L183.901 484.876L183.901 484.876L183.836 484.801ZM184.848 481.52H184.948V481.413L184.842 481.42L184.848 481.52ZM181.498 481.725L181.492 481.625L181.491 481.625L181.498 481.725ZM179.584 482.34L179.645 482.419L179.645 482.419L179.584 482.34ZM179.584 485.143L179.522 485.221L179.523 485.222L179.584 485.143ZM176.863 487.016L176.796 487.09L176.797 487.09L176.863 487.016ZM176.932 480.809L176.87 480.73L176.87 480.73L176.932 480.809ZM181.02 479.523L181.014 479.424L181.013 479.424L181.02 479.523ZM184.848 479.305L184.853 479.405L184.948 479.399V479.305H184.848ZM184.123 476.502L184.057 476.577L184.057 476.577L184.123 476.502ZM179.283 477.855V477.955H179.367L179.382 477.873L179.283 477.855ZM176.125 477.855L176.025 477.85L176.02 477.955H176.125V477.855ZM177.889 474.506L177.95 474.585L177.95 474.585L177.889 474.506ZM186.584 474.52L186.521 474.597L186.521 474.597L186.584 474.52ZM188.211 488V488.1H188.311V488H188.211ZM184.93 488H184.83V488.1H184.93V488ZM184.93 485.689H185.03V485.589H184.93V485.689ZM184.861 485.689V485.589H184.801L184.773 485.643L184.861 485.689ZM183.002 487.549L183.05 487.636L183.051 487.636L183.002 487.549ZM181.375 485.762C182.371 485.762 183.216 485.468 183.901 484.876L183.771 484.725C183.125 485.282 182.329 485.562 181.375 485.562V485.762ZM183.901 484.876C184.597 484.275 184.948 483.523 184.948 482.627H184.748C184.748 483.463 184.424 484.16 183.771 484.725L183.901 484.876ZM184.948 482.627V481.52H184.748V482.627H184.948ZM184.842 481.42L181.492 481.625L181.504 481.824L184.854 481.619L184.842 481.42ZM181.491 481.625C180.659 481.68 179.999 481.889 179.522 482.261L179.645 482.419C180.08 482.08 180.696 481.878 181.505 481.824L181.491 481.625ZM179.523 482.261C179.051 482.626 178.814 483.116 178.814 483.721H179.014C179.014 483.177 179.224 482.746 179.645 482.419L179.523 482.261ZM178.814 483.721C178.814 484.342 179.05 484.846 179.522 485.221L179.646 485.064C179.225 484.729 179.014 484.284 179.014 483.721H178.814ZM179.523 485.222C180.001 485.585 180.621 485.762 181.375 485.762V485.562C180.652 485.562 180.078 485.393 179.644 485.063L179.523 485.222ZM180.35 488.132C178.957 488.132 177.82 487.733 176.93 486.941L176.797 487.09C177.729 487.92 178.916 488.332 180.35 488.332V488.132ZM176.93 486.941C176.05 486.15 175.61 485.125 175.61 483.857H175.41C175.41 485.178 175.871 486.258 176.796 487.09L176.93 486.941ZM175.61 483.857C175.61 482.601 176.071 481.614 176.994 480.887L176.87 480.73C175.896 481.498 175.41 482.544 175.41 483.857H175.61ZM176.993 480.887C177.929 480.157 179.269 479.732 181.026 479.623L181.013 479.424C179.234 479.534 177.849 479.965 176.87 480.73L176.993 480.887ZM181.025 479.623L184.853 479.405L184.842 479.205L181.014 479.424L181.025 479.623ZM184.948 479.305V478.266H184.748V479.305H184.948ZM184.948 478.266C184.948 477.486 184.698 476.868 184.189 476.426L184.057 476.577C184.515 476.974 184.748 477.532 184.748 478.266H184.948ZM184.189 476.427C183.692 475.987 183.004 475.773 182.141 475.773V475.973C182.972 475.973 183.607 476.179 184.057 476.577L184.189 476.427ZM182.141 475.773C181.333 475.773 180.664 475.954 180.141 476.325L180.257 476.488C180.737 476.147 181.362 475.973 182.141 475.973V475.773ZM180.141 476.325C179.618 476.695 179.299 477.202 179.185 477.838L179.382 477.873C179.486 477.288 179.777 476.828 180.257 476.488L180.141 476.325ZM179.283 477.755H176.125V477.955H179.283V477.755ZM176.225 477.861C176.296 476.514 176.87 475.424 177.95 474.585L177.827 474.427C176.702 475.301 176.1 476.444 176.025 477.85L176.225 477.861ZM177.95 474.585C179.04 473.736 180.479 473.307 182.277 473.307V473.107C180.448 473.107 178.961 473.544 177.827 474.427L177.95 474.585ZM182.277 473.307C184.057 473.307 185.468 473.74 186.521 474.597L186.647 474.442C185.549 473.549 184.089 473.107 182.277 473.107V473.307ZM186.521 474.597C187.581 475.452 188.111 476.59 188.111 478.02H188.311C188.311 476.533 187.756 475.337 186.647 474.442L186.521 474.597ZM188.111 478.02V488H188.311V478.02H188.111ZM188.211 487.9H184.93V488.1H188.211V487.9ZM185.03 488V485.689H184.83V488H185.03ZM184.93 485.589H184.861V485.789H184.93V485.589ZM184.773 485.643C184.373 486.399 183.767 487.005 182.953 487.462L183.051 487.636C183.896 487.163 184.53 486.529 184.95 485.736L184.773 485.643ZM182.954 487.461C182.139 487.909 181.271 488.132 180.35 488.132V488.332C181.305 488.332 182.206 488.1 183.05 487.636L182.954 487.461ZM190.959 488H190.859V488.1H190.959V488ZM190.959 473.508V473.408H190.859V473.508H190.959ZM194.227 473.508H194.327V473.408H194.227V473.508ZM194.227 476.037H194.127V476.137H194.227V476.037ZM194.295 476.037V476.137H194.371L194.391 476.064L194.295 476.037ZM195.566 473.986L195.504 473.908L195.504 473.908L195.566 473.986ZM198.834 473.398H198.934V473.318L198.856 473.301L198.834 473.398ZM198.834 476.475L198.799 476.568L198.934 476.619V476.475H198.834ZM194.363 488V488.1H194.463V488H194.363ZM191.059 488V473.508H190.859V488H191.059ZM190.959 473.608H194.227V473.408H190.959V473.608ZM194.127 473.508V476.037H194.327V473.508H194.127ZM194.227 476.137H194.295V475.937H194.227V476.137ZM194.391 476.064C194.633 475.196 195.047 474.532 195.629 474.064L195.504 473.908C194.883 474.407 194.449 475.11 194.199 476.01L194.391 476.064ZM195.628 474.065C196.22 473.597 196.931 473.362 197.768 473.362V473.162C196.891 473.162 196.135 473.409 195.504 473.908L195.628 474.065ZM197.768 473.362C198.059 473.362 198.407 473.406 198.812 473.496L198.856 473.301C198.441 473.209 198.078 473.162 197.768 473.162V473.362ZM198.734 473.398V476.475H198.934V473.398H198.734ZM198.869 476.381C198.516 476.247 198.042 476.183 197.453 476.183V476.383C198.031 476.383 198.477 476.447 198.799 476.568L198.869 476.381ZM197.453 476.183C196.466 476.183 195.68 476.482 195.111 477.09L195.257 477.227C195.781 476.668 196.508 476.383 197.453 476.383V476.183ZM195.111 477.09C194.542 477.696 194.263 478.526 194.263 479.564H194.463C194.463 478.562 194.731 477.787 195.257 477.227L195.111 477.09ZM194.263 479.564V488H194.463V479.564H194.263ZM194.363 487.9H190.959V488.1H194.363V487.9ZM207.215 486.209L207.137 486.272L207.137 486.272L207.215 486.209ZM207.215 475.285L207.137 475.222L207.137 475.222L207.215 475.285ZM214.311 473.986L214.258 474.071L214.259 474.072L214.311 473.986ZM216.088 475.941L215.998 475.985L216.025 476.041H216.088V475.941ZM216.17 475.941V476.041H216.27V475.941H216.17ZM216.17 468.271V468.171H216.07V468.271H216.17ZM219.574 468.271H219.674V468.171H219.574V468.271ZM219.574 488V488.1H219.674V488H219.574ZM216.238 488H216.138V488.1H216.238V488ZM216.238 485.525H216.338V485.425H216.238V485.525ZM216.184 485.525V485.425H216.121L216.094 485.482L216.184 485.525ZM214.365 487.508L214.417 487.593L214.417 487.593L214.365 487.508ZM210.031 477.336L210.111 477.396L210.111 477.396L210.031 477.336ZM210.018 484.186L209.938 484.246L209.938 484.246L210.018 484.186ZM215.213 477.35L215.133 477.41L215.133 477.41L215.213 477.35ZM211.604 488.132C209.8 488.132 208.366 487.47 207.293 486.146L207.137 486.272C208.251 487.646 209.743 488.332 211.604 488.332V488.132ZM207.293 486.146C206.226 484.82 205.688 483.022 205.688 480.74H205.488C205.488 483.052 206.034 484.9 207.137 486.272L207.293 486.146ZM205.688 480.74C205.688 478.468 206.226 476.674 207.293 475.348L207.137 475.222C206.034 476.594 205.488 478.437 205.488 480.74H205.688ZM207.293 475.348C208.366 474.024 209.8 473.362 211.604 473.362V473.162C209.743 473.162 208.251 473.848 207.137 475.222L207.293 475.348ZM211.604 473.362C212.608 473.362 213.492 473.599 214.258 474.071L214.363 473.901C213.562 473.407 212.641 473.162 211.604 473.162V473.362ZM214.259 474.072C215.035 474.545 215.614 475.182 215.998 475.985L216.178 475.898C215.778 475.06 215.172 474.394 214.363 473.901L214.259 474.072ZM216.088 476.041H216.17V475.841H216.088V476.041ZM216.27 475.941V468.271H216.07V475.941H216.27ZM216.17 468.371H219.574V468.171H216.17V468.371ZM219.474 468.271V488H219.674V468.271H219.474ZM219.574 487.9H216.238V488.1H219.574V487.9ZM216.338 488V485.525H216.138V488H216.338ZM216.238 485.425H216.184V485.625H216.238V485.425ZM216.094 485.482C215.701 486.293 215.109 486.94 214.313 487.422L214.417 487.593C215.244 487.091 215.864 486.416 216.274 485.569L216.094 485.482ZM214.314 487.422C213.529 487.895 212.626 488.132 211.604 488.132V488.332C212.659 488.332 213.598 488.087 214.417 487.593L214.314 487.422ZM212.629 475.964C211.505 475.964 210.609 476.402 209.951 477.276L210.111 477.396C210.73 476.574 211.565 476.164 212.629 476.164V475.964ZM209.952 477.275C209.296 478.137 208.974 479.3 208.974 480.754H209.174C209.174 479.328 209.49 478.212 210.111 477.396L209.952 477.275ZM208.974 480.754C208.974 482.217 209.292 483.384 209.938 484.246L210.098 484.126C209.486 483.31 209.174 482.19 209.174 480.754H208.974ZM209.938 484.246C210.596 485.111 211.497 485.543 212.629 485.543V485.343C211.556 485.343 210.715 484.937 210.097 484.125L209.938 484.246ZM212.629 485.543C213.735 485.543 214.626 485.105 215.292 484.233L215.133 484.111C214.505 484.934 213.674 485.343 212.629 485.343V485.543ZM215.292 484.233C215.957 483.362 216.284 482.199 216.284 480.754H216.084C216.084 482.17 215.763 483.286 215.133 484.111L215.292 484.233ZM216.284 480.754C216.284 479.317 215.957 478.159 215.292 477.289L215.133 477.41C215.763 478.236 216.084 479.347 216.084 480.754H216.284ZM215.293 477.289C214.627 476.407 213.736 475.964 212.629 475.964V476.164C213.673 476.164 214.505 476.578 215.133 477.41L215.293 477.289ZM226.301 476.83L226.229 476.76L226.229 476.76L226.301 476.83ZM225.248 479.332L225.148 479.325L225.141 479.432H225.248V479.332ZM232.016 479.332V479.432H232.119L232.116 479.328L232.016 479.332ZM232.029 483.666V483.566H231.955L231.933 483.637L232.029 483.666ZM235.215 483.666L235.314 483.682L235.332 483.566H235.215V483.666ZM233.123 487.016L233.182 487.097L233.182 487.096L233.123 487.016ZM223.689 486.291L223.616 486.359L223.616 486.359L223.689 486.291ZM223.676 475.285L223.601 475.218L223.601 475.219L223.676 475.285ZM233.547 475.189L233.473 475.257L233.473 475.257L233.547 475.189ZM235.352 481.574V481.674H235.452V481.574H235.352ZM225.221 481.574V481.474H225.121V481.574H225.221ZM226.205 484.596L226.132 484.664L226.132 484.664L226.205 484.596ZM230.895 485.129L230.948 485.214L230.948 485.213L230.895 485.129ZM228.68 475.746C227.706 475.746 226.887 476.084 226.229 476.76L226.372 476.9C226.991 476.264 227.758 475.946 228.68 475.946V475.746ZM226.229 476.76C225.582 477.427 225.223 478.284 225.148 479.325L225.348 479.339C225.419 478.338 225.762 477.528 226.372 476.9L226.229 476.76ZM225.248 479.432H232.016V479.232H225.248V479.432ZM232.116 479.328C232.078 478.278 231.748 477.415 231.118 476.748L230.972 476.885C231.564 477.512 231.88 478.326 231.916 479.336L232.116 479.328ZM231.118 476.748C230.486 476.079 229.671 475.746 228.68 475.746V475.946C229.621 475.946 230.382 476.26 230.972 476.885L231.118 476.748ZM232.029 483.766H235.215V483.566H232.029V483.766ZM235.116 483.65C234.902 484.999 234.22 486.093 233.064 486.935L233.182 487.096C234.378 486.225 235.09 485.085 235.314 483.682L235.116 483.65ZM233.065 486.935C231.909 487.768 230.49 488.187 228.803 488.187V488.387C230.524 488.387 231.986 487.959 233.182 487.097L233.065 486.935ZM228.803 488.187C226.655 488.187 224.98 487.529 223.763 486.223L223.616 486.359C224.878 487.714 226.612 488.387 228.803 488.387V488.187ZM223.763 486.223C222.545 484.906 221.93 483.106 221.93 480.809H221.73C221.73 483.142 222.355 484.996 223.616 486.359L223.763 486.223ZM221.93 480.809C221.93 478.53 222.54 476.715 223.751 475.352L223.601 475.219C222.351 476.627 221.73 478.493 221.73 480.809H221.93ZM223.75 475.352C224.968 473.99 226.603 473.307 228.666 473.307V473.107C226.554 473.107 224.862 473.809 223.601 475.218L223.75 475.352ZM228.666 473.307C230.693 473.307 232.292 473.959 233.473 475.257L233.621 475.122C232.396 473.777 230.74 473.107 228.666 473.107V473.307ZM233.473 475.257C234.656 476.547 235.252 478.28 235.252 480.467H235.452C235.452 478.242 234.844 476.457 233.621 475.122L233.473 475.257ZM235.252 480.467V481.574H235.452V480.467H235.252ZM235.352 481.474H225.221V481.674H235.352V481.474ZM225.121 481.574V481.779H225.321V481.574H225.121ZM225.121 481.779C225.121 482.966 225.455 483.93 226.132 484.664L226.279 484.528C225.643 483.839 225.321 482.926 225.321 481.779H225.121ZM226.132 484.664C226.819 485.398 227.736 485.762 228.871 485.762V485.562C227.782 485.562 226.922 485.215 226.278 484.527L226.132 484.664ZM228.871 485.762C229.67 485.762 230.364 485.581 230.948 485.214L230.841 485.044C230.295 485.388 229.639 485.562 228.871 485.562V485.762ZM230.948 485.213C231.541 484.837 231.935 484.33 232.125 483.695L231.933 483.637C231.759 484.223 231.396 484.692 230.841 485.044L230.948 485.213ZM247.287 474.465L247.225 474.543L247.226 474.544L247.287 474.465ZM248.955 477.719V477.819H249.059L249.055 477.715L248.955 477.719ZM245.783 477.719L245.684 477.727L245.692 477.819H245.783V477.719ZM241.285 476.201L241.343 476.283L241.344 476.282L241.285 476.201ZM242.68 479.182L242.656 479.279L242.658 479.279L242.68 479.182ZM245.264 479.756L245.286 479.658L245.285 479.658L245.264 479.756ZM248.367 481.178L248.437 481.107L248.367 481.178ZM247.574 487.029L247.633 487.11L247.634 487.11L247.574 487.029ZM238.742 487.057L238.682 487.136L238.683 487.137L238.742 487.057ZM236.924 483.734V483.634H236.815L236.824 483.743L236.924 483.734ZM240.273 483.734L240.372 483.719L240.359 483.634H240.273V483.734ZM241.176 485.266L241.118 485.347L241.119 485.348L241.176 485.266ZM245.182 485.334L245.236 485.418L245.237 485.417L245.182 485.334ZM245.455 483.051L245.389 483.126L245.392 483.128L245.455 483.051ZM243.965 482.395L243.99 482.298L243.988 482.297L243.965 482.395ZM241.326 481.779L241.303 481.877L241.303 481.877L241.326 481.779ZM237.393 477.664C237.393 476.365 237.916 475.319 238.967 474.517L238.846 474.358C237.746 475.197 237.193 476.302 237.193 477.664H237.393ZM238.967 474.517C240.02 473.714 241.414 473.307 243.158 473.307V473.107C241.384 473.107 239.943 473.521 238.846 474.358L238.967 474.517ZM243.158 473.307C244.837 473.307 246.189 473.722 247.225 474.543L247.349 474.386C246.27 473.531 244.87 473.107 243.158 473.107V473.307ZM247.226 474.544C248.269 475.355 248.811 476.412 248.855 477.722L249.055 477.715C249.008 476.346 248.438 475.233 247.349 474.386L247.226 474.544ZM248.955 477.619H245.783V477.819H248.955V477.619ZM245.883 477.71C245.826 477.055 245.549 476.536 245.05 476.162L244.93 476.322C245.38 476.659 245.631 477.125 245.684 477.727L245.883 477.71ZM245.05 476.162C244.554 475.79 243.897 475.609 243.09 475.609V475.809C243.868 475.809 244.479 475.983 244.93 476.322L245.05 476.162ZM243.09 475.609C242.328 475.609 241.704 475.776 241.227 476.12L241.344 476.282C241.777 475.97 242.357 475.809 243.09 475.809V475.609ZM241.228 476.119C240.747 476.456 240.502 476.909 240.502 477.473H240.702C240.702 476.979 240.912 476.585 241.342 476.283L241.228 476.119ZM240.502 477.473C240.502 477.907 240.691 478.277 241.058 478.579C241.42 478.877 241.956 479.108 242.656 479.279L242.703 479.084C242.018 478.918 241.514 478.695 241.185 478.424C240.858 478.156 240.702 477.84 240.702 477.473H240.502ZM242.658 479.279L245.242 479.853L245.285 479.658L242.701 479.084L242.658 479.279ZM245.241 479.853C246.684 480.189 247.697 480.657 248.297 481.249L248.437 481.107C247.798 480.477 246.742 479.997 245.286 479.658L245.241 479.853ZM248.297 481.249C248.893 481.837 249.197 482.652 249.197 483.707H249.397C249.397 482.611 249.081 481.74 248.437 481.107L248.297 481.249ZM249.197 483.707C249.197 485.041 248.639 486.119 247.515 486.949L247.634 487.11C248.806 486.244 249.397 485.108 249.397 483.707H249.197ZM247.515 486.949C246.388 487.771 244.92 488.187 243.104 488.187V488.387C244.951 488.387 246.463 487.964 247.633 487.11L247.515 486.949ZM243.104 488.187C241.314 488.187 239.883 487.78 238.802 486.976L238.683 487.137C239.807 487.974 241.284 488.387 243.104 488.387V488.187ZM238.803 486.977C237.732 486.165 237.14 485.083 237.023 483.726L236.824 483.743C236.945 485.156 237.565 486.29 238.682 487.136L238.803 486.977ZM236.924 483.834H240.273V483.634H236.924V483.834ZM240.175 483.749C240.278 484.439 240.592 484.974 241.118 485.347L241.234 485.184C240.757 484.846 240.469 484.361 240.372 483.719L240.175 483.749ZM241.119 485.348C241.651 485.718 242.357 485.899 243.227 485.899V485.699C242.383 485.699 241.721 485.524 241.233 485.184L241.119 485.348ZM243.227 485.899C244.067 485.899 244.74 485.742 245.236 485.418L245.127 485.25C244.675 485.546 244.045 485.699 243.227 485.699V485.899ZM245.237 485.417C245.745 485.082 246.006 484.623 246.006 484.049H245.806C245.806 484.55 245.584 484.948 245.127 485.251L245.237 485.417ZM246.006 484.049C246.006 483.602 245.844 483.24 245.518 482.973L245.392 483.128C245.667 483.354 245.806 483.657 245.806 484.049H246.006ZM245.521 482.976C245.211 482.705 244.696 482.481 243.99 482.298L243.94 482.491C244.637 482.673 245.116 482.887 245.389 483.126L245.521 482.976ZM243.988 482.297L241.349 481.682L241.303 481.877L243.942 482.492L243.988 482.297ZM241.349 481.682C240.015 481.37 239.027 480.876 238.373 480.209C237.721 479.544 237.393 478.698 237.393 477.664H237.193C237.193 478.745 237.537 479.642 238.23 480.349C238.92 481.053 239.948 481.56 241.303 481.877L241.349 481.682ZM251.553 488H251.453V488.1H251.553V488ZM251.553 473.508V473.408H251.453V473.508H251.553ZM254.957 473.508H255.057V473.408H254.957V473.508ZM254.957 488V488.1H255.057V488H254.957ZM254.588 471.074L254.658 471.146L254.658 471.146L254.588 471.074ZM251.908 471.074L251.837 471.145L251.838 471.146L251.908 471.074ZM251.908 468.449L251.978 468.521L251.979 468.52L251.908 468.449ZM254.588 468.449L254.517 468.52L254.519 468.522L254.588 468.449ZM251.653 488V473.508H251.453V488H251.653ZM251.553 473.608H254.957V473.408H251.553V473.608ZM254.857 473.508V488H255.057V473.508H254.857ZM254.957 487.9H251.553V488.1H254.957V487.9ZM254.518 471.003C254.173 471.339 253.752 471.507 253.248 471.507V471.707C253.802 471.707 254.274 471.52 254.658 471.146L254.518 471.003ZM253.248 471.507C252.744 471.507 252.323 471.339 251.978 471.003L251.838 471.146C252.222 471.52 252.694 471.707 253.248 471.707V471.507ZM251.979 471.004C251.633 470.657 251.461 470.245 251.461 469.762H251.261C251.261 470.299 251.454 470.762 251.837 471.145L251.979 471.004ZM251.461 469.762C251.461 469.269 251.633 468.857 251.978 468.521L251.838 468.378C251.454 468.752 251.261 469.216 251.261 469.762H251.461ZM251.979 468.52C252.324 468.175 252.745 468.002 253.248 468.002V467.802C252.694 467.802 252.221 467.995 251.837 468.379L251.979 468.52ZM253.248 468.002C253.751 468.002 254.172 468.175 254.517 468.52L254.659 468.379C254.275 467.995 253.802 467.802 253.248 467.802V468.002ZM254.519 468.522C254.873 468.858 255.048 469.269 255.048 469.762H255.248C255.248 469.215 255.051 468.751 254.657 468.377L254.519 468.522ZM255.048 469.762C255.048 470.245 254.873 470.656 254.518 471.003L254.658 471.146C255.05 470.763 255.248 470.3 255.248 469.762H255.048ZM266.824 484.076L266.903 484.138L266.903 484.138L266.824 484.076ZM266.811 477.336L266.731 477.397L266.732 477.398L266.811 477.336ZM261.643 477.322L261.563 477.262L261.563 477.262L261.643 477.322ZM261.643 484.09L261.563 484.151L261.564 484.152L261.643 484.09ZM259.742 492.238L259.799 492.156L259.799 492.156L259.742 492.238ZM257.705 489.094V488.994H257.591L257.606 489.107L257.705 489.094ZM261.082 489.094L261.177 489.063L261.154 488.994H261.082V489.094ZM262.23 490.434L262.282 490.348L262.281 490.347L262.23 490.434ZM266.865 490.105L266.798 490.031L266.797 490.032L266.865 490.105ZM267.795 485.416H267.895V485.316H267.795V485.416ZM267.713 485.416V485.316H267.65L267.623 485.373L267.713 485.416ZM265.922 487.316L265.972 487.403L265.972 487.403L265.922 487.316ZM258.84 486.045L258.763 486.108L258.763 486.109L258.84 486.045ZM258.84 475.271L258.917 475.335L258.918 475.334L258.84 475.271ZM265.977 474L265.924 474.085L265.925 474.086L265.977 474ZM267.809 475.996L267.719 476.04L267.746 476.096H267.809V475.996ZM267.863 475.996V476.096H267.963V475.996H267.863ZM267.863 473.508V473.408H267.763V473.508H267.863ZM271.199 473.508H271.299V473.408H271.199V473.508ZM269.285 491.91L269.222 491.832L269.222 491.833L269.285 491.91ZM264.213 485.407C265.336 485.407 266.236 484.984 266.903 484.138L266.746 484.014C266.119 484.809 265.278 485.207 264.213 485.207V485.407ZM266.903 484.138C267.568 483.286 267.895 482.14 267.895 480.713H267.695C267.695 482.111 267.375 483.208 266.745 484.015L266.903 484.138ZM267.895 480.713C267.895 479.285 267.563 478.135 266.889 477.274L266.732 477.398C267.37 478.214 267.695 479.315 267.695 480.713H267.895ZM266.89 477.275C266.224 476.402 265.328 475.964 264.213 475.964V476.164C265.267 476.164 266.103 476.574 266.731 477.397L266.89 477.275ZM264.213 475.964C263.107 475.964 262.22 476.398 261.563 477.262L261.722 477.383C262.341 476.57 263.168 476.164 264.213 476.164V475.964ZM261.563 477.262C260.917 478.123 260.599 479.277 260.599 480.713H260.799C260.799 479.305 261.111 478.198 261.723 477.382L261.563 477.262ZM260.599 480.713C260.599 482.158 260.917 483.307 261.563 484.151L261.722 484.029C261.111 483.232 260.799 482.13 260.799 480.713H260.599ZM261.564 484.152C262.222 484.988 263.108 485.407 264.213 485.407V485.207C263.167 485.207 262.339 484.814 261.721 484.028L261.564 484.152ZM264.199 493.369C262.437 493.369 260.973 492.962 259.799 492.156L259.686 492.321C260.9 493.155 262.406 493.569 264.199 493.569V493.369ZM259.799 492.156C258.634 491.359 257.973 490.334 257.804 489.08L257.606 489.107C257.783 490.423 258.48 491.496 259.686 492.321L259.799 492.156ZM257.705 489.194H261.082V488.994H257.705V489.194ZM260.987 489.125C261.178 489.708 261.579 490.173 262.18 490.52L262.281 490.347C261.715 490.02 261.351 489.592 261.177 489.063L260.987 489.125ZM262.179 490.52C262.781 490.877 263.492 491.053 264.309 491.053V490.853C263.521 490.853 262.847 490.683 262.282 490.348L262.179 490.52ZM264.309 491.053C265.419 491.053 266.299 490.766 266.933 490.179L266.797 490.032C266.21 490.575 265.385 490.853 264.309 490.853V491.053ZM266.932 490.18C267.576 489.602 267.895 488.826 267.895 487.863H267.695C267.695 488.778 267.394 489.497 266.798 490.031L266.932 490.18ZM267.895 487.863V485.416H267.695V487.863H267.895ZM267.795 485.316H267.713V485.516H267.795V485.316ZM267.623 485.373C267.249 486.146 266.667 486.765 265.871 487.23L265.972 487.403C266.799 486.919 267.411 486.272 267.803 485.459L267.623 485.373ZM265.872 487.23C265.087 487.685 264.188 487.914 263.174 487.914V488.114C264.219 488.114 265.153 487.878 265.972 487.403L265.872 487.23ZM263.174 487.914C261.397 487.914 259.981 487.269 258.917 485.981L258.763 486.109C259.868 487.446 261.341 488.114 263.174 488.114V487.914ZM258.917 485.981C257.851 484.683 257.313 482.926 257.313 480.699H257.113C257.113 482.957 257.659 484.764 258.763 486.108L258.917 485.981ZM257.313 480.699C257.313 478.427 257.851 476.642 258.917 475.335L258.762 475.208C257.659 476.562 257.113 478.396 257.113 480.699H257.313ZM258.918 475.334C259.982 474.02 261.42 473.362 263.242 473.362V473.162C261.364 473.162 259.867 473.843 258.762 475.209L258.918 475.334ZM263.242 473.362C264.246 473.362 265.139 473.604 265.924 474.085L266.029 473.915C265.21 473.412 264.28 473.162 263.242 473.162V473.362ZM265.925 474.086C266.711 474.559 267.308 475.21 267.719 476.04L267.898 475.952C267.471 475.087 266.847 474.407 266.028 473.914L265.925 474.086ZM267.809 476.096H267.863V475.896H267.809V476.096ZM267.963 475.996V473.508H267.763V475.996H267.963ZM267.863 473.608H271.199V473.408H267.863V473.608ZM271.099 473.508V487.768H271.299V473.508H271.099ZM271.099 487.768C271.099 489.471 270.473 490.823 269.222 491.832L269.348 491.988C270.649 490.938 271.299 489.528 271.299 487.768H271.099ZM269.222 491.833C267.968 492.853 266.297 493.369 264.199 493.369V493.569C266.33 493.569 268.05 493.045 269.348 491.988L269.222 491.833ZM273.975 488H273.875V488.1H273.975V488ZM273.975 473.508V473.408H273.875V473.508H273.975ZM277.242 473.508H277.342V473.408H277.242V473.508ZM277.242 475.996H277.142V476.096H277.242V475.996ZM277.311 475.996V476.096H277.375L277.401 476.038L277.311 475.996ZM279.061 473.959L279.008 473.874L279.007 473.874L279.061 473.959ZM285.555 474.67L285.481 474.737L285.481 474.738L285.555 474.67ZM286.881 488V488.1H286.981V488H286.881ZM283.477 488H283.377V488.1H283.477V488ZM282.738 476.939L282.663 477.006L282.664 477.006L282.738 476.939ZM278.24 477.076L278.166 477.009L278.166 477.009L278.24 477.076ZM277.379 488V488.1H277.479V488H277.379ZM274.075 488V473.508H273.875V488H274.075ZM273.975 473.608H277.242V473.408H273.975V473.608ZM277.142 473.508V475.996H277.342V473.508H277.142ZM277.242 476.096H277.311V475.896H277.242V476.096ZM277.401 476.038C277.795 475.179 278.366 474.516 279.114 474.044L279.007 473.874C278.224 474.369 277.628 475.063 277.22 475.954L277.401 476.038ZM279.113 474.044C279.869 473.572 280.785 473.334 281.863 473.334V473.134C280.755 473.134 279.801 473.379 279.008 473.874L279.113 474.044ZM281.863 473.334C283.428 473.334 284.629 473.806 285.481 474.737L285.628 474.602C284.73 473.62 283.471 473.134 281.863 473.134V473.334ZM285.481 474.738C286.344 475.671 286.781 476.966 286.781 478.635H286.981C286.981 476.931 286.534 475.583 285.628 474.602L285.481 474.738ZM286.781 478.635V488H286.981V478.635H286.781ZM286.881 487.9H283.477V488.1H286.881V487.9ZM283.577 488V479.318H283.377V488H283.577ZM283.577 479.318C283.577 478.265 283.327 477.444 282.813 476.873L282.664 477.006C283.134 477.529 283.377 478.294 283.377 479.318H283.577ZM282.813 476.873C282.306 476.299 281.554 476.019 280.578 476.019V476.219C281.516 476.219 282.205 476.486 282.663 477.006L282.813 476.873ZM280.578 476.019C279.579 476.019 278.771 476.347 278.166 477.009L278.314 477.144C278.876 476.529 279.627 476.219 280.578 476.219V476.019ZM278.166 477.009C277.572 477.67 277.279 478.538 277.279 479.605H277.479C277.479 478.576 277.76 477.759 278.315 477.143L278.166 477.009ZM277.279 479.605V488H277.479V479.605H277.279ZM277.379 487.9H273.975V488.1H277.379V487.9Z"
            fill="white" />
        <rect x="53.3533" y="293.869" width="30" height="110" rx="5"
            transform="rotate(-75 53.3533 293.869)" fill="#E7E7E7" />
        <rect x="57.0275" y="291.747" width="24" height="18" rx="3"
            transform="rotate(-75 57.0275 291.747)" fill="#F4F4F4" />
        <rect x="77.312" y="297.183" width="24" height="18" rx="3"
            transform="rotate(-75 77.312 297.183)" fill="#C6C6C6" />
        <rect x="97.5964" y="302.618" width="24" height="18" rx="3"
            transform="rotate(-75 97.5964 302.618)" fill="#353535" />
        <rect x="117.881" y="308.053" width="24" height="18" rx="3"
            transform="rotate(-75 117.881 308.053)" fill="#151515" />
        <rect x="51.5263" y="321.824" width="30" height="110" rx="5"
            transform="rotate(-90 51.5263 321.824)" fill="#E7E7E7" />
        <rect x="54.5263" y="318.824" width="24" height="18" rx="3"
            transform="rotate(-90 54.5263 318.824)" fill="#70FF00" />
        <rect x="75.5263" y="318.824" width="24" height="18" rx="3"
            transform="rotate(-90 75.5263 318.824)" fill="#5AB500" />
        <rect x="96.5263" y="318.824" width="24" height="18" rx="3"
            transform="rotate(-90 96.5263 318.824)" fill="#3B82F4" />
        <rect x="117.526" y="318.824" width="24" height="18" rx="3"
            transform="rotate(-90 117.526 318.824)" fill="#0038FF" />
        <rect x="71.9605" y="369.391" width="30" height="110" rx="5"
            transform="rotate(-120 71.9605 369.391)" fill="#E7E7E7" />
        <rect x="73.0586" y="365.293" width="24" height="18" rx="3"
            transform="rotate(-120 73.0586 365.293)" fill="#FFC700" />
        <rect x="91.2451" y="354.793" width="24" height="18" rx="3"
            transform="rotate(-120 91.2451 354.793)" fill="#FF9900" />
        <rect x="109.432" y="344.293" width="24" height="18" rx="3"
            transform="rotate(-120 109.432 344.293)" fill="#FF1E47" />
        <rect x="127.618" y="333.793" width="24" height="18" rx="3"
            transform="rotate(-120 127.618 333.793)" fill="#9C00FC" />
        <circle cx="149.331" cy="307.4" r="3" transform="rotate(-120 149.331 307.4)"
            fill="#151515" />
        <path
            d="M316.389 300.091C330.708 293.887 337.288 277.249 331.086 262.929C324.884 248.609 308.247 242.029 293.928 248.233C279.609 254.437 273.028 271.075 279.231 285.395C285.433 299.715 302.069 306.294 316.389 300.091Z"
            fill="#454545" />
        <path
            d="M311.271 280.734C311.021 280.787 310.836 280.982 310.757 281.19L307.468 290.42C307.263 291.02 306.465 291.118 306.122 290.563L300.825 282.352C300.713 282.149 300.457 282.011 300.213 282.01L290.447 281.725C289.822 281.735 289.474 280.989 289.88 280.52L296.022 272.922C296.177 272.75 296.238 272.459 296.155 272.232L293.383 262.847C293.206 262.256 293.786 261.699 294.357 261.928L303.478 265.449C303.71 265.558 303.96 265.505 304.193 265.369L312.267 259.84C312.769 259.491 313.482 259.899 313.438 260.518L313.269 263.864L312.928 270.122L312.934 270.313C312.933 270.557 313.039 270.813 313.241 270.945L320.994 276.915C321.493 277.299 321.323 278.066 320.733 278.242L311.271 280.734Z"
            fill="#E7E7E7" />
        <path
            d="M309.82 332.343L185.439 367.68C182.103 368.624 178.625 366.688 177.682 363.352L130.542 197.335C129.599 193.999 131.533 190.519 134.868 189.576L259.25 154.239C262.585 153.295 266.063 155.23 267.007 158.567L314.146 324.584C315.09 327.92 313.155 331.39 309.82 332.343Z"
            fill="#3B82F4" />
        <path
            d="M261.994 294.632C262.85 293.799 262.869 292.429 262.036 291.572C261.204 290.715 259.834 290.696 258.978 291.529C258.121 292.363 258.102 293.733 258.935 294.589C259.768 295.446 261.137 295.465 261.994 294.632Z"
            fill="#E4ECF9" />
        <path
            d="M206.171 337.948C206.725 337.01 206.413 335.8 205.475 335.246C204.537 334.691 203.328 335.003 202.774 335.941C202.22 336.879 202.531 338.089 203.469 338.644C204.407 339.198 205.616 338.887 206.171 337.948Z"
            fill="#E4ECF9" />
        <path
            d="M271.161 365.811L144.006 389.252C140.595 389.881 137.317 387.622 136.688 384.209L105.424 214.474C104.795 211.062 107.053 207.783 110.464 207.153L237.619 183.713C241.03 183.084 244.308 185.343 244.937 188.756L276.202 358.49C276.831 361.903 274.572 365.182 271.161 365.811Z"
            fill="white" />
        <mask id="mask0_6_1306" style="mask-type:alpha" maskUnits="userSpaceOnUse" x="105" y="183"
            width="172" height="207">
            <path
                d="M271.161 365.811L144.006 389.252C140.595 389.881 137.317 387.622 136.688 384.209L105.423 214.474C104.795 211.062 107.053 207.783 110.464 207.153L237.619 183.713C241.03 183.084 244.308 185.343 244.937 188.756L276.202 358.49C276.831 361.903 274.572 365.182 271.161 365.811Z"
                fill="white" />
        </mask>
        <g mask="url(#mask0_6_1306)">
            <path
                d="M199.645 332.61L191.563 327.227C162.858 308.088 143.908 295.459 141.128 276.942C138.856 261.809 148.923 248.184 164.056 245.912C172.591 244.63 181.38 247.374 187.666 252.825C192.073 245.768 199.669 240.565 208.204 239.283C223.337 237.011 236.962 247.079 239.234 262.212C241.325 276.139 233.694 289.568 220.5 306.74C218.818 308.929 217.045 311.18 215.19 313.5"
                stroke="black" stroke-width="3" />
            <path opacity="0.2"
                d="M261.72 373.633C261.729 373.642 261.729 373.642 261.739 373.652C263.235 375.263 266.189 375.444 268.333 374.052C270.477 372.661 270.992 370.23 269.495 368.619C269.486 368.609 269.486 368.609 269.476 368.6L224.557 320.375L214.456 315.085C214.199 314.808 213.703 314.78 213.341 315.018C212.979 315.256 212.893 315.666 213.141 315.942L216.8 325.418L261.72 373.633Z"
                fill="#3A7EC1" />
            <path opacity="0.2"
                d="M120.191 184.828L121.806 182.653L178.846 228.969C180.115 224.506 184.151 219.584 189.975 215.922C195.915 212.202 202.258 210.715 206.872 211.573L215.233 204.82C215.175 204.706 215.06 204.591 215.002 204.477C211.889 199.556 216.732 190.915 225.901 185.135C231.149 181.873 236.627 180.213 240.952 180.328L187.5 129.5H191L253.466 187.767L251.62 189.77L249.083 187.481C248.737 192.288 244.239 198.354 237.262 202.76C231.149 206.594 224.633 208.197 220.077 207.338L211.889 213.976C212.119 214.205 212.292 214.491 212.465 214.778C215.752 219.928 211.081 228.798 201.97 234.52C198.741 236.523 195.454 237.897 192.34 238.583L192.397 238.641L190 240L188.419 239.098C184.44 239.27 181.153 238.068 179.538 235.493C178.846 234.406 178.5 233.204 178.5 231.888L120.191 184.828Z"
                fill="#3A7EC1" />
            <path opacity="0.2"
                d="M102.39 259.252C105.182 260.064 107.535 260.064 109.014 258.441C115.426 251.547 130.592 259.451 130.592 259.451L131.646 257.428L130.796 258.983L134.025 260.607L138.045 257.183L133.304 254.514L132.496 255.873L133.486 254.144C133.486 254.144 118.685 245.501 121.172 236.422C121.716 234.391 120.513 232.39 118.27 230.47C118.343 229.667 117.926 228.757 117.09 228.371L59.7965 196.772C58.7089 196.126 57.2899 196.534 56.7417 197.642L41.8516 224.696C41.2057 225.783 41.6135 227.202 42.7223 227.751L100.015 259.349C100.733 259.813 101.676 259.711 102.39 259.252Z"
                fill="#3A7EC1" />
        </g>
        <path
            d="M215.085 315.857C214.866 316.257 214.256 316.352 213.741 316.057C213.227 315.771 212.979 315.208 213.208 314.808C213.436 314.408 214.037 314.312 214.551 314.608C215.066 314.903 215.313 315.456 215.085 315.857Z"
            fill="#444444" />
        <path d="M225.748 307.544L215.085 315.857L213.208 314.808L214.656 301.367L225.748 307.544Z"
            fill="#444444" />
        <path
            d="M265.303 236.49L225.748 307.544C221.936 308.631 219.382 307.783 217.696 306.41C215.285 304.427 214.656 301.367 214.656 301.367L254.211 230.313L265.303 236.49Z"
            fill="#ACACAC" />
        <path
            d="M265.301 236.475C266.622 234.101 265.211 230.794 262.148 229.088C259.086 227.383 255.533 227.924 254.212 230.297C252.89 232.671 254.302 235.978 257.364 237.684C260.426 239.389 263.98 238.848 265.301 236.475Z"
            fill="#444444" />
        <path
            d="M106.217 252.804C112.519 245.9 127.77 253.506 127.77 253.506L129.196 250.886L130.623 248.266C130.623 248.266 115.824 239.746 118.038 230.711C120.374 221.605 88.447 213.257 88.447 213.257L81.8361 225.566L75.2252 237.874C75.2511 237.778 99.9154 259.709 106.217 252.804Z"
            fill="#444444" />
        <path
            d="M38.6588 219.794L53.3073 192.557C53.9077 191.476 55.2738 191.014 56.3553 191.614L114.002 222.59C115.084 223.19 115.546 224.556 114.946 225.638L100.297 252.874C99.6968 253.956 98.3307 254.418 97.2492 253.818L39.602 222.842C38.4947 222.338 38.0584 220.875 38.6588 219.794Z"
            fill="#FFCE20" />
        <path d="M130.449 248.53L135.232 251.158L131.195 254.631L127.996 253.049L130.449 248.53Z"
            fill="#FF9B00" />
        <path d="M135.232 251.158L130.827 250.598L129.103 253.553L131.195 254.631L135.232 251.158Z"
            fill="#FFC700" />
        <path
            d="M241.059 167.145C241.52 167.145 242.039 166.916 242.385 166.516C243.02 165.772 242.904 164.742 242.155 164.112L196.772 126.401C196.483 126.172 196.08 126 195.676 126H186.276C185.354 126 184.546 126.744 184.546 127.717C184.546 128.69 185.296 129.434 186.276 129.434H195.099L239.963 166.745C240.252 166.973 240.655 167.145 241.059 167.145Z"
            fill="#353535" />
        <path
            d="M174.513 223.169C174.974 223.169 175.493 222.94 175.839 222.539C176.473 221.795 176.358 220.765 175.608 220.136L130.225 182.424C129.937 182.195 129.533 182.024 129.13 182.024H119.73C118.807 182.024 118 182.768 118 183.74C118 184.656 118.75 185.457 119.73 185.457H128.553L173.417 222.768C173.705 222.997 174.109 223.169 174.513 223.169Z"
            fill="#353535" />
        <path
            d="M170.88 222.425C170.88 222.482 170.937 222.482 170.937 222.539L171.053 222.654L171.11 222.711L171.168 222.768L173.186 224.771L178.376 220.422L197.233 204.628L216.955 188.09L224.97 181.394L239.329 169.377L243.769 165.657L241.751 163.654C240.367 162.109 233.159 165.943 225.143 172.524C217.416 178.876 211.649 185.572 211.419 188.318L200.981 196.902C199.194 195.815 192.274 199.592 184.546 205.944C176.185 212.868 170.015 220.25 170.88 222.425Z"
            fill="#353535" />
        <path
            d="M172.956 224.428C173.821 226.602 181.317 222.711 189.736 215.787C197.464 209.435 203.23 202.739 203.461 199.992L213.898 191.409C215.686 192.496 222.606 188.719 230.333 182.367C238.752 175.443 244.865 168.061 244 165.943C243.135 163.769 235.638 167.66 227.219 174.584C219.492 180.936 213.725 187.632 213.495 190.379L203.057 198.962C201.27 197.875 194.35 201.652 186.622 208.004C178.203 214.871 172.091 222.253 172.956 224.428ZM239.502 169.549C238.925 168.118 234.254 170.407 228.776 174.756C234.197 170.464 238.925 168.118 239.502 169.549ZM217.993 187.346C218.627 188.719 223.298 186.373 228.719 182.081C223.298 186.373 218.627 188.719 217.993 187.346ZM227.623 175.672C221.683 180.593 217.358 185.801 217.935 187.288C217.358 185.801 221.683 180.593 227.623 175.672ZM198.905 203.025C198.271 201.48 192.966 204.227 187.026 209.149C193.023 204.227 198.329 201.48 198.905 203.025ZM191.063 213.04C195.791 208.862 199.136 204.742 198.963 203.197C199.136 204.742 195.849 208.862 191.063 213.04ZM185.988 210.007C180.625 214.642 176.877 219.277 177.396 220.708C176.819 219.335 180.567 214.642 185.988 210.007Z"
            fill="#4F4F4F" />
    </g>
    <defs>
        <clipPath id="clip0_6_1306">
            <rect width="375" height="812" fill="white" />
        </clipPath>
    </defs>
</svg>
