<svg width="375" height="812" viewBox="0 0 375 812" fill="none" xmlns="http://www.w3.org/2000/svg">
    <g clip-path="url(#clip0_6_1306)">
        <rect width="375" height="812" fill="#151515" />
        <circle r="113" transform="matrix(-1 0 0 1 -57 451)" fill="#FF1E47" />
        <circle r="79.5" transform="matrix(-1 0 0 1 403.5 609.5)" fill="#5AB500" />
        <path opacity="0.5"
            d="M64.4531 537.234C67.5684 537.234 69.6582 535.682 70.3027 532.898H68.5254C68.0176 534.617 66.5332 535.613 64.4629 535.613C61.6797 535.613 59.9121 533.406 59.9121 529.949C59.9121 526.521 61.6992 524.295 64.4531 524.295C66.4648 524.295 68.0762 525.506 68.5254 527.352H70.3027C69.8535 524.539 67.5195 522.674 64.4531 522.674C60.5957 522.674 58.1055 525.525 58.1055 529.949C58.1055 534.412 60.5664 537.234 64.4531 537.234ZM72.207 537H73.9062V531.082C73.9062 529.324 74.9512 528.172 76.6406 528.172C78.2324 528.172 79.043 529.139 79.043 530.75V537H80.7422V530.438C80.7422 528.172 79.3945 526.668 77.168 526.668C75.625 526.668 74.5117 527.332 73.9453 528.465H73.9062V522.908H72.207V537ZM86.25 535.73C85.0293 535.73 84.2188 535.096 84.2188 534.129C84.2188 533.172 85 532.566 86.3672 532.479L89.082 532.312V533.143C89.082 534.607 87.8516 535.73 86.25 535.73ZM85.8691 537.176C87.2363 537.176 88.5254 536.414 89.1309 535.252H89.1699V537H90.7812V529.979C90.7812 527.957 89.2773 526.668 86.8945 526.668C84.4922 526.668 82.9883 528.016 82.8711 529.773H84.5117C84.7266 528.777 85.5469 528.162 86.8555 528.162C88.2617 528.162 89.082 528.904 89.082 530.145V530.994L86.1719 531.16C83.8281 531.297 82.4902 532.391 82.4902 534.129C82.4902 535.955 83.8477 537.176 85.8691 537.176ZM92.9395 537H94.6387V531.023C94.6387 529.305 95.6836 528.172 97.2852 528.172C98.8477 528.172 99.6191 529.07 99.6191 530.711V537H101.318V530.408C101.318 528.104 100.029 526.668 97.8027 526.668C96.2305 526.668 95.1465 527.371 94.5801 528.465H94.541V526.844H92.9395V537ZM107.617 535.584C105.869 535.584 104.727 534.158 104.727 531.883C104.727 529.607 105.869 528.162 107.617 528.162C109.385 528.162 110.566 529.646 110.566 531.883C110.566 534.119 109.385 535.584 107.617 535.584ZM107.676 540.828C110.479 540.828 112.266 539.217 112.266 536.795V526.844H110.645V528.553H110.615C109.941 527.371 108.75 526.668 107.314 526.668C104.688 526.668 102.988 528.699 102.988 531.883C102.988 535.037 104.688 537.078 107.275 537.078C108.701 537.078 109.902 536.355 110.527 535.252H110.566V536.854C110.566 538.367 109.502 539.383 107.744 539.383C106.475 539.383 105.469 538.768 105.137 537.84H103.389C103.672 539.568 105.439 540.828 107.676 540.828ZM118.555 528.143C120.156 528.143 121.221 529.354 121.26 531.053H115.742C115.85 529.363 116.963 528.143 118.555 528.143ZM121.221 534.09C120.938 535.047 119.99 535.701 118.701 535.701C116.875 535.701 115.732 534.422 115.732 532.479V532.381H123.018V531.736C123.018 528.66 121.328 526.668 118.584 526.668C115.781 526.668 113.984 528.807 113.984 531.961C113.984 535.154 115.752 537.176 118.662 537.176C120.879 537.176 122.598 535.867 122.891 534.09H121.221ZM129.385 524.393V526.844H127.871V528.24H129.385V534.363C129.385 536.316 130.107 537.078 131.973 537.078C132.373 537.078 132.842 537.049 133.047 537V535.574C132.93 535.594 132.539 535.623 132.344 535.623C131.475 535.623 131.084 535.203 131.084 534.275V528.24H133.057V526.844H131.084V524.393H129.385ZM134.961 537H136.66V531.082C136.66 529.324 137.705 528.172 139.395 528.172C140.986 528.172 141.797 529.139 141.797 530.75V537H143.496V530.438C143.496 528.172 142.148 526.668 139.922 526.668C138.379 526.668 137.266 527.332 136.699 528.465H136.66V522.908H134.961V537ZM149.727 528.143C151.328 528.143 152.393 529.354 152.432 531.053H146.914C147.021 529.363 148.135 528.143 149.727 528.143ZM152.393 534.09C152.109 535.047 151.162 535.701 149.873 535.701C148.047 535.701 146.904 534.422 146.904 532.479V532.381H154.189V531.736C154.189 528.66 152.5 526.668 149.756 526.668C146.953 526.668 145.156 528.807 145.156 531.961C145.156 535.154 146.924 537.176 149.834 537.176C152.051 537.176 153.77 535.867 154.062 534.09H152.393ZM168.447 530.174C168.232 528.348 166.719 526.668 164.18 526.668C161.377 526.668 159.512 528.719 159.512 531.922C159.512 535.193 161.387 537.176 164.199 537.176C166.504 537.176 168.203 535.75 168.467 533.729H166.797C166.504 534.949 165.596 535.682 164.209 535.682C162.451 535.682 161.24 534.285 161.24 531.922C161.24 529.617 162.432 528.162 164.189 528.162C165.684 528.162 166.543 529.07 166.787 530.174H168.447ZM174.238 537.176C177.041 537.176 178.936 535.154 178.936 531.922C178.936 528.68 177.041 526.668 174.238 526.668C171.426 526.668 169.531 528.68 169.531 531.922C169.531 535.154 171.426 537.176 174.238 537.176ZM174.238 535.682C172.441 535.682 171.26 534.314 171.26 531.922C171.26 529.529 172.441 528.162 174.238 528.162C176.035 528.162 177.207 529.529 177.207 531.922C177.207 534.314 176.035 535.682 174.238 535.682ZM180.742 537H182.441V522.908H180.742V537ZM188.945 537.176C191.748 537.176 193.643 535.154 193.643 531.922C193.643 528.68 191.748 526.668 188.945 526.668C186.133 526.668 184.238 528.68 184.238 531.922C184.238 535.154 186.133 537.176 188.945 537.176ZM188.945 535.682C187.148 535.682 185.967 534.314 185.967 531.922C185.967 529.529 187.148 528.162 188.945 528.162C190.742 528.162 191.914 529.529 191.914 531.922C191.914 534.314 190.742 535.682 188.945 535.682ZM195.361 537H197.061V530.672C197.061 529.236 197.92 528.289 199.238 528.289C199.648 528.289 200.01 528.338 200.146 528.387V526.736C200.01 526.717 199.756 526.668 199.463 526.668C198.271 526.668 197.334 527.381 197.002 528.504H196.963V526.844H195.361V537ZM201.719 539.803L203.057 534.832H201.25L200.303 539.803H201.719ZM208.584 529.646C208.584 531.033 209.463 531.951 211.25 532.41L213.037 532.869C214.18 533.172 214.6 533.562 214.6 534.285C214.6 535.203 213.75 535.789 212.373 535.789C210.996 535.789 210.195 535.223 210.01 534.168H208.311C208.486 535.965 210.039 537.176 212.266 537.176C214.639 537.176 216.309 535.926 216.309 534.158C216.309 532.664 215.566 531.922 213.516 531.404L211.943 531.023C210.791 530.73 210.254 530.262 210.254 529.559C210.254 528.67 211.074 528.055 212.314 528.055C213.564 528.055 214.355 528.66 214.473 529.637H216.094C216.016 527.918 214.473 526.668 212.373 526.668C210.137 526.668 208.584 527.908 208.584 529.646ZM222.148 528.143C223.75 528.143 224.814 529.354 224.854 531.053H219.336C219.443 529.363 220.557 528.143 222.148 528.143ZM224.814 534.09C224.531 535.047 223.584 535.701 222.295 535.701C220.469 535.701 219.326 534.422 219.326 532.479V532.381H226.611V531.736C226.611 528.66 224.922 526.668 222.178 526.668C219.375 526.668 217.578 528.807 217.578 531.961C217.578 535.154 219.346 537.176 222.256 537.176C224.473 537.176 226.191 535.867 226.484 534.09H224.814ZM228.877 524.393V526.844H227.363V528.24H228.877V534.363C228.877 536.316 229.6 537.078 231.465 537.078C231.865 537.078 232.334 537.049 232.539 537V535.574C232.422 535.594 232.031 535.623 231.836 535.623C230.967 535.623 230.576 535.203 230.576 534.275V528.24H232.549V526.844H230.576V524.393H228.877ZM238.555 537H240.254V526.844H238.555V537ZM239.404 525.135C239.99 525.135 240.469 524.656 240.469 524.08C240.469 523.494 239.99 523.025 239.404 523.025C238.828 523.025 238.35 523.494 238.35 524.08C238.35 524.656 238.828 525.135 239.404 525.135ZM250.986 530.174C250.771 528.348 249.258 526.668 246.719 526.668C243.916 526.668 242.051 528.719 242.051 531.922C242.051 535.193 243.926 537.176 246.738 537.176C249.043 537.176 250.742 535.75 251.006 533.729H249.336C249.043 534.949 248.135 535.682 246.748 535.682C244.99 535.682 243.779 534.285 243.779 531.922C243.779 529.617 244.971 528.162 246.729 528.162C248.223 528.162 249.082 529.07 249.326 530.174H250.986ZM256.777 537.176C259.58 537.176 261.475 535.154 261.475 531.922C261.475 528.68 259.58 526.668 256.777 526.668C253.965 526.668 252.07 528.68 252.07 531.922C252.07 535.154 253.965 537.176 256.777 537.176ZM256.777 535.682C254.98 535.682 253.799 534.314 253.799 531.922C253.799 529.529 254.98 528.162 256.777 528.162C258.574 528.162 259.746 529.529 259.746 531.922C259.746 534.314 258.574 535.682 256.777 535.682ZM263.193 537H264.893V531.023C264.893 529.305 265.938 528.172 267.539 528.172C269.102 528.172 269.873 529.07 269.873 530.711V537H271.572V530.408C271.572 528.104 270.283 526.668 268.057 526.668C266.484 526.668 265.4 527.371 264.834 528.465H264.795V526.844H263.193V537ZM273.564 529.646C273.564 531.033 274.443 531.951 276.23 532.41L278.018 532.869C279.16 533.172 279.58 533.562 279.58 534.285C279.58 535.203 278.73 535.789 277.354 535.789C275.977 535.789 275.176 535.223 274.99 534.168H273.291C273.467 535.965 275.02 537.176 277.246 537.176C279.619 537.176 281.289 535.926 281.289 534.158C281.289 532.664 280.547 531.922 278.496 531.404L276.924 531.023C275.771 530.73 275.234 530.262 275.234 529.559C275.234 528.67 276.055 528.055 277.295 528.055C278.545 528.055 279.336 528.66 279.453 529.637H281.074C280.996 527.918 279.453 526.668 277.354 526.668C275.117 526.668 273.564 527.908 273.564 529.646ZM290.508 535.73C289.287 535.73 288.477 535.096 288.477 534.129C288.477 533.172 289.258 532.566 290.625 532.479L293.34 532.312V533.143C293.34 534.607 292.109 535.73 290.508 535.73ZM290.127 537.176C291.494 537.176 292.783 536.414 293.389 535.252H293.428V537H295.039V529.979C295.039 527.957 293.535 526.668 291.152 526.668C288.75 526.668 287.246 528.016 287.129 529.773H288.77C288.984 528.777 289.805 528.162 291.113 528.162C292.52 528.162 293.34 528.904 293.34 530.145V530.994L290.43 531.16C288.086 531.297 286.748 532.391 286.748 534.129C286.748 535.955 288.105 537.176 290.127 537.176ZM297.197 537H298.896V531.023C298.896 529.305 299.941 528.172 301.543 528.172C303.105 528.172 303.877 529.07 303.877 530.711V537H305.576V530.408C305.576 528.104 304.287 526.668 302.061 526.668C300.488 526.668 299.404 527.371 298.838 528.465H298.799V526.844H297.197V537ZM311.592 537.176C313.057 537.176 314.219 536.453 314.873 535.281H314.902V537H316.523V522.908H314.824V528.494H314.785C314.18 527.381 313.008 526.668 311.553 526.668C308.994 526.668 307.246 528.738 307.246 531.922C307.246 535.105 309.004 537.176 311.592 537.176ZM311.914 528.162C313.662 528.162 314.834 529.656 314.834 531.922C314.834 534.197 313.662 535.682 311.914 535.682C310.117 535.682 308.984 534.227 308.984 531.922C308.984 529.627 310.117 528.162 311.914 528.162ZM150.566 559.73C149.346 559.73 148.535 559.096 148.535 558.129C148.535 557.172 149.316 556.566 150.684 556.479L153.398 556.312V557.143C153.398 558.607 152.168 559.73 150.566 559.73ZM150.186 561.176C151.553 561.176 152.842 560.414 153.447 559.252H153.486V561H155.098V553.979C155.098 551.957 153.594 550.668 151.211 550.668C148.809 550.668 147.305 552.016 147.188 553.773H148.828C149.043 552.777 149.863 552.162 151.172 552.162C152.578 552.162 153.398 552.904 153.398 554.145V554.994L150.488 555.16C148.145 555.297 146.807 556.391 146.807 558.129C146.807 559.955 148.164 561.176 150.186 561.176ZM161.104 561.176C162.568 561.176 163.73 560.453 164.385 559.281H164.414V561H166.035V546.908H164.336V552.494H164.297C163.691 551.381 162.52 550.668 161.064 550.668C158.506 550.668 156.758 552.738 156.758 555.922C156.758 559.105 158.516 561.176 161.104 561.176ZM161.426 552.162C163.174 552.162 164.346 553.656 164.346 555.922C164.346 558.197 163.174 559.682 161.426 559.682C159.629 559.682 158.496 558.227 158.496 555.922C158.496 553.627 159.629 552.162 161.426 552.162ZM172.178 561.176C173.643 561.176 174.805 560.453 175.459 559.281H175.488V561H177.109V546.908H175.41V552.494H175.371C174.766 551.381 173.594 550.668 172.139 550.668C169.58 550.668 167.832 552.738 167.832 555.922C167.832 559.105 169.59 561.176 172.178 561.176ZM172.5 552.162C174.248 552.162 175.42 553.656 175.42 555.922C175.42 558.197 174.248 559.682 172.5 559.682C170.703 559.682 169.57 558.227 169.57 555.922C169.57 553.627 170.703 552.162 172.5 552.162ZM183.506 561H185.205V555.023C185.205 553.305 186.25 552.172 187.852 552.172C189.414 552.172 190.186 553.07 190.186 554.711V561H191.885V554.408C191.885 552.104 190.596 550.668 188.369 550.668C186.797 550.668 185.713 551.371 185.146 552.465H185.107V550.844H183.506V561ZM198.262 561.176C201.064 561.176 202.959 559.154 202.959 555.922C202.959 552.68 201.064 550.668 198.262 550.668C195.449 550.668 193.555 552.68 193.555 555.922C193.555 559.154 195.449 561.176 198.262 561.176ZM198.262 559.682C196.465 559.682 195.283 558.314 195.283 555.922C195.283 553.529 196.465 552.162 198.262 552.162C200.059 552.162 201.23 553.529 201.23 555.922C201.23 558.314 200.059 559.682 198.262 559.682ZM205.225 548.393V550.844H203.711V552.24H205.225V558.363C205.225 560.316 205.947 561.078 207.812 561.078C208.213 561.078 208.682 561.049 208.887 561V559.574C208.77 559.594 208.379 559.623 208.184 559.623C207.314 559.623 206.924 559.203 206.924 558.275V552.24H208.896V550.844H206.924V548.393H205.225ZM214.492 552.143C216.094 552.143 217.158 553.354 217.197 555.053H211.68C211.787 553.363 212.9 552.143 214.492 552.143ZM217.158 558.09C216.875 559.047 215.928 559.701 214.639 559.701C212.812 559.701 211.67 558.422 211.67 556.479V556.381H218.955V555.736C218.955 552.66 217.266 550.668 214.521 550.668C211.719 550.668 209.922 552.807 209.922 555.961C209.922 559.154 211.689 561.176 214.6 561.176C216.816 561.176 218.535 559.867 218.828 558.09H217.158ZM220.498 553.646C220.498 555.033 221.377 555.951 223.164 556.41L224.951 556.869C226.094 557.172 226.514 557.562 226.514 558.285C226.514 559.203 225.664 559.789 224.287 559.789C222.91 559.789 222.109 559.223 221.924 558.168H220.225C220.4 559.965 221.953 561.176 224.18 561.176C226.553 561.176 228.223 559.926 228.223 558.158C228.223 556.664 227.48 555.922 225.43 555.404L223.857 555.023C222.705 554.73 222.168 554.262 222.168 553.559C222.168 552.67 222.988 552.055 224.229 552.055C225.479 552.055 226.27 552.66 226.387 553.637H228.008C227.93 551.918 226.387 550.668 224.287 550.668C222.051 550.668 220.498 551.908 220.498 553.646Z"
            fill="white" />
        <path
            d="M92.8857 489.352C97.749 489.352 101.06 486.788 101.865 482.423H98.5986C97.9395 484.972 95.8447 486.48 92.9004 486.48C89.0186 486.48 86.5576 483.36 86.5576 478.424C86.5576 473.531 89.0479 470.382 92.8857 470.382C95.7568 470.382 98.0127 472.154 98.5986 474.864H101.851C101.294 470.455 97.6758 467.511 92.8857 467.511C86.9824 467.511 83.2031 471.729 83.2031 478.424C83.2031 485.162 86.9531 489.352 92.8857 489.352ZM109.834 486.759C108.135 486.759 107.021 485.88 107.021 484.532C107.021 483.214 108.091 482.379 109.98 482.247L113.774 482.013V483.229C113.774 485.235 112.046 486.759 109.834 486.759ZM108.955 489.264C110.977 489.264 112.925 488.18 113.818 486.466H113.892V489H116.924V478.38C116.924 475.289 114.536 473.312 110.801 473.312C106.992 473.312 104.619 475.362 104.443 478.146H107.432C107.71 476.769 108.853 475.89 110.684 475.89C112.617 475.89 113.774 476.915 113.774 478.629V479.815L109.556 480.064C105.894 480.27 103.828 481.925 103.828 484.62C103.828 487.389 105.938 489.264 108.955 489.264ZM120.117 489H123.281V467.862H120.117V489ZM132.979 475.86C135.19 475.86 136.685 477.516 136.758 479.874H129.053C129.214 477.545 130.767 475.86 132.979 475.86ZM136.743 484.474C136.318 485.821 134.985 486.729 133.184 486.729C130.649 486.729 129.038 484.957 129.038 482.276V482.086H139.922V481.002C139.922 476.329 137.256 473.312 132.979 473.312C128.628 473.312 125.845 476.534 125.845 481.368C125.845 486.231 128.584 489.293 133.11 489.293C136.641 489.293 139.307 487.286 139.746 484.474H136.743ZM142.383 489H145.547V480.021C145.547 477.633 146.982 476.051 149.209 476.051C151.406 476.051 152.49 477.325 152.49 479.64V489H155.669V479.024C155.669 475.494 153.721 473.326 150.322 473.326C147.949 473.326 146.309 474.41 145.474 476.168H145.4V473.59H142.383V489ZM164.517 489.264C166.758 489.264 168.516 488.136 169.424 486.378H169.482V489H172.559V467.862H169.38V476.153H169.321C168.457 474.454 166.699 473.341 164.487 473.341C160.62 473.341 158.042 476.432 158.042 481.295C158.042 486.158 160.62 489.264 164.517 489.264ZM165.352 476.007C167.783 476.007 169.409 478.102 169.409 481.295C169.409 484.518 167.783 486.583 165.352 486.583C162.847 486.583 161.279 484.547 161.279 481.295C161.279 478.058 162.847 476.007 165.352 476.007ZM181.201 486.759C179.502 486.759 178.389 485.88 178.389 484.532C178.389 483.214 179.458 482.379 181.348 482.247L185.142 482.013V483.229C185.142 485.235 183.413 486.759 181.201 486.759ZM180.322 489.264C182.344 489.264 184.292 488.18 185.186 486.466H185.259V489H188.291V478.38C188.291 475.289 185.903 473.312 182.168 473.312C178.359 473.312 175.986 475.362 175.811 478.146H178.799C179.077 476.769 180.22 475.89 182.051 475.89C183.984 475.89 185.142 476.915 185.142 478.629V479.815L180.923 480.064C177.261 480.27 175.195 481.925 175.195 484.62C175.195 487.389 177.305 489.264 180.322 489.264ZM191.367 489H194.531V479.771C194.531 477.589 195.791 476.227 197.827 476.227C198.442 476.227 198.999 476.3 199.248 476.402V473.458C199.014 473.414 198.618 473.341 198.164 473.341C196.348 473.341 194.971 474.41 194.458 476.212H194.385V473.59H191.367V489ZM213.091 489.264C215.332 489.264 217.09 488.136 217.998 486.378H218.057V489H221.133V467.862H217.954V476.153H217.896C217.031 474.454 215.273 473.341 213.062 473.341C209.194 473.341 206.616 476.432 206.616 481.295C206.616 486.158 209.194 489.264 213.091 489.264ZM213.926 476.007C216.357 476.007 217.983 478.102 217.983 481.295C217.983 484.518 216.357 486.583 213.926 486.583C211.421 486.583 209.854 484.547 209.854 481.295C209.854 478.058 211.421 476.007 213.926 476.007ZM230.83 475.86C233.042 475.86 234.536 477.516 234.609 479.874H226.904C227.065 477.545 228.618 475.86 230.83 475.86ZM234.595 484.474C234.17 485.821 232.837 486.729 231.035 486.729C228.501 486.729 226.89 484.957 226.89 482.276V482.086H237.773V481.002C237.773 476.329 235.107 473.312 230.83 473.312C226.479 473.312 223.696 476.534 223.696 481.368C223.696 486.231 226.436 489.293 230.962 489.293C234.492 489.293 237.158 487.286 237.598 484.474H234.595ZM239.956 477.955C239.956 480.108 241.362 481.559 244.146 482.232L246.899 482.906C248.511 483.316 249.097 483.858 249.097 484.84C249.097 486.085 247.925 486.876 246.021 486.876C244.087 486.876 242.944 486.056 242.695 484.576H239.561C239.81 487.403 242.227 489.293 245.874 489.293C249.653 489.293 252.275 487.359 252.275 484.547C252.275 482.276 251.104 481.104 247.998 480.357L245.405 479.757C243.809 479.361 243.047 478.717 243.047 477.765C243.047 476.549 244.189 475.714 245.903 475.714C247.676 475.714 248.804 476.578 248.95 477.97H251.924C251.821 475.23 249.419 473.312 245.991 473.312C242.388 473.312 239.956 475.201 239.956 477.955ZM254.839 489H258.003V473.59H254.839V489ZM256.421 471.334C257.446 471.334 258.267 470.528 258.267 469.532C258.267 468.521 257.446 467.716 256.421 467.716C255.41 467.716 254.59 468.521 254.59 469.532C254.59 470.528 255.41 471.334 256.421 471.334ZM267.803 486.437C265.371 486.437 263.789 484.474 263.789 481.251C263.789 478.043 265.371 476.007 267.803 476.007C270.278 476.007 271.904 478.087 271.904 481.251C271.904 484.43 270.278 486.437 267.803 486.437ZM267.832 494.801C272.227 494.801 275.068 492.398 275.068 488.722V473.59H271.992V476.227H271.934C270.996 474.439 269.209 473.341 267.026 473.341C263.071 473.341 260.552 476.388 260.552 481.236C260.552 486.041 263.086 489.059 266.953 489.059C269.15 489.059 270.967 487.96 271.831 486.29H271.89V488.824C271.89 490.934 270.425 492.34 267.949 492.34C266.147 492.34 264.741 491.49 264.287 490.201H261.108C261.504 492.867 264.199 494.801 267.832 494.801ZM278.203 489H281.367V480.021C281.367 477.633 282.803 476.051 285.029 476.051C287.227 476.051 288.311 477.325 288.311 479.64V489H291.489V479.024C291.489 475.494 289.541 473.326 286.143 473.326C283.77 473.326 282.129 474.41 281.294 476.168H281.221V473.59H278.203V489Z"
            fill="white" />
        <path
            d="M101.865 482.423L101.964 482.441L101.985 482.323H101.865V482.423ZM98.5986 482.423V482.323H98.5212L98.5018 482.398L98.5986 482.423ZM98.5986 474.864L98.5009 474.885L98.5179 474.964H98.5986V474.864ZM101.851 474.864V474.964H101.964L101.95 474.852L101.851 474.864ZM92.8857 489.452C95.3349 489.452 97.4011 488.806 98.9582 487.603C100.516 486.4 101.557 484.645 101.964 482.441L101.767 482.405C101.368 484.566 100.351 486.275 98.836 487.445C97.3206 488.615 95.2999 489.252 92.8857 489.252V489.452ZM101.865 482.323H98.5986V482.523H101.865V482.323ZM98.5018 482.398C98.1777 483.651 97.502 484.645 96.5483 485.326C95.594 486.008 94.3555 486.38 92.9004 486.38V486.58C94.3896 486.58 95.6706 486.199 96.6646 485.489C97.6591 484.778 98.3604 483.743 98.6954 482.448L98.5018 482.398ZM92.9004 486.38C90.989 486.38 89.4327 485.614 88.3519 484.241C87.2691 482.867 86.6576 480.877 86.6576 478.424H86.4576C86.4576 480.908 87.0766 482.946 88.1948 484.365C89.3149 485.787 90.93 486.58 92.9004 486.58V486.38ZM86.6576 478.424C86.6576 475.993 87.2762 474.007 88.361 472.63C89.444 471.256 90.9969 470.482 92.8857 470.482V470.282C90.9367 470.282 89.3255 471.083 88.2039 472.506C87.0842 473.927 86.4576 475.962 86.4576 478.424H86.6576ZM92.8857 470.482C95.7121 470.482 97.9254 472.224 98.5009 474.885L98.6964 474.843C98.1 472.085 95.8016 470.282 92.8857 470.282V470.482ZM98.5986 474.964H101.851V474.764H98.5986V474.964ZM101.95 474.852C101.386 470.386 97.7195 467.411 92.8857 467.411V467.611C97.6321 467.611 101.202 470.524 101.751 474.877L101.95 474.852ZM92.8857 467.411C89.9089 467.411 87.4598 468.475 85.756 470.39C84.0533 472.304 83.1031 475.058 83.1031 478.424H83.3031C83.3031 475.095 84.2426 472.392 85.9054 470.523C87.567 468.656 89.9593 467.611 92.8857 467.611V467.411ZM83.1031 478.424C83.1031 481.811 84.0458 484.569 85.7449 486.481C87.4453 488.395 89.8945 489.452 92.8857 489.452V489.252C89.9443 489.252 87.5522 488.214 85.8945 486.348C84.2355 484.481 83.3031 481.775 83.3031 478.424H83.1031ZM109.98 482.247L109.974 482.147L109.974 482.147L109.98 482.247ZM113.774 482.013H113.874V481.906L113.768 481.913L113.774 482.013ZM113.818 486.466V486.366H113.758L113.73 486.42L113.818 486.466ZM113.892 486.466H113.992V486.366H113.892V486.466ZM113.892 489H113.792V489.1H113.892V489ZM116.924 489V489.1H117.024V489H116.924ZM104.443 478.146L104.344 478.139L104.337 478.246H104.443V478.146ZM107.432 478.146V478.246H107.513L107.53 478.165L107.432 478.146ZM113.774 479.815L113.78 479.915L113.874 479.91V479.815H113.774ZM109.556 480.064L109.561 480.164L109.562 480.164L109.556 480.064ZM109.834 486.659C109.001 486.659 108.321 486.443 107.853 486.072C107.386 485.703 107.121 485.176 107.121 484.532H106.921C106.921 485.236 107.214 485.822 107.728 486.229C108.241 486.635 108.968 486.859 109.834 486.859V486.659ZM107.121 484.532C107.121 483.904 107.375 483.395 107.854 483.024C108.336 482.65 109.054 482.412 109.987 482.347L109.974 482.147C109.017 482.214 108.256 482.459 107.731 482.866C107.203 483.275 106.921 483.842 106.921 484.532H107.121ZM109.987 482.347L113.781 482.113L113.768 481.913L109.974 482.147L109.987 482.347ZM113.674 482.013V483.229H113.874V482.013H113.674ZM113.674 483.229C113.674 485.17 112.002 486.659 109.834 486.659V486.859C112.09 486.859 113.874 485.301 113.874 483.229H113.674ZM108.955 489.364C111.01 489.364 112.994 488.263 113.907 486.512L113.73 486.42C112.855 488.097 110.944 489.164 108.955 489.164V489.364ZM113.818 486.566H113.892V486.366H113.818V486.566ZM113.792 486.466V489H113.992V486.466H113.792ZM113.892 489.1H116.924V488.9H113.892V489.1ZM117.024 489V478.38H116.824V489H117.024ZM117.024 478.38C117.024 476.807 116.415 475.511 115.327 474.61C114.241 473.71 112.685 473.212 110.801 473.212V473.412C112.652 473.412 114.158 473.901 115.199 474.764C116.239 475.624 116.824 476.862 116.824 478.38H117.024ZM110.801 473.212C108.879 473.212 107.31 473.729 106.198 474.606C105.084 475.484 104.433 476.719 104.344 478.139L104.543 478.152C104.629 476.789 105.253 475.606 106.322 474.763C107.392 473.919 108.914 473.412 110.801 473.412V473.212ZM104.443 478.246H107.432V478.046H104.443V478.246ZM107.53 478.165C107.664 477.5 108.006 476.959 108.533 476.583C109.062 476.206 109.784 475.99 110.684 475.99V475.79C109.752 475.79 108.987 476.013 108.417 476.42C107.846 476.827 107.478 477.414 107.334 478.126L107.53 478.165ZM110.684 475.99C111.634 475.99 112.38 476.241 112.888 476.691C113.394 477.14 113.674 477.796 113.674 478.629H113.874C113.874 477.748 113.576 477.034 113.02 476.542C112.466 476.051 111.667 475.79 110.684 475.79V475.99ZM113.674 478.629V479.815H113.874V478.629H113.674ZM113.769 479.716L109.55 479.965L109.562 480.164L113.78 479.915L113.769 479.716ZM109.55 479.965C107.707 480.068 106.252 480.537 105.256 481.33C104.257 482.127 103.728 483.244 103.728 484.62H103.928C103.928 483.301 104.432 482.243 105.381 481.487C106.333 480.728 107.742 480.266 109.561 480.164L109.55 479.965ZM103.728 484.62C103.728 486.031 104.266 487.22 105.193 488.054C106.119 488.888 107.426 489.364 108.955 489.364V489.164C107.467 489.164 106.21 488.701 105.327 487.906C104.445 487.111 103.928 485.978 103.928 484.62H103.728ZM120.117 489H120.017V489.1H120.117V489ZM123.281 489V489.1H123.381V489H123.281ZM123.281 467.862H123.381V467.762H123.281V467.862ZM120.117 467.862V467.762H120.017V467.862H120.117ZM120.117 489.1H123.281V488.9H120.117V489.1ZM123.381 489V467.862H123.181V489H123.381ZM123.281 467.762H120.117V467.962H123.281V467.762ZM120.017 467.862V489H120.217V467.862H120.017ZM136.758 479.874V479.974H136.861L136.858 479.871L136.758 479.874ZM129.053 479.874L128.953 479.867L128.946 479.974H129.053V479.874ZM136.743 484.474V484.374H136.67L136.648 484.444L136.743 484.474ZM129.038 482.086V481.986H128.938V482.086H129.038ZM139.922 482.086V482.186H140.022V482.086H139.922ZM139.746 484.474L139.845 484.489L139.863 484.374H139.746V484.474ZM132.979 475.96C134.058 475.96 134.958 476.364 135.597 477.051C136.237 477.739 136.622 478.718 136.658 479.877L136.858 479.871C136.821 478.672 136.422 477.644 135.743 476.915C135.064 476.185 134.111 475.76 132.979 475.76V475.96ZM136.758 479.774H129.053V479.974H136.758V479.774ZM129.152 479.881C129.311 477.594 130.829 475.96 132.979 475.96V475.76C130.704 475.76 129.117 477.496 128.953 479.867L129.152 479.881ZM136.648 484.444C136.239 485.741 134.952 486.629 133.184 486.629V486.829C135.019 486.829 136.398 485.902 136.839 484.504L136.648 484.444ZM133.184 486.629C131.941 486.629 130.932 486.196 130.234 485.44C129.535 484.684 129.138 483.597 129.138 482.276H128.938C128.938 483.637 129.347 484.776 130.087 485.576C130.828 486.377 131.892 486.829 133.184 486.829V486.629ZM129.138 482.276V482.086H128.938V482.276H129.138ZM129.038 482.186H139.922V481.986H129.038V482.186ZM140.022 482.086V481.002H139.822V482.086H140.022ZM140.022 481.002C140.022 478.647 139.35 476.699 138.129 475.338C136.906 473.975 135.142 473.212 132.979 473.212V473.412C135.092 473.412 136.8 474.156 137.98 475.471C139.161 476.787 139.822 478.684 139.822 481.002H140.022ZM132.979 473.212C130.777 473.212 128.965 474.028 127.705 475.461C126.446 476.893 125.745 478.932 125.745 481.368H125.945C125.945 478.97 126.635 476.981 127.855 475.593C129.074 474.207 130.83 473.412 132.979 473.412V473.212ZM125.745 481.368C125.745 483.818 126.435 485.826 127.706 487.222C128.979 488.619 130.824 489.393 133.11 489.393V489.193C130.871 489.193 129.083 488.436 127.854 487.087C126.624 485.736 125.945 483.782 125.945 481.368H125.745ZM133.11 489.393C136.676 489.393 139.396 487.363 139.845 484.489L139.647 484.458C139.217 487.21 136.605 489.193 133.11 489.193V489.393ZM139.746 484.374H136.743V484.574H139.746V484.374ZM142.383 489H142.283V489.1H142.383V489ZM145.547 489V489.1H145.647V489H145.547ZM152.49 489H152.39V489.1H152.49V489ZM155.669 489V489.1H155.769V489H155.669ZM145.474 476.168V476.268H145.537L145.564 476.211L145.474 476.168ZM145.4 476.168H145.3V476.268H145.4V476.168ZM145.4 473.59H145.5V473.49H145.4V473.59ZM142.383 473.59V473.49H142.283V473.59H142.383ZM142.383 489.1H145.547V488.9H142.383V489.1ZM145.647 489V480.021H145.447V489H145.647ZM145.647 480.021C145.647 478.847 146 477.88 146.617 477.208C147.233 476.537 148.121 476.151 149.209 476.151V475.951C148.071 475.951 147.127 476.356 146.469 477.073C145.812 477.789 145.447 478.807 145.447 480.021H145.647ZM149.209 476.151C150.288 476.151 151.078 476.463 151.599 477.044C152.122 477.627 152.39 478.496 152.39 479.64H152.59C152.59 478.469 152.316 477.543 151.748 476.91C151.178 476.276 150.327 475.951 149.209 475.951V476.151ZM152.39 479.64V489H152.59V479.64H152.39ZM152.49 489.1H155.669V488.9H152.49V489.1ZM155.769 489V479.024H155.569V489H155.769ZM155.769 479.024C155.769 477.241 155.277 475.79 154.343 474.783C153.409 473.776 152.043 473.226 150.322 473.226V473.426C152 473.426 153.307 473.961 154.197 474.919C155.087 475.879 155.569 477.277 155.569 479.024H155.769ZM150.322 473.226C147.914 473.226 146.236 474.33 145.383 476.125L145.564 476.211C146.381 474.491 147.985 473.426 150.322 473.426V473.226ZM145.474 476.068H145.4V476.268H145.474V476.068ZM145.5 476.168V473.59H145.3V476.168H145.5ZM145.4 473.49H142.383V473.69H145.4V473.49ZM142.283 473.59V489H142.483V473.59H142.283ZM169.424 486.378V486.278H169.363L169.335 486.332L169.424 486.378ZM169.482 486.378H169.582V486.278H169.482V486.378ZM169.482 489H169.382V489.1H169.482V489ZM172.559 489V489.1H172.659V489H172.559ZM172.559 467.862H172.659V467.762H172.559V467.862ZM169.38 467.862V467.762H169.28V467.862H169.38ZM169.38 476.153V476.253H169.48V476.153H169.38ZM169.321 476.153L169.232 476.199L169.26 476.253H169.321V476.153ZM164.517 489.364C166.794 489.364 168.587 488.216 169.513 486.424L169.335 486.332C168.444 488.056 166.721 489.164 164.517 489.164V489.364ZM169.424 486.478H169.482V486.278H169.424V486.478ZM169.382 486.378V489H169.582V486.378H169.382ZM169.482 489.1H172.559V488.9H169.482V489.1ZM172.659 489V467.862H172.459V489H172.659ZM172.559 467.762H169.38V467.962H172.559V467.762ZM169.28 467.862V476.153H169.48V467.862H169.28ZM169.38 476.053H169.321V476.253H169.38V476.053ZM169.41 476.108C168.528 474.373 166.735 473.241 164.487 473.241V473.441C166.664 473.441 168.386 474.535 169.232 476.199L169.41 476.108ZM164.487 473.241C162.525 473.241 160.885 474.026 159.737 475.431C158.591 476.834 157.942 478.846 157.942 481.295H158.142C158.142 478.88 158.782 476.916 159.892 475.557C161 474.201 162.583 473.441 164.487 473.441V473.241ZM157.942 481.295C157.942 483.743 158.591 485.76 159.741 487.166C160.892 488.575 162.539 489.364 164.517 489.364V489.164C162.597 489.164 161.007 488.4 159.896 487.04C158.782 485.678 158.142 483.71 158.142 481.295H157.942ZM165.352 476.107C166.536 476.107 167.521 476.616 168.213 477.514C168.907 478.415 169.309 479.714 169.309 481.295H169.509C169.509 479.682 169.099 478.337 168.371 477.392C167.643 476.445 166.599 475.907 165.352 475.907V476.107ZM169.309 481.295C169.309 482.891 168.907 484.189 168.213 485.086C167.521 485.981 166.536 486.483 165.352 486.483V486.683C166.599 486.683 167.642 486.152 168.371 485.209C169.099 484.267 169.509 482.922 169.509 481.295H169.309ZM165.352 486.483C164.129 486.483 163.141 485.988 162.455 485.097C161.768 484.204 161.379 482.906 161.379 481.295H161.179C161.179 482.936 161.575 484.281 162.297 485.219C163.021 486.16 164.069 486.683 165.352 486.683V486.483ZM161.379 481.295C161.379 479.691 161.768 478.393 162.455 477.498C163.141 476.606 164.129 476.107 165.352 476.107V475.907C164.069 475.907 163.021 476.433 162.297 477.376C161.575 478.316 161.179 479.661 161.179 481.295H161.379ZM181.348 482.247L181.341 482.147L181.341 482.147L181.348 482.247ZM185.142 482.013H185.242V481.906L185.135 481.913L185.142 482.013ZM185.186 486.466V486.366H185.125L185.097 486.42L185.186 486.466ZM185.259 486.466H185.359V486.366H185.259V486.466ZM185.259 489H185.159V489.1H185.259V489ZM188.291 489V489.1H188.391V489H188.291ZM175.811 478.146L175.711 478.139L175.704 478.246H175.811V478.146ZM178.799 478.146V478.246H178.881L178.897 478.165L178.799 478.146ZM185.142 479.815L185.147 479.915L185.242 479.91V479.815H185.142ZM180.923 480.064L180.928 480.164L180.929 480.164L180.923 480.064ZM181.201 486.659C180.368 486.659 179.688 486.443 179.22 486.072C178.753 485.703 178.489 485.176 178.489 484.532H178.289C178.289 485.236 178.581 485.822 179.096 486.229C179.608 486.635 180.335 486.859 181.201 486.859V486.659ZM178.489 484.532C178.489 483.904 178.742 483.395 179.221 483.024C179.703 482.65 180.421 482.412 181.355 482.347L181.341 482.147C180.384 482.214 179.623 482.459 179.098 482.866C178.57 483.275 178.289 483.842 178.289 484.532H178.489ZM181.354 482.347L185.148 482.113L185.135 481.913L181.341 482.147L181.354 482.347ZM185.042 482.013V483.229H185.242V482.013H185.042ZM185.042 483.229C185.042 485.17 183.369 486.659 181.201 486.659V486.859C183.457 486.859 185.242 485.301 185.242 483.229H185.042ZM180.322 489.364C182.377 489.364 184.362 488.263 185.274 486.512L185.097 486.42C184.222 488.097 182.311 489.164 180.322 489.164V489.364ZM185.186 486.566H185.259V486.366H185.186V486.566ZM185.159 486.466V489H185.359V486.466H185.159ZM185.259 489.1H188.291V488.9H185.259V489.1ZM188.391 489V478.38H188.191V489H188.391ZM188.391 478.38C188.391 476.807 187.782 475.511 186.694 474.61C185.608 473.71 184.052 473.212 182.168 473.212V473.412C184.019 473.412 185.525 473.901 186.566 474.764C187.606 475.624 188.191 476.862 188.191 478.38H188.391ZM182.168 473.212C180.246 473.212 178.678 473.729 177.565 474.606C176.451 475.484 175.8 476.719 175.711 478.139L175.91 478.152C175.996 476.789 176.62 475.606 177.689 474.763C178.759 473.919 180.281 473.412 182.168 473.412V473.212ZM175.811 478.246H178.799V478.046H175.811V478.246ZM178.897 478.165C179.031 477.5 179.373 476.959 179.901 476.583C180.429 476.206 181.151 475.99 182.051 475.99V475.79C181.12 475.79 180.355 476.013 179.784 476.42C179.213 476.827 178.845 477.414 178.701 478.126L178.897 478.165ZM182.051 475.99C183.001 475.99 183.747 476.241 184.255 476.691C184.761 477.14 185.042 477.796 185.042 478.629H185.242C185.242 477.748 184.943 477.034 184.388 476.542C183.833 476.051 183.034 475.79 182.051 475.79V475.99ZM185.042 478.629V479.815H185.242V478.629H185.042ZM185.136 479.716L180.917 479.965L180.929 480.164L185.147 479.915L185.136 479.716ZM180.917 479.965C179.074 480.068 177.619 480.537 176.623 481.33C175.624 482.127 175.095 483.244 175.095 484.62H175.295C175.295 483.301 175.799 482.243 176.748 481.487C177.7 480.728 179.11 480.266 180.928 480.164L180.917 479.965ZM175.095 484.62C175.095 486.031 175.634 487.22 176.56 488.054C177.486 488.888 178.793 489.364 180.322 489.364V489.164C178.834 489.164 177.577 488.701 176.694 487.906C175.812 487.111 175.295 485.978 175.295 484.62H175.095ZM191.367 489H191.267V489.1H191.367V489ZM194.531 489V489.1H194.631V489H194.531ZM199.248 476.402L199.21 476.495L199.348 476.552V476.402H199.248ZM199.248 473.458H199.348V473.375L199.266 473.36L199.248 473.458ZM194.458 476.212V476.312H194.534L194.554 476.239L194.458 476.212ZM194.385 476.212H194.285V476.312H194.385V476.212ZM194.385 473.59H194.485V473.49H194.385V473.59ZM191.367 473.59V473.49H191.267V473.59H191.367ZM191.367 489.1H194.531V488.9H191.367V489.1ZM194.631 489V479.771H194.431V489H194.631ZM194.631 479.771C194.631 478.699 194.941 477.839 195.489 477.249C196.037 476.659 196.832 476.327 197.827 476.327V476.127C196.786 476.127 195.934 476.476 195.342 477.113C194.752 477.749 194.431 478.661 194.431 479.771H194.631ZM197.827 476.327C198.131 476.327 198.42 476.345 198.662 476.375C198.907 476.406 199.098 476.449 199.21 476.495L199.286 476.31C199.149 476.253 198.937 476.208 198.687 476.177C198.436 476.145 198.138 476.127 197.827 476.127V476.327ZM199.348 476.402V473.458H199.148V476.402H199.348ZM199.266 473.36C199.032 473.316 198.628 473.241 198.164 473.241V473.441C198.608 473.441 198.996 473.512 199.23 473.556L199.266 473.36ZM198.164 473.241C196.301 473.241 194.886 474.342 194.362 476.185L194.554 476.239C195.055 474.478 196.394 473.441 198.164 473.441V473.241ZM194.458 476.112H194.385V476.312H194.458V476.112ZM194.485 476.212V473.59H194.285V476.212H194.485ZM194.385 473.49H191.367V473.69H194.385V473.49ZM191.267 473.59V489H191.467V473.59H191.267ZM217.998 486.378V486.278H217.937L217.909 486.332L217.998 486.378ZM218.057 486.378H218.157V486.278H218.057V486.378ZM218.057 489H217.957V489.1H218.057V489ZM221.133 489V489.1H221.233V489H221.133ZM221.133 467.862H221.233V467.762H221.133V467.862ZM217.954 467.862V467.762H217.854V467.862H217.954ZM217.954 476.153V476.253H218.054V476.153H217.954ZM217.896 476.153L217.806 476.199L217.834 476.253H217.896V476.153ZM213.091 489.364C215.369 489.364 217.161 488.216 218.087 486.424L217.909 486.332C217.019 488.056 215.295 489.164 213.091 489.164V489.364ZM217.998 486.478H218.057V486.278H217.998V486.478ZM217.957 486.378V489H218.157V486.378H217.957ZM218.057 489.1H221.133V488.9H218.057V489.1ZM221.233 489V467.862H221.033V489H221.233ZM221.133 467.762H217.954V467.962H221.133V467.762ZM217.854 467.862V476.153H218.054V467.862H217.854ZM217.954 476.053H217.896V476.253H217.954V476.053ZM217.985 476.108C217.102 474.373 215.309 473.241 213.062 473.241V473.441C215.238 473.441 216.96 474.535 217.806 476.199L217.985 476.108ZM213.062 473.241C211.099 473.241 209.459 474.026 208.311 475.431C207.165 476.834 206.516 478.846 206.516 481.295H206.716C206.716 478.88 207.356 476.916 208.466 475.557C209.574 474.201 211.157 473.441 213.062 473.441V473.241ZM206.516 481.295C206.516 483.743 207.165 485.76 208.315 487.166C209.466 488.575 211.114 489.364 213.091 489.364V489.164C211.171 489.164 209.582 488.4 208.47 487.04C207.356 485.678 206.716 483.71 206.716 481.295H206.516ZM213.926 476.107C215.11 476.107 216.095 476.616 216.787 477.514C217.481 478.415 217.883 479.714 217.883 481.295H218.083C218.083 479.682 217.673 478.337 216.946 477.392C216.217 476.445 215.173 475.907 213.926 475.907V476.107ZM217.883 481.295C217.883 482.891 217.481 484.189 216.787 485.086C216.096 485.981 215.11 486.483 213.926 486.483V486.683C215.173 486.683 216.216 486.152 216.946 485.209C217.673 484.267 218.083 482.922 218.083 481.295H217.883ZM213.926 486.483C212.703 486.483 211.715 485.988 211.03 485.097C210.342 484.204 209.954 482.906 209.954 481.295H209.754C209.754 482.936 210.149 484.281 210.871 485.219C211.596 486.16 212.643 486.683 213.926 486.683V486.483ZM209.954 481.295C209.954 479.691 210.342 478.393 211.03 477.498C211.715 476.606 212.704 476.107 213.926 476.107V475.907C212.643 475.907 211.595 476.433 210.871 477.376C210.149 478.316 209.754 479.661 209.754 481.295H209.954ZM234.609 479.874V479.974H234.713L234.709 479.871L234.609 479.874ZM226.904 479.874L226.805 479.867L226.797 479.974H226.904V479.874ZM234.595 484.474V484.374H234.521L234.499 484.444L234.595 484.474ZM226.89 482.086V481.986H226.79V482.086H226.89ZM237.773 482.086V482.186H237.873V482.086H237.773ZM237.598 484.474L237.696 484.489L237.714 484.374H237.598V484.474ZM230.83 475.96C231.91 475.96 232.809 476.364 233.449 477.051C234.089 477.739 234.473 478.718 234.509 479.877L234.709 479.871C234.672 478.672 234.273 477.644 233.595 476.915C232.916 476.185 231.962 475.76 230.83 475.76V475.96ZM234.609 479.774H226.904V479.974H234.609V479.774ZM227.004 479.881C227.162 477.594 228.68 475.96 230.83 475.96V475.76C228.556 475.76 226.969 477.496 226.805 479.867L227.004 479.881ZM234.499 484.444C234.09 485.741 232.803 486.629 231.035 486.629V486.829C232.87 486.829 234.249 485.902 234.69 484.504L234.499 484.444ZM231.035 486.629C229.792 486.629 228.784 486.196 228.086 485.44C227.386 484.684 226.99 483.597 226.99 482.276H226.79C226.79 483.637 227.199 484.776 227.939 485.576C228.679 486.377 229.744 486.829 231.035 486.829V486.629ZM226.99 482.276V482.086H226.79V482.276H226.99ZM226.89 482.186H237.773V481.986H226.89V482.186ZM237.873 482.086V481.002H237.673V482.086H237.873ZM237.873 481.002C237.873 478.647 237.201 476.699 235.98 475.338C234.758 473.975 232.994 473.212 230.83 473.212V473.412C232.944 473.412 234.651 474.156 235.831 475.471C237.012 476.787 237.673 478.684 237.673 481.002H237.873ZM230.83 473.212C228.628 473.212 226.817 474.028 225.557 475.461C224.298 476.893 223.596 478.932 223.596 481.368H223.796C223.796 478.97 224.487 476.981 225.707 475.593C226.926 474.207 228.681 473.412 230.83 473.412V473.212ZM223.596 481.368C223.596 483.818 224.286 485.826 225.558 487.222C226.83 488.619 228.675 489.393 230.962 489.393V489.193C228.722 489.193 226.934 488.436 225.706 487.087C224.476 485.736 223.796 483.782 223.796 481.368H223.596ZM230.962 489.393C234.528 489.393 237.247 487.363 237.696 484.489L237.499 484.458C237.069 487.21 234.457 489.193 230.962 489.193V489.393ZM237.598 484.374H234.595V484.574H237.598V484.374ZM244.146 482.232L244.169 482.135L244.169 482.135L244.146 482.232ZM246.899 482.906L246.924 482.809L246.923 482.809L246.899 482.906ZM242.695 484.576L242.794 484.56L242.78 484.476H242.695V484.576ZM239.561 484.576V484.476H239.451L239.461 484.585L239.561 484.576ZM247.998 480.357L248.021 480.26L248.021 480.26L247.998 480.357ZM245.405 479.757L245.381 479.854L245.383 479.854L245.405 479.757ZM248.95 477.97L248.851 477.98L248.86 478.07H248.95V477.97ZM251.924 477.97V478.07H252.028L252.024 477.966L251.924 477.97ZM239.856 477.955C239.856 479.056 240.216 479.982 240.936 480.718C241.653 481.452 242.719 481.99 244.122 482.33L244.169 482.135C242.788 481.801 241.761 481.277 241.079 480.579C240.399 479.883 240.056 479.008 240.056 477.955H239.856ZM244.122 482.33L246.876 483.003L246.923 482.809L244.169 482.135L244.122 482.33ZM246.875 483.003C247.676 483.207 248.206 483.44 248.536 483.734C248.859 484.021 248.997 484.373 248.997 484.84H249.197C249.197 484.325 249.041 483.916 248.669 483.584C248.302 483.258 247.734 483.015 246.924 482.809L246.875 483.003ZM248.997 484.84C248.997 485.426 248.723 485.905 248.217 486.242C247.708 486.58 246.961 486.776 246.021 486.776V486.976C246.985 486.976 247.775 486.776 248.328 486.408C248.885 486.038 249.197 485.499 249.197 484.84H248.997ZM246.021 486.776C245.067 486.776 244.32 486.574 243.783 486.199C243.249 485.826 242.914 485.276 242.794 484.56L242.597 484.593C242.725 485.356 243.086 485.956 243.669 486.363C244.249 486.768 245.041 486.976 246.021 486.976V486.776ZM242.695 484.476H239.561V484.676H242.695V484.476ZM239.461 484.585C239.588 486.027 240.269 487.232 241.383 488.074C242.495 488.916 244.034 489.393 245.874 489.393V489.193C244.067 489.193 242.573 488.725 241.503 487.915C240.434 487.106 239.782 485.953 239.66 484.567L239.461 484.585ZM245.874 489.393C247.78 489.393 249.402 488.906 250.551 488.055C251.702 487.203 252.375 485.988 252.375 484.547H252.175C252.175 485.919 251.537 487.076 250.432 487.894C249.326 488.714 247.748 489.193 245.874 489.193V489.393ZM252.375 484.547C252.375 483.393 252.077 482.503 251.371 481.81C250.671 481.12 249.58 480.635 248.021 480.26L247.975 480.455C249.522 480.827 250.569 481.301 251.231 481.952C251.888 482.599 252.175 483.43 252.175 484.547H252.375ZM248.021 480.26L245.428 479.659L245.383 479.854L247.975 480.455L248.021 480.26ZM245.429 479.66C244.638 479.464 244.065 479.208 243.692 478.893C243.323 478.581 243.147 478.209 243.147 477.765H242.947C242.947 478.272 243.152 478.699 243.563 479.046C243.97 479.39 244.576 479.655 245.381 479.854L245.429 479.66ZM243.147 477.765C243.147 477.192 243.415 476.708 243.891 476.364C244.369 476.019 245.061 475.814 245.903 475.814V475.614C245.031 475.614 244.295 475.826 243.774 476.202C243.25 476.58 242.947 477.122 242.947 477.765H243.147ZM245.903 475.814C246.774 475.814 247.476 476.026 247.977 476.4C248.475 476.773 248.78 477.311 248.851 477.98L249.05 477.959C248.974 477.237 248.642 476.647 248.096 476.24C247.553 475.834 246.805 475.614 245.903 475.614V475.814ZM248.95 478.07H251.924V477.87H248.95V478.07ZM252.024 477.966C251.919 475.156 249.454 473.212 245.991 473.212V473.412C249.384 473.412 251.724 475.305 251.824 477.973L252.024 477.966ZM245.991 473.212C244.173 473.212 242.641 473.688 241.561 474.521C240.479 475.356 239.856 476.546 239.856 477.955H240.056C240.056 476.611 240.648 475.478 241.683 474.68C242.72 473.88 244.206 473.412 245.991 473.412V473.212ZM254.839 489H254.739V489.1H254.839V489ZM258.003 489V489.1H258.103V489H258.003ZM258.003 473.59H258.103V473.49H258.003V473.59ZM254.839 473.59V473.49H254.739V473.59H254.839ZM254.839 489.1H258.003V488.9H254.839V489.1ZM258.103 489V473.59H257.903V489H258.103ZM258.003 473.49H254.839V473.69H258.003V473.49ZM254.739 473.59V489H254.939V473.59H254.739ZM256.421 471.434C257.499 471.434 258.367 470.586 258.367 469.532H258.167C258.167 470.471 257.393 471.234 256.421 471.234V471.434ZM258.367 469.532C258.367 468.465 257.5 467.616 256.421 467.616V467.816C257.393 467.816 258.167 468.578 258.167 469.532H258.367ZM256.421 467.616C255.356 467.616 254.49 468.465 254.49 469.532H254.69C254.69 468.578 255.464 467.816 256.421 467.816V467.616ZM254.49 469.532C254.49 470.585 255.357 471.434 256.421 471.434V471.234C255.464 471.234 254.69 470.472 254.69 469.532H254.49ZM275.068 473.59H275.168V473.49H275.068V473.59ZM271.992 473.59V473.49H271.892V473.59H271.992ZM271.992 476.227V476.327H272.092V476.227H271.992ZM271.934 476.227L271.845 476.273L271.873 476.327H271.934V476.227ZM271.831 486.29V486.19H271.77L271.742 486.244L271.831 486.29ZM271.89 486.29H271.99V486.19H271.89V486.29ZM264.287 490.201L264.381 490.168L264.358 490.101H264.287V490.201ZM261.108 490.201V490.101H260.992L261.009 490.216L261.108 490.201ZM267.803 486.337C266.617 486.337 265.643 485.859 264.963 484.991C264.281 484.12 263.889 482.847 263.889 481.251H263.689C263.689 482.877 264.088 484.198 264.805 485.114C265.524 486.033 266.557 486.537 267.803 486.537V486.337ZM263.889 481.251C263.889 479.662 264.281 478.375 264.963 477.487C265.644 476.602 266.618 476.107 267.803 476.107V475.907C266.556 475.907 265.523 476.43 264.805 477.365C264.088 478.297 263.689 479.632 263.689 481.251H263.889ZM267.803 476.107C269.01 476.107 270.006 476.613 270.703 477.504C271.402 478.398 271.804 479.685 271.804 481.251H272.004C272.004 479.653 271.594 478.318 270.861 477.381C270.126 476.441 269.071 475.907 267.803 475.907V476.107ZM271.804 481.251C271.804 482.824 271.402 484.097 270.704 484.973C270.007 485.848 269.011 486.337 267.803 486.337V486.537C269.07 486.537 270.125 486.022 270.86 485.098C271.594 484.177 272.004 482.856 272.004 481.251H271.804ZM267.832 494.901C270.047 494.901 271.881 494.295 273.163 493.217C274.446 492.136 275.168 490.588 275.168 488.722H274.968C274.968 490.532 274.27 492.023 273.034 493.064C271.796 494.105 270.012 494.701 267.832 494.701V494.901ZM275.168 488.722V473.59H274.968V488.722H275.168ZM275.068 473.49H271.992V473.69H275.068V473.49ZM271.892 473.59V476.227H272.092V473.59H271.892ZM271.992 476.127H271.934V476.327H271.992V476.127ZM272.022 476.18C271.067 474.359 269.245 473.241 267.026 473.241V473.441C269.173 473.441 270.925 474.52 271.845 476.273L272.022 476.18ZM267.026 473.241C265.021 473.241 263.373 474.014 262.229 475.407C261.086 476.797 260.452 478.796 260.452 481.236H260.652C260.652 478.828 261.277 476.879 262.383 475.534C263.487 474.191 265.077 473.441 267.026 473.441V473.241ZM260.452 481.236C260.452 483.655 261.09 485.635 262.225 487.013C263.362 488.392 264.991 489.159 266.953 489.159V488.959C265.048 488.959 263.476 488.216 262.379 486.886C261.281 485.553 260.652 483.622 260.652 481.236H260.452ZM266.953 489.159C269.184 489.159 271.037 488.042 271.92 486.336L271.742 486.244C270.897 487.878 269.117 488.959 266.953 488.959V489.159ZM271.831 486.39H271.89V486.19H271.831V486.39ZM271.79 486.29V488.824H271.99V486.29H271.79ZM271.79 488.824C271.79 489.855 271.433 490.705 270.78 491.299C270.127 491.894 269.168 492.24 267.949 492.24V492.44C269.206 492.44 270.217 492.083 270.915 491.447C271.614 490.81 271.99 489.903 271.99 488.824H271.79ZM267.949 492.24C266.175 492.24 264.817 491.405 264.381 490.168L264.193 490.234C264.665 491.576 266.119 492.44 267.949 492.44V492.24ZM264.287 490.101H261.108V490.301H264.287V490.101ZM261.009 490.216C261.415 492.948 264.169 494.901 267.832 494.901V494.701C264.229 494.701 261.593 492.786 261.207 490.186L261.009 490.216ZM278.203 489H278.103V489.1H278.203V489ZM281.367 489V489.1H281.467V489H281.367ZM288.311 489H288.211V489.1H288.311V489ZM291.489 489V489.1H291.589V489H291.489ZM281.294 476.168V476.268H281.357L281.384 476.211L281.294 476.168ZM281.221 476.168H281.121V476.268H281.221V476.168ZM281.221 473.59H281.321V473.49H281.221V473.59ZM278.203 473.59V473.49H278.103V473.59H278.203ZM278.203 489.1H281.367V488.9H278.203V489.1ZM281.467 489V480.021H281.267V489H281.467ZM281.467 480.021C281.467 478.847 281.82 477.88 282.437 477.208C283.053 476.537 283.941 476.151 285.029 476.151V475.951C283.891 475.951 282.948 476.356 282.29 477.073C281.632 477.789 281.267 478.807 281.267 480.021H281.467ZM285.029 476.151C286.108 476.151 286.898 476.463 287.419 477.044C287.943 477.627 288.211 478.496 288.211 479.64H288.411C288.411 478.469 288.136 477.543 287.568 476.91C286.998 476.276 286.147 475.951 285.029 475.951V476.151ZM288.211 479.64V489H288.411V479.64H288.211ZM288.311 489.1H291.489V488.9H288.311V489.1ZM291.589 489V479.024H291.389V489H291.589ZM291.589 479.024C291.589 477.241 291.097 475.79 290.164 474.783C289.229 473.776 287.864 473.226 286.143 473.226V473.426C287.82 473.426 289.128 473.961 290.017 474.919C290.907 475.879 291.389 477.277 291.389 479.024H291.589ZM286.143 473.226C283.734 473.226 282.056 474.33 281.204 476.125L281.384 476.211C282.201 474.491 283.805 473.426 286.143 473.426V473.226ZM281.294 476.068H281.221V476.268H281.294V476.068ZM281.321 476.168V473.59H281.121V476.168H281.321ZM281.221 473.49H278.203V473.69H281.221V473.49ZM278.103 473.59V489H278.303V473.59H278.103Z"
            fill="white" />
        <rect x="53.3533" y="293.869" width="30" height="110" rx="5"
            transform="rotate(-75 53.3533 293.869)" fill="#E7E7E7" />
        <rect x="57.0275" y="291.747" width="24" height="18" rx="3"
            transform="rotate(-75 57.0275 291.747)" fill="#F4F4F4" />
        <rect x="77.312" y="297.183" width="24" height="18" rx="3"
            transform="rotate(-75 77.312 297.183)" fill="#C6C6C6" />
        <rect x="97.5964" y="302.618" width="24" height="18" rx="3"
            transform="rotate(-75 97.5964 302.618)" fill="#353535" />
        <rect x="117.881" y="308.053" width="24" height="18" rx="3"
            transform="rotate(-75 117.881 308.053)" fill="#151515" />
        <rect x="51.5263" y="321.824" width="30" height="110" rx="5"
            transform="rotate(-90 51.5263 321.824)" fill="#E7E7E7" />
        <rect x="54.5263" y="318.824" width="24" height="18" rx="3"
            transform="rotate(-90 54.5263 318.824)" fill="#70FF00" />
        <rect x="75.5263" y="318.824" width="24" height="18" rx="3"
            transform="rotate(-90 75.5263 318.824)" fill="#5AB500" />
        <rect x="96.5263" y="318.824" width="24" height="18" rx="3"
            transform="rotate(-90 96.5263 318.824)" fill="#3B82F4" />
        <rect x="117.526" y="318.824" width="24" height="18" rx="3"
            transform="rotate(-90 117.526 318.824)" fill="#0038FF" />
        <rect x="71.9605" y="369.391" width="30" height="110" rx="5"
            transform="rotate(-120 71.9605 369.391)" fill="#E7E7E7" />
        <rect x="73.0586" y="365.293" width="24" height="18" rx="3"
            transform="rotate(-120 73.0586 365.293)" fill="#FFC700" />
        <rect x="91.2451" y="354.793" width="24" height="18" rx="3"
            transform="rotate(-120 91.2451 354.793)" fill="#FF9900" />
        <rect x="109.432" y="344.293" width="24" height="18" rx="3"
            transform="rotate(-120 109.432 344.293)" fill="#FF1E47" />
        <rect x="127.618" y="333.793" width="24" height="18" rx="3"
            transform="rotate(-120 127.618 333.793)" fill="#9C00FC" />
        <circle cx="149.331" cy="307.4" r="3" transform="rotate(-120 149.331 307.4)"
            fill="#151515" />
        <path
            d="M316.389 300.091C330.708 293.887 337.288 277.249 331.086 262.929C324.884 248.609 308.247 242.029 293.928 248.233C279.609 254.437 273.028 271.075 279.231 285.395C285.433 299.715 302.069 306.294 316.389 300.091Z"
            fill="#454545" />
        <path
            d="M311.271 280.734C311.021 280.787 310.836 280.982 310.757 281.19L307.468 290.42C307.263 291.02 306.465 291.118 306.122 290.563L300.825 282.352C300.713 282.149 300.457 282.011 300.213 282.01L290.447 281.725C289.822 281.735 289.474 280.989 289.88 280.52L296.022 272.922C296.177 272.75 296.238 272.459 296.155 272.232L293.383 262.847C293.206 262.256 293.786 261.699 294.357 261.928L303.478 265.449C303.71 265.558 303.96 265.505 304.193 265.369L312.267 259.84C312.769 259.491 313.482 259.899 313.438 260.518L313.269 263.864L312.928 270.122L312.934 270.313C312.933 270.557 313.039 270.813 313.241 270.945L320.994 276.915C321.493 277.299 321.323 278.066 320.733 278.242L311.271 280.734Z"
            fill="#E7E7E7" />
        <path
            d="M309.82 332.343L185.439 367.68C182.103 368.624 178.625 366.688 177.682 363.352L130.542 197.335C129.599 193.999 131.533 190.519 134.868 189.576L259.25 154.239C262.585 153.295 266.063 155.23 267.007 158.567L314.146 324.584C315.09 327.92 313.155 331.39 309.82 332.343Z"
            fill="#3B82F4" />
        <path
            d="M261.994 294.632C262.85 293.799 262.869 292.429 262.036 291.572C261.204 290.715 259.834 290.696 258.978 291.529C258.121 292.363 258.102 293.733 258.935 294.589C259.768 295.446 261.137 295.465 261.994 294.632Z"
            fill="#E4ECF9" />
        <path
            d="M206.171 337.948C206.725 337.01 206.413 335.8 205.475 335.246C204.537 334.691 203.328 335.003 202.774 335.941C202.22 336.879 202.531 338.089 203.469 338.644C204.407 339.198 205.616 338.887 206.171 337.948Z"
            fill="#E4ECF9" />
        <path
            d="M271.161 365.811L144.006 389.252C140.595 389.881 137.317 387.622 136.688 384.209L105.424 214.474C104.795 211.062 107.053 207.783 110.464 207.153L237.619 183.713C241.03 183.084 244.308 185.343 244.937 188.756L276.202 358.49C276.831 361.903 274.572 365.182 271.161 365.811Z"
            fill="white" />
        <mask id="mask0_6_1306" style="mask-type:alpha" maskUnits="userSpaceOnUse" x="105" y="183"
            width="172" height="207">
            <path
                d="M271.161 365.811L144.006 389.252C140.595 389.881 137.317 387.622 136.688 384.209L105.423 214.474C104.795 211.062 107.053 207.783 110.464 207.153L237.619 183.713C241.03 183.084 244.308 185.343 244.937 188.756L276.202 358.49C276.831 361.903 274.572 365.182 271.161 365.811Z"
                fill="white" />
        </mask>
        <g mask="url(#mask0_6_1306)">
            <path
                d="M199.645 332.61L191.563 327.227C162.858 308.088 143.908 295.459 141.128 276.942C138.856 261.809 148.923 248.184 164.056 245.912C172.591 244.63 181.38 247.374 187.666 252.825C192.073 245.768 199.669 240.565 208.204 239.283C223.337 237.011 236.962 247.079 239.234 262.212C241.325 276.139 233.694 289.568 220.5 306.74C218.818 308.929 217.045 311.18 215.19 313.5"
                stroke="black" stroke-width="3" />
            <path opacity="0.2"
                d="M261.72 373.633C261.729 373.642 261.729 373.642 261.739 373.652C263.235 375.263 266.189 375.444 268.333 374.052C270.477 372.661 270.992 370.23 269.495 368.619C269.486 368.609 269.486 368.609 269.476 368.6L224.557 320.375L214.456 315.085C214.199 314.808 213.703 314.78 213.341 315.018C212.979 315.256 212.893 315.666 213.141 315.942L216.8 325.418L261.72 373.633Z"
                fill="#3A7EC1" />
            <path opacity="0.2"
                d="M120.191 184.828L121.806 182.653L178.846 228.969C180.115 224.506 184.151 219.584 189.975 215.922C195.915 212.202 202.258 210.715 206.872 211.573L215.233 204.82C215.175 204.706 215.06 204.591 215.002 204.477C211.889 199.556 216.732 190.915 225.901 185.135C231.149 181.873 236.627 180.213 240.952 180.328L187.5 129.5H191L253.466 187.767L251.62 189.77L249.083 187.481C248.737 192.288 244.239 198.354 237.262 202.76C231.149 206.594 224.633 208.197 220.077 207.338L211.889 213.976C212.119 214.205 212.292 214.491 212.465 214.778C215.752 219.928 211.081 228.798 201.97 234.52C198.741 236.523 195.454 237.897 192.34 238.583L192.397 238.641L190 240L188.419 239.098C184.44 239.27 181.153 238.068 179.538 235.493C178.846 234.406 178.5 233.204 178.5 231.888L120.191 184.828Z"
                fill="#3A7EC1" />
            <path opacity="0.2"
                d="M102.39 259.252C105.182 260.064 107.535 260.064 109.014 258.441C115.426 251.547 130.592 259.451 130.592 259.451L131.646 257.428L130.796 258.983L134.025 260.607L138.045 257.183L133.304 254.514L132.496 255.873L133.486 254.144C133.486 254.144 118.685 245.501 121.172 236.422C121.716 234.391 120.513 232.39 118.27 230.47C118.343 229.667 117.926 228.757 117.09 228.371L59.7965 196.772C58.7089 196.126 57.2899 196.534 56.7417 197.642L41.8516 224.696C41.2057 225.783 41.6135 227.202 42.7223 227.751L100.015 259.349C100.733 259.813 101.676 259.711 102.39 259.252Z"
                fill="#3A7EC1" />
        </g>
        <path
            d="M215.085 315.857C214.866 316.257 214.256 316.352 213.741 316.057C213.227 315.771 212.979 315.208 213.208 314.808C213.436 314.408 214.037 314.312 214.551 314.608C215.066 314.903 215.313 315.456 215.085 315.857Z"
            fill="#444444" />
        <path d="M225.748 307.544L215.085 315.857L213.208 314.808L214.656 301.367L225.748 307.544Z"
            fill="#444444" />
        <path
            d="M265.303 236.49L225.748 307.544C221.936 308.631 219.382 307.783 217.696 306.41C215.285 304.427 214.656 301.367 214.656 301.367L254.211 230.313L265.303 236.49Z"
            fill="#ACACAC" />
        <path
            d="M265.301 236.475C266.622 234.101 265.211 230.794 262.148 229.088C259.086 227.383 255.533 227.924 254.212 230.297C252.89 232.671 254.302 235.978 257.364 237.684C260.426 239.389 263.98 238.848 265.301 236.475Z"
            fill="#444444" />
        <path
            d="M106.217 252.804C112.519 245.9 127.77 253.506 127.77 253.506L129.196 250.886L130.623 248.266C130.623 248.266 115.824 239.746 118.038 230.711C120.374 221.605 88.447 213.257 88.447 213.257L81.8361 225.566L75.2252 237.874C75.2511 237.778 99.9154 259.709 106.217 252.804Z"
            fill="#444444" />
        <path
            d="M38.6588 219.794L53.3073 192.557C53.9077 191.476 55.2738 191.014 56.3553 191.614L114.002 222.59C115.084 223.19 115.546 224.556 114.946 225.638L100.297 252.874C99.6968 253.956 98.3307 254.418 97.2492 253.818L39.602 222.842C38.4947 222.338 38.0584 220.875 38.6588 219.794Z"
            fill="#FFCE20" />
        <path d="M130.449 248.53L135.232 251.158L131.195 254.631L127.996 253.049L130.449 248.53Z"
            fill="#FF9B00" />
        <path d="M135.232 251.158L130.827 250.598L129.103 253.553L131.195 254.631L135.232 251.158Z"
            fill="#FFC700" />
        <path
            d="M241.059 167.145C241.52 167.145 242.039 166.916 242.385 166.516C243.02 165.772 242.904 164.742 242.155 164.112L196.772 126.401C196.483 126.172 196.08 126 195.676 126H186.276C185.354 126 184.546 126.744 184.546 127.717C184.546 128.69 185.296 129.434 186.276 129.434H195.099L239.963 166.745C240.252 166.973 240.655 167.145 241.059 167.145Z"
            fill="#353535" />
        <path
            d="M174.513 223.169C174.974 223.169 175.493 222.94 175.839 222.539C176.473 221.795 176.358 220.765 175.608 220.136L130.225 182.424C129.937 182.195 129.533 182.024 129.13 182.024H119.73C118.807 182.024 118 182.768 118 183.74C118 184.656 118.75 185.457 119.73 185.457H128.553L173.417 222.768C173.705 222.997 174.109 223.169 174.513 223.169Z"
            fill="#353535" />
        <path
            d="M170.88 222.425C170.88 222.482 170.937 222.482 170.937 222.539L171.053 222.654L171.11 222.711L171.168 222.768L173.186 224.771L178.376 220.422L197.233 204.628L216.955 188.09L224.97 181.394L239.329 169.377L243.769 165.657L241.751 163.654C240.367 162.109 233.159 165.943 225.143 172.524C217.416 178.876 211.649 185.572 211.419 188.318L200.981 196.902C199.194 195.815 192.274 199.592 184.546 205.944C176.185 212.868 170.015 220.25 170.88 222.425Z"
            fill="#353535" />
        <path
            d="M172.956 224.428C173.821 226.602 181.317 222.711 189.736 215.787C197.464 209.435 203.23 202.739 203.461 199.992L213.898 191.409C215.686 192.496 222.606 188.719 230.333 182.367C238.752 175.443 244.865 168.061 244 165.943C243.135 163.769 235.638 167.66 227.219 174.584C219.492 180.936 213.725 187.632 213.495 190.379L203.057 198.962C201.27 197.875 194.35 201.652 186.622 208.004C178.203 214.871 172.091 222.253 172.956 224.428ZM239.502 169.549C238.925 168.118 234.254 170.407 228.776 174.756C234.197 170.464 238.925 168.118 239.502 169.549ZM217.993 187.346C218.627 188.719 223.298 186.373 228.719 182.081C223.298 186.373 218.627 188.719 217.993 187.346ZM227.623 175.672C221.683 180.593 217.358 185.801 217.935 187.288C217.358 185.801 221.683 180.593 227.623 175.672ZM198.905 203.025C198.271 201.48 192.966 204.227 187.026 209.149C193.023 204.227 198.329 201.48 198.905 203.025ZM191.063 213.04C195.791 208.862 199.136 204.742 198.963 203.197C199.136 204.742 195.849 208.862 191.063 213.04ZM185.988 210.007C180.625 214.642 176.877 219.277 177.396 220.708C176.819 219.335 180.567 214.642 185.988 210.007Z"
            fill="#4F4F4F" />
    </g>
    <defs>
        <clipPath id="clip0_6_1306">
            <rect width="375" height="812" fill="white" />
        </clipPath>
    </defs>
</svg>
