<svg width="375" height="812" viewBox="0 0 375 812" fill="none" xmlns="http://www.w3.org/2000/svg">
    <g clip-path="url(#clip0_6_1167)">
        <rect width="375" height="812" fill="#151515" />
        <circle cx="-23" cy="515" r="113" fill="#3B82F4" />
        <circle cx="395.5" cy="372.5" r="79.5" fill="#FF9900" />
        <path opacity="0.5"
            d="M68.2617 525.7H68.3691L71.9463 538H73.7725L77.9941 522.499H75.9746L72.8701 535.153H72.7842L69.293 522.499H67.3379L63.8467 535.153H63.7607L60.6562 522.499H58.6367L62.8584 538H64.6846L68.2617 525.7ZM82.9893 528.257C84.751 528.257 85.9219 529.589 85.9648 531.458H79.8955C80.0137 529.6 81.2383 528.257 82.9893 528.257ZM85.9219 534.799C85.6104 535.852 84.5684 536.571 83.1504 536.571C81.1416 536.571 79.8848 535.164 79.8848 533.026V532.919H87.8984V532.21C87.8984 528.826 86.04 526.635 83.0215 526.635C79.9385 526.635 77.9619 528.987 77.9619 532.457C77.9619 535.97 79.9062 538.193 83.1074 538.193C85.5459 538.193 87.4365 536.754 87.7588 534.799H85.9219ZM97.9854 536.604C96.6426 536.604 95.751 535.905 95.751 534.842C95.751 533.789 96.6104 533.123 98.1143 533.026L101.101 532.844V533.757C101.101 535.368 99.7471 536.604 97.9854 536.604ZM97.5664 538.193C99.0703 538.193 100.488 537.355 101.154 536.077H101.197V538H102.97V530.276C102.97 528.053 101.315 526.635 98.6943 526.635C96.0518 526.635 94.3975 528.117 94.2686 530.051H96.0732C96.3096 528.955 97.2119 528.278 98.6514 528.278C100.198 528.278 101.101 529.095 101.101 530.459V531.394L97.8994 531.576C95.3213 531.727 93.8496 532.93 93.8496 534.842C93.8496 536.851 95.3428 538.193 97.5664 538.193ZM105.344 538H107.213V531.039C107.213 529.46 108.158 528.418 109.608 528.418C110.06 528.418 110.457 528.472 110.607 528.525V526.71C110.457 526.688 110.178 526.635 109.855 526.635C108.545 526.635 107.514 527.419 107.148 528.654H107.105V526.828H105.344V538ZM116.075 528.257C117.837 528.257 119.008 529.589 119.051 531.458H112.981C113.1 529.6 114.324 528.257 116.075 528.257ZM119.008 534.799C118.696 535.852 117.654 536.571 116.236 536.571C114.228 536.571 112.971 535.164 112.971 533.026V532.919H120.984V532.21C120.984 528.826 119.126 526.635 116.107 526.635C113.024 526.635 111.048 528.987 111.048 532.457C111.048 535.97 112.992 538.193 116.193 538.193C118.632 538.193 120.522 536.754 120.845 534.799H119.008ZM136.668 530.491C136.432 528.482 134.767 526.635 131.974 526.635C128.891 526.635 126.839 528.891 126.839 532.414C126.839 536.013 128.901 538.193 131.995 538.193C134.53 538.193 136.399 536.625 136.689 534.401H134.853C134.53 535.744 133.531 536.55 132.006 536.55C130.072 536.55 128.74 535.014 128.74 532.414C128.74 529.879 130.051 528.278 131.984 528.278C133.628 528.278 134.573 529.277 134.842 530.491H136.668ZM143.038 538.193C146.121 538.193 148.205 535.97 148.205 532.414C148.205 528.848 146.121 526.635 143.038 526.635C139.944 526.635 137.86 528.848 137.86 532.414C137.86 535.97 139.944 538.193 143.038 538.193ZM143.038 536.55C141.062 536.55 139.762 535.046 139.762 532.414C139.762 529.782 141.062 528.278 143.038 528.278C145.015 528.278 146.304 529.782 146.304 532.414C146.304 535.046 145.015 536.55 143.038 536.55ZM150.096 538H151.965V531.426C151.965 529.535 153.114 528.289 154.876 528.289C156.595 528.289 157.443 529.277 157.443 531.082V538H159.312V530.749C159.312 528.214 157.895 526.635 155.445 526.635C153.716 526.635 152.523 527.408 151.9 528.611H151.857V526.828H150.096V538ZM161.504 529.911C161.504 531.437 162.471 532.446 164.437 532.951L166.402 533.456C167.659 533.789 168.121 534.219 168.121 535.014C168.121 536.023 167.187 536.668 165.672 536.668C164.157 536.668 163.276 536.045 163.072 534.885H161.203C161.396 536.861 163.104 538.193 165.554 538.193C168.164 538.193 170.001 536.818 170.001 534.874C170.001 533.23 169.185 532.414 166.929 531.845L165.199 531.426C163.932 531.104 163.341 530.588 163.341 529.814C163.341 528.837 164.243 528.16 165.607 528.16C166.982 528.16 167.853 528.826 167.981 529.9H169.765C169.679 528.01 167.981 526.635 165.672 526.635C163.212 526.635 161.504 527.999 161.504 529.911ZM172.547 524.132V526.828H170.882V528.364H172.547V535.1C172.547 537.248 173.342 538.086 175.394 538.086C175.834 538.086 176.35 538.054 176.575 538V536.432C176.446 536.453 176.017 536.485 175.802 536.485C174.846 536.485 174.416 536.023 174.416 535.003V528.364H176.586V526.828H174.416V524.132H172.547ZM182.054 536.604C180.711 536.604 179.819 535.905 179.819 534.842C179.819 533.789 180.679 533.123 182.183 533.026L185.169 532.844V533.757C185.169 535.368 183.815 536.604 182.054 536.604ZM181.635 538.193C183.139 538.193 184.557 537.355 185.223 536.077H185.266V538H187.038V530.276C187.038 528.053 185.384 526.635 182.763 526.635C180.12 526.635 178.466 528.117 178.337 530.051H180.142C180.378 528.955 181.28 528.278 182.72 528.278C184.267 528.278 185.169 529.095 185.169 530.459V531.394L181.968 531.576C179.39 531.727 177.918 532.93 177.918 534.842C177.918 536.851 179.411 538.193 181.635 538.193ZM189.412 538H191.281V531.426C191.281 529.535 192.431 528.289 194.192 528.289C195.911 528.289 196.76 529.277 196.76 531.082V538H198.629V530.749C198.629 528.214 197.211 526.635 194.762 526.635C193.032 526.635 191.84 527.408 191.217 528.611H191.174V526.828H189.412V538ZM201.615 524.132V526.828H199.95V528.364H201.615V535.1C201.615 537.248 202.41 538.086 204.462 538.086C204.902 538.086 205.418 538.054 205.644 538V536.432C205.515 536.453 205.085 536.485 204.87 536.485C203.914 536.485 203.484 536.023 203.484 535.003V528.364H205.654V526.828H203.484V524.132H201.615ZM207.749 538H209.618V522.499H207.749V538ZM213.066 542.179C215.086 542.179 216.01 541.395 216.966 538.784L221.359 526.828H219.394L216.3 536.131H216.268L213.174 526.828H211.176L215.301 538.011L215.043 538.795C214.613 540.095 214.033 540.6 212.991 540.6C212.755 540.6 212.465 540.589 212.261 540.546V542.114C212.465 542.157 212.841 542.179 213.066 542.179ZM227.45 538H229.319V526.828H227.45V538ZM228.385 524.948C229.029 524.948 229.556 524.422 229.556 523.788C229.556 523.144 229.029 522.628 228.385 522.628C227.751 522.628 227.225 523.144 227.225 523.788C227.225 524.422 227.751 524.948 228.385 524.948ZM231.844 538H233.713V530.996C233.713 529.449 234.787 528.289 236.27 528.289C237.655 528.289 238.558 529.17 238.558 530.513V538H240.427V530.899C240.427 529.385 241.469 528.289 242.951 528.289C244.423 528.289 245.271 529.191 245.271 530.717V538H247.141V530.287C247.141 528.074 245.712 526.635 243.499 526.635C241.931 526.635 240.62 527.43 239.997 528.762H239.954C239.471 527.408 238.343 526.635 236.817 526.635C235.313 526.635 234.175 527.43 233.648 528.611H233.605V526.828H231.844V538ZM254.95 526.635C253.328 526.635 252.028 527.462 251.341 528.719H251.298V526.828H249.525V541.728H251.395V536.185H251.438C252.104 537.409 253.393 538.193 254.993 538.193C257.808 538.193 259.73 535.916 259.73 532.414C259.73 528.912 257.797 526.635 254.95 526.635ZM254.585 536.55C252.673 536.55 251.384 534.906 251.384 532.414C251.384 529.933 252.673 528.278 254.585 528.278C256.572 528.278 257.818 529.89 257.818 532.414C257.818 534.949 256.572 536.55 254.585 536.55ZM261.621 538H263.49V531.039C263.49 529.46 264.436 528.418 265.886 528.418C266.337 528.418 266.734 528.472 266.885 528.525V526.71C266.734 526.688 266.455 526.635 266.133 526.635C264.822 526.635 263.791 527.419 263.426 528.654H263.383V526.828H261.621V538ZM272.503 538.193C275.586 538.193 277.67 535.97 277.67 532.414C277.67 528.848 275.586 526.635 272.503 526.635C269.409 526.635 267.325 528.848 267.325 532.414C267.325 535.97 269.409 538.193 272.503 538.193ZM272.503 536.55C270.526 536.55 269.227 535.046 269.227 532.414C269.227 529.782 270.526 528.278 272.503 528.278C274.479 528.278 275.769 529.782 275.769 532.414C275.769 535.046 274.479 536.55 272.503 536.55ZM288.401 526.828H286.457L283.363 536.013H283.32L280.237 526.828H278.271L282.386 538H284.298L288.401 526.828ZM289.97 538H291.839V526.828H289.97V538ZM290.904 524.948C291.549 524.948 292.075 524.422 292.075 523.788C292.075 523.144 291.549 522.628 290.904 522.628C290.271 522.628 289.744 523.144 289.744 523.788C289.744 524.422 290.271 524.948 290.904 524.948ZM294.363 538H296.232V531.426C296.232 529.535 297.382 528.289 299.144 528.289C300.862 528.289 301.711 529.277 301.711 531.082V538H303.58V530.749C303.58 528.214 302.162 526.635 299.713 526.635C297.983 526.635 296.791 527.408 296.168 528.611H296.125V526.828H294.363V538ZM310.509 536.442C308.586 536.442 307.329 534.874 307.329 532.371C307.329 529.868 308.586 528.278 310.509 528.278C312.453 528.278 313.753 529.911 313.753 532.371C313.753 534.831 312.453 536.442 310.509 536.442ZM310.573 542.211C313.656 542.211 315.622 540.438 315.622 537.774V526.828H313.839V528.708H313.807C313.065 527.408 311.755 526.635 310.176 526.635C307.286 526.635 305.417 528.869 305.417 532.371C305.417 535.841 307.286 538.086 310.133 538.086C311.701 538.086 313.022 537.291 313.71 536.077H313.753V537.839C313.753 539.504 312.582 540.621 310.648 540.621C309.252 540.621 308.146 539.944 307.78 538.924H305.857C306.169 540.825 308.113 542.211 310.573 542.211ZM90.9922 560.604C89.6494 560.604 88.7578 559.905 88.7578 558.842C88.7578 557.789 89.6172 557.123 91.1211 557.026L94.1074 556.844V557.757C94.1074 559.368 92.7539 560.604 90.9922 560.604ZM90.5732 562.193C92.0771 562.193 93.4951 561.355 94.1611 560.077H94.2041V562H95.9766V554.276C95.9766 552.053 94.3223 550.635 91.7012 550.635C89.0586 550.635 87.4043 552.117 87.2754 554.051H89.0801C89.3164 552.955 90.2188 552.278 91.6582 552.278C93.2051 552.278 94.1074 553.095 94.1074 554.459V555.394L90.9062 555.576C88.3281 555.727 86.8564 556.93 86.8564 558.842C86.8564 560.851 88.3496 562.193 90.5732 562.193ZM98.3506 562H100.22V555.426C100.22 553.535 101.369 552.289 103.131 552.289C104.85 552.289 105.698 553.277 105.698 555.082V562H107.567V554.749C107.567 552.214 106.149 550.635 103.7 550.635C101.971 550.635 100.778 551.408 100.155 552.611H100.112V550.828H98.3506V562ZM114.185 562.193C115.796 562.193 117.074 561.398 117.794 560.109H117.826V562H119.609V546.499H117.74V552.644H117.697C117.031 551.419 115.742 550.635 114.142 550.635C111.327 550.635 109.404 552.912 109.404 556.414C109.404 559.916 111.338 562.193 114.185 562.193ZM114.539 552.278C116.462 552.278 117.751 553.922 117.751 556.414C117.751 558.917 116.462 560.55 114.539 560.55C112.562 560.55 111.316 558.949 111.316 556.414C111.316 553.89 112.562 552.278 114.539 552.278ZM126.646 562H128.515V555.426C128.515 553.535 129.664 552.289 131.426 552.289C133.145 552.289 133.993 553.277 133.993 555.082V562H135.862V554.749C135.862 552.214 134.444 550.635 131.995 550.635C130.266 550.635 129.073 551.408 128.45 552.611H128.407V550.828H126.646V562ZM142.727 552.257C144.488 552.257 145.659 553.589 145.702 555.458H139.633C139.751 553.6 140.976 552.257 142.727 552.257ZM145.659 558.799C145.348 559.852 144.306 560.571 142.888 560.571C140.879 560.571 139.622 559.164 139.622 557.026V556.919H147.636V556.21C147.636 552.826 145.777 550.635 142.759 550.635C139.676 550.635 137.699 552.987 137.699 556.457C137.699 559.97 139.644 562.193 142.845 562.193C145.283 562.193 147.174 560.754 147.496 558.799H145.659ZM154.006 552.257C155.768 552.257 156.938 553.589 156.981 555.458H150.912C151.03 553.6 152.255 552.257 154.006 552.257ZM156.938 558.799C156.627 559.852 155.585 560.571 154.167 560.571C152.158 560.571 150.901 559.164 150.901 557.026V556.919H158.915V556.21C158.915 552.826 157.057 550.635 154.038 550.635C150.955 550.635 148.979 552.987 148.979 556.457C148.979 559.97 150.923 562.193 154.124 562.193C156.562 562.193 158.453 560.754 158.775 558.799H156.938ZM165.038 562.193C166.649 562.193 167.928 561.398 168.647 560.109H168.68V562H170.463V546.499H168.594V552.644H168.551C167.885 551.419 166.596 550.635 164.995 550.635C162.181 550.635 160.258 552.912 160.258 556.414C160.258 559.916 162.191 562.193 165.038 562.193ZM165.393 552.278C167.315 552.278 168.604 553.922 168.604 556.414C168.604 558.917 167.315 560.55 165.393 560.55C163.416 560.55 162.17 558.949 162.17 556.414C162.17 553.89 163.416 552.278 165.393 552.278ZM178.423 566.179C180.442 566.179 181.366 565.395 182.322 562.784L186.716 550.828H184.75L181.656 560.131H181.624L178.53 550.828H176.532L180.657 562.011L180.399 562.795C179.97 564.095 179.39 564.6 178.348 564.6C178.111 564.6 177.821 564.589 177.617 564.546V566.114C177.821 566.157 178.197 566.179 178.423 566.179ZM192.506 562.193C195.589 562.193 197.673 559.97 197.673 556.414C197.673 552.848 195.589 550.635 192.506 550.635C189.412 550.635 187.328 552.848 187.328 556.414C187.328 559.97 189.412 562.193 192.506 562.193ZM192.506 560.55C190.529 560.55 189.229 559.046 189.229 556.414C189.229 553.782 190.529 552.278 192.506 552.278C194.482 552.278 195.771 553.782 195.771 556.414C195.771 559.046 194.482 560.55 192.506 560.55ZM208.737 550.828H206.868V557.392C206.868 559.293 205.772 560.539 203.957 560.539C202.228 560.539 201.379 559.562 201.379 557.746V550.828H199.51V558.079C199.51 560.614 200.938 562.193 203.377 562.193C205.096 562.193 206.256 561.474 206.922 560.185H206.965V562H208.737V550.828ZM211.165 562H213.034V555.039C213.034 553.46 213.979 552.418 215.43 552.418C215.881 552.418 216.278 552.472 216.429 552.525V550.71C216.278 550.688 215.999 550.635 215.677 550.635C214.366 550.635 213.335 551.419 212.97 552.654H212.927V550.828H211.165V562ZM227.096 562.193C230.179 562.193 232.263 559.97 232.263 556.414C232.263 552.848 230.179 550.635 227.096 550.635C224.002 550.635 221.918 552.848 221.918 556.414C221.918 559.97 224.002 562.193 227.096 562.193ZM227.096 560.55C225.119 560.55 223.819 559.046 223.819 556.414C223.819 553.782 225.119 552.278 227.096 552.278C229.072 552.278 230.361 553.782 230.361 556.414C230.361 559.046 229.072 560.55 227.096 560.55ZM239.578 550.635C237.956 550.635 236.656 551.462 235.969 552.719H235.926V550.828H234.153V565.728H236.022V560.185H236.065C236.731 561.409 238.021 562.193 239.621 562.193C242.436 562.193 244.358 559.916 244.358 556.414C244.358 552.912 242.425 550.635 239.578 550.635ZM239.213 560.55C237.301 560.55 236.012 558.906 236.012 556.414C236.012 553.933 237.301 552.278 239.213 552.278C241.2 552.278 242.446 553.89 242.446 556.414C242.446 558.949 241.2 560.55 239.213 560.55ZM246.346 562H248.215V550.828H246.346V562ZM247.28 548.948C247.925 548.948 248.451 548.422 248.451 547.788C248.451 547.144 247.925 546.628 247.28 546.628C246.646 546.628 246.12 547.144 246.12 547.788C246.12 548.422 246.646 548.948 247.28 548.948ZM250.739 562H252.608V555.426C252.608 553.535 253.758 552.289 255.52 552.289C257.238 552.289 258.087 553.277 258.087 555.082V562H259.956V554.749C259.956 552.214 258.538 550.635 256.089 550.635C254.359 550.635 253.167 551.408 252.544 552.611H252.501V550.828H250.739V562ZM262.438 562H264.307V550.828H262.438V562ZM263.372 548.948C264.017 548.948 264.543 548.422 264.543 547.788C264.543 547.144 264.017 546.628 263.372 546.628C262.738 546.628 262.212 547.144 262.212 547.788C262.212 548.422 262.738 548.948 263.372 548.948ZM271.461 562.193C274.544 562.193 276.628 559.97 276.628 556.414C276.628 552.848 274.544 550.635 271.461 550.635C268.367 550.635 266.283 552.848 266.283 556.414C266.283 559.97 268.367 562.193 271.461 562.193ZM271.461 560.55C269.484 560.55 268.185 559.046 268.185 556.414C268.185 553.782 269.484 552.278 271.461 552.278C273.438 552.278 274.727 553.782 274.727 556.414C274.727 559.046 273.438 560.55 271.461 560.55ZM278.519 562H280.388V555.426C280.388 553.535 281.537 552.289 283.299 552.289C285.018 552.289 285.866 553.277 285.866 555.082V562H287.735V554.749C287.735 552.214 286.317 550.635 283.868 550.635C282.139 550.635 280.946 551.408 280.323 552.611H280.28V550.828H278.519V562Z"
            fill="white" />
        <path
            d="M35.376 489V467.862H32.0947V476.798H21.2402V467.862H17.959V489H21.2402V479.64H32.0947V489H35.376ZM45.3223 475.86C47.5342 475.86 49.0283 477.516 49.1016 479.874H41.3965C41.5576 477.545 43.1104 475.86 45.3223 475.86ZM49.0869 484.474C48.6621 485.821 47.3291 486.729 45.5273 486.729C42.9932 486.729 41.3818 484.957 41.3818 482.276V482.086H52.2656V481.002C52.2656 476.329 49.5996 473.312 45.3223 473.312C40.9717 473.312 38.1885 476.534 38.1885 481.368C38.1885 486.231 40.9277 489.293 45.4541 489.293C48.9844 489.293 51.6504 487.286 52.0898 484.474H49.0869ZM54.8438 489H58.0078V467.862H54.8438V489ZM69.2871 473.341C67.0605 473.341 65.2881 474.469 64.3799 476.241H64.3213V473.59H61.2598V494.098H64.4238V486.466H64.4971C65.376 488.18 67.1338 489.264 69.3457 489.264C73.2129 489.264 75.7764 486.173 75.7764 481.295C75.7764 476.417 73.1982 473.341 69.2871 473.341ZM68.4521 486.583C66.0205 486.583 64.4092 484.503 64.4092 481.295C64.4092 478.116 66.0352 476.007 68.4521 476.007C70.957 476.007 72.5244 478.072 72.5244 481.295C72.5244 484.532 70.957 486.583 68.4521 486.583ZM97.5293 473.59H94.3652V482.569C94.3652 484.972 92.9883 486.554 90.7031 486.554C88.5205 486.554 87.4072 485.294 87.4072 482.95V473.59H84.2432V483.565C84.2432 487.096 86.2939 489.278 89.6484 489.278C92.0068 489.278 93.5742 488.238 94.4238 486.393H94.4971V489H97.5293V473.59ZM100.386 477.955C100.386 480.108 101.792 481.559 104.575 482.232L107.329 482.906C108.94 483.316 109.526 483.858 109.526 484.84C109.526 486.085 108.354 486.876 106.45 486.876C104.517 486.876 103.374 486.056 103.125 484.576H99.9902C100.239 487.403 102.656 489.293 106.304 489.293C110.083 489.293 112.705 487.359 112.705 484.547C112.705 482.276 111.533 481.104 108.428 480.357L105.835 479.757C104.238 479.361 103.477 478.717 103.477 477.765C103.477 476.549 104.619 475.714 106.333 475.714C108.105 475.714 109.233 476.578 109.38 477.97H112.354C112.251 475.23 109.849 473.312 106.421 473.312C102.817 473.312 100.386 475.201 100.386 477.955ZM122.183 469.942V473.59H119.941V476.095H122.183V484.942C122.183 487.916 123.398 489.103 126.519 489.103C127.222 489.103 127.925 489.044 128.276 488.956V486.451C128.071 486.495 127.559 486.524 127.236 486.524C125.947 486.524 125.361 485.924 125.361 484.591V476.095H128.291V473.59H125.361V469.942H122.183ZM137.139 489.293C141.548 489.293 144.448 486.261 144.448 481.295C144.448 476.344 141.533 473.312 137.139 473.312C132.744 473.312 129.829 476.344 129.829 481.295C129.829 486.261 132.729 489.293 137.139 489.293ZM137.139 486.686C134.663 486.686 133.052 484.723 133.052 481.295C133.052 477.882 134.663 475.919 137.139 475.919C139.614 475.919 141.226 477.882 141.226 481.295C141.226 484.723 139.629 486.686 137.139 486.686ZM153.091 489H156.255V473.59H153.091V489ZM154.673 471.334C155.698 471.334 156.519 470.528 156.519 469.532C156.519 468.521 155.698 467.716 154.673 467.716C153.662 467.716 152.842 468.521 152.842 469.532C152.842 470.528 153.662 471.334 154.673 471.334ZM159.492 489H162.656V479.479C162.656 477.501 163.989 476.036 165.864 476.036C167.651 476.036 168.779 477.164 168.779 478.937V489H171.885V479.376C171.885 477.428 173.188 476.036 175.063 476.036C176.938 476.036 178.008 477.179 178.008 479.171V489H181.187V478.409C181.187 475.348 179.194 473.326 176.147 473.326C173.95 473.326 172.134 474.469 171.343 476.344H171.27C170.654 474.425 169.102 473.326 166.963 473.326C164.883 473.326 163.271 474.469 162.583 476.183H162.51V473.59H159.492V489ZM192.275 473.341C190.049 473.341 188.276 474.469 187.368 476.241H187.31V473.59H184.248V494.098H187.412V486.466H187.485C188.364 488.18 190.122 489.264 192.334 489.264C196.201 489.264 198.765 486.173 198.765 481.295C198.765 476.417 196.187 473.341 192.275 473.341ZM191.44 486.583C189.009 486.583 187.397 484.503 187.397 481.295C187.397 478.116 189.023 476.007 191.44 476.007C193.945 476.007 195.513 478.072 195.513 481.295C195.513 484.532 193.945 486.583 191.44 486.583ZM201.211 489H204.375V479.771C204.375 477.589 205.635 476.227 207.671 476.227C208.286 476.227 208.843 476.3 209.092 476.402V473.458C208.857 473.414 208.462 473.341 208.008 473.341C206.191 473.341 204.814 474.41 204.302 476.212H204.229V473.59H201.211V489ZM217.002 489.293C221.411 489.293 224.312 486.261 224.312 481.295C224.312 476.344 221.396 473.312 217.002 473.312C212.607 473.312 209.692 476.344 209.692 481.295C209.692 486.261 212.593 489.293 217.002 489.293ZM217.002 486.686C214.526 486.686 212.915 484.723 212.915 481.295C212.915 477.882 214.526 475.919 217.002 475.919C219.478 475.919 221.089 477.882 221.089 481.295C221.089 484.723 219.492 486.686 217.002 486.686ZM239.502 473.59H236.191L232.324 485.909H232.266L228.398 473.59H225.029L230.581 489H233.979L239.502 473.59ZM247.324 475.86C249.536 475.86 251.03 477.516 251.104 479.874H243.398C243.56 477.545 245.112 475.86 247.324 475.86ZM251.089 484.474C250.664 485.821 249.331 486.729 247.529 486.729C244.995 486.729 243.384 484.957 243.384 482.276V482.086H254.268V481.002C254.268 476.329 251.602 473.312 247.324 473.312C242.974 473.312 240.19 476.534 240.19 481.368C240.19 486.231 242.93 489.293 247.456 489.293C250.986 489.293 253.652 487.286 254.092 484.474H251.089ZM263.745 469.942V473.59H261.504V476.095H263.745V484.942C263.745 487.916 264.961 489.103 268.081 489.103C268.784 489.103 269.487 489.044 269.839 488.956V486.451C269.634 486.495 269.121 486.524 268.799 486.524C267.51 486.524 266.924 485.924 266.924 484.591V476.095H269.854V473.59H266.924V469.942H263.745ZM272.578 489H275.742V480.094C275.742 477.662 277.178 476.051 279.521 476.051C281.748 476.051 282.891 477.413 282.891 479.684V489H286.069V479.068C286.069 475.582 284.048 473.326 280.664 473.326C278.32 473.326 276.636 474.366 275.786 476.168H275.713V467.862H272.578V489ZM295.576 475.86C297.788 475.86 299.282 477.516 299.355 479.874H291.65C291.812 477.545 293.364 475.86 295.576 475.86ZM299.341 484.474C298.916 485.821 297.583 486.729 295.781 486.729C293.247 486.729 291.636 484.957 291.636 482.276V482.086H302.52V481.002C302.52 476.329 299.854 473.312 295.576 473.312C291.226 473.312 288.442 476.534 288.442 481.368C288.442 486.231 291.182 489.293 295.708 489.293C299.238 489.293 301.904 487.286 302.344 484.474H299.341ZM316.465 486.759C314.766 486.759 313.652 485.88 313.652 484.532C313.652 483.214 314.722 482.379 316.611 482.247L320.405 482.013V483.229C320.405 485.235 318.677 486.759 316.465 486.759ZM315.586 489.264C317.607 489.264 319.556 488.18 320.449 486.466H320.522V489H323.555V478.38C323.555 475.289 321.167 473.312 317.432 473.312C313.623 473.312 311.25 475.362 311.074 478.146H314.062C314.341 476.769 315.483 475.89 317.314 475.89C319.248 475.89 320.405 476.915 320.405 478.629V479.815L316.187 480.064C312.524 480.27 310.459 481.925 310.459 484.62C310.459 487.389 312.568 489.264 315.586 489.264ZM334.658 473.341C332.432 473.341 330.659 474.469 329.751 476.241H329.692V473.59H326.631V494.098H329.795V486.466H329.868C330.747 488.18 332.505 489.264 334.717 489.264C338.584 489.264 341.147 486.173 341.147 481.295C341.147 476.417 338.569 473.341 334.658 473.341ZM333.823 486.583C331.392 486.583 329.78 484.503 329.78 481.295C329.78 478.116 331.406 476.007 333.823 476.007C336.328 476.007 337.896 478.072 337.896 481.295C337.896 484.532 336.328 486.583 333.823 486.583ZM351.621 473.341C349.395 473.341 347.622 474.469 346.714 476.241H346.655V473.59H343.594V494.098H346.758V486.466H346.831C347.71 488.18 349.468 489.264 351.68 489.264C355.547 489.264 358.11 486.173 358.11 481.295C358.11 476.417 355.532 473.341 351.621 473.341ZM350.786 486.583C348.354 486.583 346.743 484.503 346.743 481.295C346.743 478.116 348.369 476.007 350.786 476.007C353.291 476.007 354.858 478.072 354.858 481.295C354.858 484.532 353.291 486.583 350.786 486.583Z"
            fill="white" />
        <path
            d="M35.376 489V489.1H35.476V489H35.376ZM35.376 467.862H35.476V467.762H35.376V467.862ZM32.0947 467.862V467.762H31.9947V467.862H32.0947ZM32.0947 476.798V476.898H32.1947V476.798H32.0947ZM21.2402 476.798H21.1402V476.898H21.2402V476.798ZM21.2402 467.862H21.3402V467.762H21.2402V467.862ZM17.959 467.862V467.762H17.859V467.862H17.959ZM17.959 489H17.859V489.1H17.959V489ZM21.2402 489V489.1H21.3402V489H21.2402ZM21.2402 479.64V479.54H21.1402V479.64H21.2402ZM32.0947 479.64H32.1947V479.54H32.0947V479.64ZM32.0947 489H31.9947V489.1H32.0947V489ZM35.476 489V467.862H35.276V489H35.476ZM35.376 467.762H32.0947V467.962H35.376V467.762ZM31.9947 467.862V476.798H32.1947V467.862H31.9947ZM32.0947 476.698H21.2402V476.898H32.0947V476.698ZM21.3402 476.798V467.862H21.1402V476.798H21.3402ZM21.2402 467.762H17.959V467.962H21.2402V467.762ZM17.859 467.862V489H18.059V467.862H17.859ZM17.959 489.1H21.2402V488.9H17.959V489.1ZM21.3402 489V479.64H21.1402V489H21.3402ZM21.2402 479.74H32.0947V479.54H21.2402V479.74ZM31.9947 479.64V489H32.1947V479.64H31.9947ZM32.0947 489.1H35.376V488.9H32.0947V489.1ZM49.1016 479.874V479.974H49.2047L49.2015 479.871L49.1016 479.874ZM41.3965 479.874L41.2967 479.867L41.2893 479.974H41.3965V479.874ZM49.0869 484.474V484.374H49.0136L48.9915 484.444L49.0869 484.474ZM41.3818 482.086V481.986H41.2818V482.086H41.3818ZM52.2656 482.086V482.186H52.3656V482.086H52.2656ZM52.0898 484.474L52.1886 484.489L52.2067 484.374H52.0898V484.474ZM45.3223 475.96C46.4018 475.96 47.3013 476.364 47.9407 477.051C48.5809 477.739 48.9656 478.718 49.0016 479.877L49.2015 479.871C49.1643 478.672 48.7653 477.644 48.0871 476.915C47.4081 476.185 46.4546 475.76 45.3223 475.76V475.96ZM49.1016 479.774H41.3965V479.974H49.1016V479.774ZM41.4962 479.881C41.6545 477.594 43.1725 475.96 45.3223 475.96V475.76C43.0482 475.76 41.4608 477.496 41.2967 479.867L41.4962 479.881ZM48.9915 484.444C48.5827 485.741 47.2955 486.629 45.5273 486.629V486.829C47.3627 486.829 48.7416 485.902 49.1823 484.504L48.9915 484.444ZM45.5273 486.629C44.2847 486.629 43.2761 486.196 42.5777 485.44C41.8785 484.684 41.4818 483.597 41.4818 482.276H41.2818C41.2818 483.637 41.6909 484.776 42.4309 485.576C43.1716 486.377 44.2358 486.829 45.5273 486.829V486.629ZM41.4818 482.276V482.086H41.2818V482.276H41.4818ZM41.3818 482.186H52.2656V481.986H41.3818V482.186ZM52.3656 482.086V481.002H52.1656V482.086H52.3656ZM52.3656 481.002C52.3656 478.647 51.6937 476.699 50.4724 475.338C49.25 473.975 47.4858 473.212 45.3223 473.212V473.412C47.4361 473.412 49.1436 474.156 50.3235 475.471C51.5046 476.787 52.1656 478.684 52.1656 481.002H52.3656ZM45.3223 473.212C43.1207 473.212 41.309 474.028 40.0488 475.461C38.7898 476.893 38.0885 478.932 38.0885 481.368H38.2885C38.2885 478.97 38.9788 476.981 40.199 475.593C41.4181 474.207 43.1733 473.412 45.3223 473.412V473.212ZM38.0885 481.368C38.0885 483.818 38.7786 485.826 40.05 487.222C41.3224 488.619 43.1673 489.393 45.4541 489.393V489.193C43.2145 489.193 41.4266 488.436 40.1978 487.087C38.968 485.736 38.2885 483.782 38.2885 481.368H38.0885ZM45.4541 489.393C49.02 489.393 51.7396 487.363 52.1886 484.489L51.991 484.458C51.5611 487.21 48.9488 489.193 45.4541 489.193V489.393ZM52.0898 484.374H49.0869V484.574H52.0898V484.374ZM54.8438 489H54.7437V489.1H54.8438V489ZM58.0078 489V489.1H58.1078V489H58.0078ZM58.0078 467.862H58.1078V467.762H58.0078V467.862ZM54.8438 467.862V467.762H54.7437V467.862H54.8438ZM54.8438 489.1H58.0078V488.9H54.8438V489.1ZM58.1078 489V467.862H57.9078V489H58.1078ZM58.0078 467.762H54.8438V467.962H58.0078V467.762ZM54.7437 467.862V489H54.9438V467.862H54.7437ZM64.3799 476.241V476.341H64.441L64.4689 476.287L64.3799 476.241ZM64.3213 476.241H64.2213V476.341H64.3213V476.241ZM64.3213 473.59H64.4213V473.49H64.3213V473.59ZM61.2598 473.59V473.49H61.1598V473.59H61.2598ZM61.2598 494.098H61.1598V494.198H61.2598V494.098ZM64.4238 494.098V494.198H64.5238V494.098H64.4238ZM64.4238 486.466V486.366H64.3238V486.466H64.4238ZM64.4971 486.466L64.5861 486.42L64.5582 486.366H64.4971V486.466ZM69.2871 473.241C67.024 473.241 65.2166 474.389 64.2909 476.196L64.4689 476.287C65.3595 474.549 67.0971 473.441 69.2871 473.441V473.241ZM64.3799 476.141H64.3213V476.341H64.3799V476.141ZM64.4213 476.241V473.59H64.2213V476.241H64.4213ZM64.3213 473.49H61.2598V473.69H64.3213V473.49ZM61.1598 473.59V494.098H61.3598V473.59H61.1598ZM61.2598 494.198H64.4238V493.998H61.2598V494.198ZM64.5238 494.098V486.466H64.3238V494.098H64.5238ZM64.4238 486.566H64.4971V486.366H64.4238V486.566ZM64.4081 486.511C65.3053 488.261 67.099 489.364 69.3457 489.364V489.164C67.1686 489.164 65.4466 488.098 64.5861 486.42L64.4081 486.511ZM69.3457 489.364C71.3083 489.364 72.9449 488.578 74.0888 487.172C75.2311 485.767 75.8764 483.751 75.8764 481.295H75.6764C75.6764 483.717 75.0399 485.685 73.9336 487.045C72.829 488.404 71.2503 489.164 69.3457 489.164V489.364ZM75.8764 481.295C75.8764 478.839 75.2274 476.826 74.0757 475.425C72.9223 474.022 71.2711 473.241 69.2871 473.241V473.441C71.2142 473.441 72.8076 474.198 73.9212 475.552C75.0363 476.909 75.6764 478.873 75.6764 481.295H75.8764ZM68.4521 486.483C67.2679 486.483 66.2863 485.978 65.5981 485.081C64.9082 484.182 64.5092 482.883 64.5092 481.295H64.3092C64.3092 482.915 64.7159 484.26 65.4395 485.203C66.1649 486.148 67.2048 486.683 68.4521 486.683V486.483ZM64.5092 481.295C64.5092 479.722 64.9117 478.423 65.6037 477.52C66.294 476.619 67.2758 476.107 68.4521 476.107V475.907C67.2115 475.907 66.1718 476.45 65.4449 477.398C64.7197 478.344 64.3092 479.69 64.3092 481.295H64.5092ZM68.4521 476.107C69.674 476.107 70.6626 476.609 71.3483 477.503C72.0361 478.4 72.4244 479.699 72.4244 481.295H72.6244C72.6244 479.669 72.2291 478.323 71.507 477.382C70.7828 476.437 69.7351 475.907 68.4521 475.907V476.107ZM72.4244 481.295C72.4244 482.899 72.036 484.197 71.3483 485.092C70.6627 485.984 69.6743 486.483 68.4521 486.483V486.683C69.7349 486.683 70.7826 486.156 71.5069 485.214C72.2291 484.274 72.6244 482.928 72.6244 481.295H72.4244ZM97.5293 473.59H97.6293V473.49H97.5293V473.59ZM94.3652 473.59V473.49H94.2652V473.59H94.3652ZM87.4072 473.59H87.5072V473.49H87.4072V473.59ZM84.2432 473.59V473.49H84.1432V473.59H84.2432ZM94.4238 486.393V486.293H94.3598L94.333 486.351L94.4238 486.393ZM94.4971 486.393H94.5971V486.293H94.4971V486.393ZM94.4971 489H94.3971V489.1H94.4971V489ZM97.5293 489V489.1H97.6293V489H97.5293ZM97.5293 473.49H94.3652V473.69H97.5293V473.49ZM94.2652 473.59V482.569H94.4652V473.59H94.2652ZM94.2652 482.569C94.2652 483.752 93.9265 484.722 93.317 485.395C92.7085 486.067 91.8214 486.454 90.7031 486.454V486.654C91.87 486.654 92.8139 486.249 93.4652 485.53C94.1155 484.811 94.4652 483.789 94.4652 482.569H94.2652ZM90.7031 486.454C89.6311 486.454 88.8377 486.145 88.3108 485.564C87.7823 484.981 87.5072 484.108 87.5072 482.95H87.3072C87.3072 484.136 87.5888 485.065 88.1626 485.698C88.738 486.333 89.5925 486.654 90.7031 486.654V486.454ZM87.5072 482.95V473.59H87.3072V482.95H87.5072ZM87.4072 473.49H84.2432V473.69H87.4072V473.49ZM84.1432 473.59V483.565H84.3432V473.59H84.1432ZM84.1432 483.565C84.1432 485.35 84.6617 486.805 85.6152 487.814C86.5693 488.825 87.9488 489.378 89.6484 489.378V489.178C87.9936 489.178 86.6704 488.641 85.7606 487.677C84.8501 486.713 84.3432 485.311 84.3432 483.565H84.1432ZM89.6484 489.378C90.8425 489.378 91.843 489.115 92.6546 488.613C93.4664 488.11 94.0828 487.372 94.5147 486.434L94.333 486.351C93.9152 487.258 93.3232 487.964 92.5493 488.443C91.7752 488.922 90.8128 489.178 89.6484 489.178V489.378ZM94.4238 486.493H94.4971V486.293H94.4238V486.493ZM94.3971 486.393V489H94.5971V486.393H94.3971ZM94.4971 489.1H97.5293V488.9H94.4971V489.1ZM97.6293 489V473.59H97.4293V489H97.6293ZM104.575 482.232L104.599 482.135L104.599 482.135L104.575 482.232ZM107.329 482.906L107.354 482.809L107.353 482.809L107.329 482.906ZM103.125 484.576L103.224 484.56L103.21 484.476H103.125V484.576ZM99.9902 484.576V484.476H99.881L99.8906 484.585L99.9902 484.576ZM108.428 480.357L108.451 480.26L108.45 480.26L108.428 480.357ZM105.835 479.757L105.811 479.854L105.812 479.854L105.835 479.757ZM109.38 477.97L109.28 477.98L109.29 478.07H109.38V477.97ZM112.354 477.97V478.07H112.457L112.453 477.966L112.354 477.97ZM100.286 477.955C100.286 479.056 100.646 479.982 101.365 480.718C102.082 481.452 103.149 481.99 104.552 482.33L104.599 482.135C103.218 481.801 102.19 481.277 101.508 480.579C100.829 479.883 100.486 479.008 100.486 477.955H100.286ZM104.551 482.33L107.305 483.003L107.353 482.809L104.599 482.135L104.551 482.33ZM107.304 483.003C108.106 483.207 108.636 483.44 108.966 483.734C109.289 484.021 109.426 484.373 109.426 484.84H109.626C109.626 484.325 109.471 483.916 109.098 483.584C108.732 483.258 108.164 483.015 107.354 482.809L107.304 483.003ZM109.426 484.84C109.426 485.426 109.153 485.905 108.647 486.242C108.138 486.58 107.39 486.776 106.45 486.776V486.976C107.414 486.976 108.205 486.776 108.758 486.408C109.314 486.038 109.626 485.499 109.626 484.84H109.426ZM106.45 486.776C105.496 486.776 104.75 486.574 104.213 486.199C103.679 485.826 103.344 485.276 103.224 484.56L103.026 484.593C103.155 485.356 103.516 485.956 104.099 486.363C104.679 486.768 105.47 486.976 106.45 486.976V486.776ZM103.125 484.476H99.9902V484.676H103.125V484.476ZM99.8906 484.585C100.018 486.027 100.698 487.232 101.812 488.074C102.925 488.916 104.463 489.393 106.304 489.393V489.193C104.497 489.193 103.003 488.725 101.933 487.915C100.864 487.106 100.212 485.953 100.09 484.567L99.8906 484.585ZM106.304 489.393C108.209 489.393 109.832 488.906 110.981 488.055C112.132 487.203 112.805 485.988 112.805 484.547H112.605C112.605 485.919 111.967 487.076 110.862 487.894C109.755 488.714 108.177 489.193 106.304 489.193V489.393ZM112.805 484.547C112.805 483.393 112.506 482.503 111.801 481.81C111.1 481.12 110.01 480.635 108.451 480.26L108.404 480.455C109.951 480.827 110.999 481.301 111.661 481.952C112.318 482.599 112.605 483.43 112.605 484.547H112.805ZM108.45 480.26L105.858 479.659L105.812 479.854L108.405 480.455L108.45 480.26ZM105.859 479.66C105.067 479.464 104.495 479.208 104.122 478.893C103.752 478.581 103.577 478.209 103.577 477.765H103.377C103.377 478.272 103.581 478.699 103.992 479.046C104.399 479.39 105.006 479.655 105.811 479.854L105.859 479.66ZM103.577 477.765C103.577 477.192 103.844 476.708 104.321 476.364C104.799 476.019 105.491 475.814 106.333 475.814V475.614C105.461 475.614 104.725 475.826 104.204 476.202C103.68 476.58 103.377 477.122 103.377 477.765H103.577ZM106.333 475.814C107.204 475.814 107.906 476.026 108.406 476.4C108.905 476.773 109.21 477.311 109.28 477.98L109.479 477.959C109.403 477.237 109.071 476.647 108.526 476.24C107.983 475.834 107.235 475.614 106.333 475.614V475.814ZM109.38 478.07H112.354V477.87H109.38V478.07ZM112.453 477.966C112.348 475.156 109.883 473.212 106.421 473.212V473.412C109.814 473.412 112.154 475.305 112.254 477.973L112.453 477.966ZM106.421 473.212C104.603 473.212 103.071 473.688 101.991 474.521C100.909 475.356 100.286 476.546 100.286 477.955H100.486C100.486 476.611 101.078 475.478 102.113 474.68C103.15 473.88 104.636 473.412 106.421 473.412V473.212ZM122.183 469.942V469.842H122.083V469.942H122.183ZM122.183 473.59V473.69H122.283V473.59H122.183ZM119.941 473.59V473.49H119.841V473.59H119.941ZM119.941 476.095H119.841V476.195H119.941V476.095ZM122.183 476.095H122.283V475.995H122.183V476.095ZM128.276 488.956L128.301 489.053L128.376 489.034V488.956H128.276ZM128.276 486.451H128.376V486.327L128.255 486.353L128.276 486.451ZM125.361 476.095V475.995H125.261V476.095H125.361ZM128.291 476.095V476.195H128.391V476.095H128.291ZM128.291 473.59H128.391V473.49H128.291V473.59ZM125.361 473.59H125.261V473.69H125.361V473.59ZM125.361 469.942H125.461V469.842H125.361V469.942ZM122.083 469.942V473.59H122.283V469.942H122.083ZM122.183 473.49H119.941V473.69H122.183V473.49ZM119.841 473.59V476.095H120.041V473.59H119.841ZM119.941 476.195H122.183V475.995H119.941V476.195ZM122.083 476.095V484.942H122.283V476.095H122.083ZM122.083 484.942C122.083 486.44 122.388 487.513 123.111 488.21C123.833 488.905 124.95 489.203 126.519 489.203V489.003C124.967 489.003 123.916 488.707 123.25 488.066C122.585 487.425 122.283 486.419 122.283 484.942H122.083ZM126.519 489.203C127.224 489.203 127.937 489.144 128.301 489.053L128.252 488.859C127.913 488.944 127.22 489.003 126.519 489.003V489.203ZM128.376 488.956V486.451H128.176V488.956H128.376ZM128.255 486.353C128.061 486.395 127.558 486.424 127.236 486.424V486.624C127.559 486.624 128.081 486.595 128.297 486.549L128.255 486.353ZM127.236 486.424C126.605 486.424 126.168 486.277 125.887 485.988C125.605 485.698 125.461 485.245 125.461 484.591H125.261C125.261 485.27 125.41 485.784 125.744 486.127C126.078 486.471 126.578 486.624 127.236 486.624V486.424ZM125.461 484.591V476.095H125.261V484.591H125.461ZM125.361 476.195H128.291V475.995H125.361V476.195ZM128.391 476.095V473.59H128.191V476.095H128.391ZM128.291 473.49H125.361V473.69H128.291V473.49ZM125.461 473.59V469.942H125.261V473.59H125.461ZM125.361 469.842H122.183V470.042H125.361V469.842ZM137.139 489.393C139.367 489.393 141.223 488.626 142.52 487.224C143.817 485.823 144.548 483.797 144.548 481.295H144.348C144.348 483.759 143.629 485.732 142.374 487.088C141.119 488.444 139.319 489.193 137.139 489.193V489.393ZM144.548 481.295C144.548 478.8 143.814 476.778 142.515 475.379C141.215 473.978 139.36 473.212 137.139 473.212V473.412C139.312 473.412 141.111 474.161 142.368 475.515C143.625 476.869 144.348 478.839 144.348 481.295H144.548ZM137.139 473.212C134.917 473.212 133.062 473.978 131.763 475.379C130.464 476.778 129.729 478.8 129.729 481.295H129.929C129.929 478.839 130.652 476.869 131.909 475.515C133.166 474.161 134.965 473.412 137.139 473.412V473.212ZM129.729 481.295C129.729 483.797 130.46 485.823 131.757 487.224C133.055 488.626 134.91 489.393 137.139 489.393V489.193C134.958 489.193 133.159 488.444 131.904 487.088C130.648 485.732 129.929 483.759 129.929 481.295H129.729ZM137.139 486.586C135.93 486.586 134.938 486.108 134.246 485.214C133.551 484.318 133.152 482.995 133.152 481.295H132.952C132.952 483.023 133.358 484.395 134.088 485.337C134.82 486.282 135.872 486.786 137.139 486.786V486.586ZM133.152 481.295C133.152 479.603 133.551 478.283 134.246 477.388C134.938 476.497 135.93 476.019 137.139 476.019V475.819C135.872 475.819 134.82 476.323 134.088 477.266C133.358 478.206 132.952 479.574 132.952 481.295H133.152ZM137.139 476.019C138.347 476.019 139.339 476.497 140.031 477.388C140.726 478.283 141.126 479.603 141.126 481.295H141.326C141.326 479.574 140.919 478.206 140.189 477.266C139.457 476.323 138.406 475.819 137.139 475.819V476.019ZM141.126 481.295C141.126 482.995 140.73 484.318 140.037 485.214C139.346 486.108 138.355 486.586 137.139 486.586V486.786C138.413 486.786 139.465 486.282 140.195 485.337C140.923 484.395 141.326 483.023 141.326 481.295H141.126ZM153.091 489H152.991V489.1H153.091V489ZM156.255 489V489.1H156.355V489H156.255ZM156.255 473.59H156.355V473.49H156.255V473.59ZM153.091 473.59V473.49H152.991V473.59H153.091ZM153.091 489.1H156.255V488.9H153.091V489.1ZM156.355 489V473.59H156.155V489H156.355ZM156.255 473.49H153.091V473.69H156.255V473.49ZM152.991 473.59V489H153.191V473.59H152.991ZM154.673 471.434C155.751 471.434 156.619 470.586 156.619 469.532H156.419C156.419 470.471 155.645 471.234 154.673 471.234V471.434ZM156.619 469.532C156.619 468.465 155.752 467.616 154.673 467.616V467.816C155.645 467.816 156.419 468.578 156.419 469.532H156.619ZM154.673 467.616C153.608 467.616 152.742 468.465 152.742 469.532H152.942C152.942 468.578 153.716 467.816 154.673 467.816V467.616ZM152.742 469.532C152.742 470.585 153.608 471.434 154.673 471.434V471.234C153.716 471.234 152.942 470.472 152.942 469.532H152.742ZM159.492 489H159.392V489.1H159.492V489ZM162.656 489V489.1H162.756V489H162.656ZM168.779 489H168.679V489.1H168.779V489ZM171.885 489V489.1H171.985V489H171.885ZM178.008 489H177.908V489.1H178.008V489ZM181.187 489V489.1H181.287V489H181.187ZM171.343 476.344V476.444H171.409L171.435 476.383L171.343 476.344ZM171.27 476.344L171.174 476.374L171.197 476.444H171.27V476.344ZM162.583 476.183V476.283H162.651L162.676 476.22L162.583 476.183ZM162.51 476.183H162.41V476.283H162.51V476.183ZM162.51 473.59H162.61V473.49H162.51V473.59ZM159.492 473.59V473.49H159.392V473.59H159.492ZM159.492 489.1H162.656V488.9H159.492V489.1ZM162.756 489V479.479H162.556V489H162.756ZM162.756 479.479C162.756 477.549 164.052 476.136 165.864 476.136V475.936C163.927 475.936 162.556 477.453 162.556 479.479H162.756ZM165.864 476.136C166.736 476.136 167.438 476.411 167.921 476.892C168.405 477.374 168.679 478.072 168.679 478.937H168.879C168.879 478.029 168.59 477.276 168.063 476.751C167.535 476.225 166.779 475.936 165.864 475.936V476.136ZM168.679 478.937V489H168.879V478.937H168.679ZM168.779 489.1H171.885V488.9H168.779V489.1ZM171.985 489V479.376H171.785V489H171.985ZM171.985 479.376C171.985 478.424 172.303 477.615 172.844 477.044C173.384 476.474 174.152 476.136 175.063 476.136V475.936C174.1 475.936 173.279 476.294 172.698 476.907C172.119 477.519 171.785 478.379 171.785 479.376H171.985ZM175.063 476.136C175.98 476.136 176.687 476.415 177.166 476.925C177.645 477.436 177.908 478.192 177.908 479.171H178.108C178.108 478.158 177.836 477.346 177.312 476.788C176.787 476.229 176.022 475.936 175.063 475.936V476.136ZM177.908 479.171V489H178.108V479.171H177.908ZM178.008 489.1H181.187V488.9H178.008V489.1ZM181.287 489V478.409H181.087V489H181.287ZM181.287 478.409C181.287 476.856 180.781 475.559 179.881 474.649C178.98 473.74 177.694 473.226 176.147 473.226V473.426C177.648 473.426 178.881 473.924 179.738 474.79C180.596 475.656 181.087 476.9 181.087 478.409H181.287ZM176.147 473.226C173.914 473.226 172.059 474.389 171.251 476.305L171.435 476.383C172.209 474.548 173.986 473.426 176.147 473.426V473.226ZM171.343 476.244H171.27V476.444H171.343V476.244ZM171.365 476.313C171.051 475.335 170.497 474.562 169.745 474.034C168.993 473.505 168.05 473.226 166.963 473.226V473.426C168.015 473.426 168.917 473.696 169.63 474.197C170.343 474.698 170.873 475.433 171.174 476.374L171.365 476.313ZM166.963 473.226C164.843 473.226 163.194 474.393 162.49 476.145L162.676 476.22C163.349 474.545 164.923 473.426 166.963 473.426V473.226ZM162.583 476.083H162.51V476.283H162.583V476.083ZM162.61 476.183V473.59H162.41V476.183H162.61ZM162.51 473.49H159.492V473.69H162.51V473.49ZM159.392 473.59V489H159.592V473.59H159.392ZM187.368 476.241V476.341H187.429L187.457 476.287L187.368 476.241ZM187.31 476.241H187.21V476.341H187.31V476.241ZM187.31 473.59H187.41V473.49H187.31V473.59ZM184.248 473.59V473.49H184.148V473.59H184.248ZM184.248 494.098H184.148V494.198H184.248V494.098ZM187.412 494.098V494.198H187.512V494.098H187.412ZM187.412 486.466V486.366H187.312V486.466H187.412ZM187.485 486.466L187.574 486.42L187.546 486.366H187.485V486.466ZM192.275 473.241C190.012 473.241 188.205 474.389 187.279 476.196L187.457 476.287C188.348 474.549 190.085 473.441 192.275 473.441V473.241ZM187.368 476.141H187.31V476.341H187.368V476.141ZM187.41 476.241V473.59H187.21V476.241H187.41ZM187.31 473.49H184.248V473.69H187.31V473.49ZM184.148 473.59V494.098H184.348V473.59H184.148ZM184.248 494.198H187.412V493.998H184.248V494.198ZM187.512 494.098V486.466H187.312V494.098H187.512ZM187.412 486.566H187.485V486.366H187.412V486.566ZM187.396 486.511C188.294 488.261 190.087 489.364 192.334 489.364V489.164C190.157 489.164 188.435 488.098 187.574 486.42L187.396 486.511ZM192.334 489.364C194.297 489.364 195.933 488.578 197.077 487.172C198.219 485.767 198.865 483.751 198.865 481.295H198.665C198.665 483.717 198.028 485.685 196.922 487.045C195.817 488.404 194.239 489.164 192.334 489.164V489.364ZM198.865 481.295C198.865 478.839 198.216 476.826 197.064 475.425C195.911 474.022 194.259 473.241 192.275 473.241V473.441C194.203 473.441 195.796 474.198 196.909 475.552C198.025 476.909 198.665 478.873 198.665 481.295H198.865ZM191.44 486.483C190.256 486.483 189.275 485.978 188.586 485.081C187.896 484.182 187.497 482.883 187.497 481.295H187.297C187.297 482.915 187.704 484.26 188.428 485.203C189.153 486.148 190.193 486.683 191.44 486.683V486.483ZM187.497 481.295C187.497 479.722 187.9 478.423 188.592 477.52C189.282 476.619 190.264 476.107 191.44 476.107V475.907C190.2 475.907 189.16 476.45 188.433 477.398C187.708 478.344 187.297 479.69 187.297 481.295H187.497ZM191.44 476.107C192.662 476.107 193.651 476.609 194.337 477.503C195.024 478.4 195.413 479.699 195.413 481.295H195.613C195.613 479.669 195.217 478.323 194.495 477.382C193.771 476.437 192.723 475.907 191.44 475.907V476.107ZM195.413 481.295C195.413 482.899 195.024 484.197 194.337 485.092C193.651 485.984 192.663 486.483 191.44 486.483V486.683C192.723 486.683 193.771 486.156 194.495 485.214C195.217 484.274 195.613 482.928 195.613 481.295H195.413ZM201.211 489H201.111V489.1H201.211V489ZM204.375 489V489.1H204.475V489H204.375ZM209.092 476.402L209.054 476.495L209.192 476.552V476.402H209.092ZM209.092 473.458H209.192V473.375L209.11 473.36L209.092 473.458ZM204.302 476.212V476.312H204.377L204.398 476.239L204.302 476.212ZM204.229 476.212H204.129V476.312H204.229V476.212ZM204.229 473.59H204.329V473.49H204.229V473.59ZM201.211 473.59V473.49H201.111V473.59H201.211ZM201.211 489.1H204.375V488.9H201.211V489.1ZM204.475 489V479.771H204.275V489H204.475ZM204.475 479.771C204.475 478.699 204.784 477.839 205.333 477.249C205.88 476.659 206.676 476.327 207.671 476.327V476.127C206.63 476.127 205.777 476.476 205.186 477.113C204.596 477.749 204.275 478.661 204.275 479.771H204.475ZM207.671 476.327C207.975 476.327 208.264 476.345 208.506 476.375C208.751 476.406 208.942 476.449 209.054 476.495L209.13 476.31C208.993 476.253 208.781 476.208 208.531 476.177C208.279 476.145 207.982 476.127 207.671 476.127V476.327ZM209.192 476.402V473.458H208.992V476.402H209.192ZM209.11 473.36C208.875 473.316 208.472 473.241 208.008 473.241V473.441C208.452 473.441 208.84 473.512 209.073 473.556L209.11 473.36ZM208.008 473.241C206.145 473.241 204.73 474.342 204.206 476.185L204.398 476.239C204.899 474.478 206.238 473.441 208.008 473.441V473.241ZM204.302 476.112H204.229V476.312H204.302V476.112ZM204.329 476.212V473.59H204.129V476.212H204.329ZM204.229 473.49H201.211V473.69H204.229V473.49ZM201.111 473.59V489H201.311V473.59H201.111ZM217.002 489.393C219.23 489.393 221.086 488.626 222.384 487.224C223.681 485.823 224.412 483.797 224.412 481.295H224.212C224.212 483.759 223.492 485.732 222.237 487.088C220.982 488.444 219.183 489.193 217.002 489.193V489.393ZM224.412 481.295C224.412 478.8 223.677 476.778 222.378 475.379C221.079 473.978 219.223 473.212 217.002 473.212V473.412C219.175 473.412 220.975 474.161 222.231 475.515C223.489 476.869 224.212 478.839 224.212 481.295H224.412ZM217.002 473.212C214.781 473.212 212.925 473.978 211.626 475.379C210.327 476.778 209.592 478.8 209.592 481.295H209.792C209.792 478.839 210.515 476.869 211.773 475.515C213.029 474.161 214.829 473.412 217.002 473.412V473.212ZM209.592 481.295C209.592 483.797 210.323 485.823 211.62 487.224C212.918 488.626 214.773 489.393 217.002 489.393V489.193C214.821 489.193 213.022 488.444 211.767 487.088C210.512 485.732 209.792 483.759 209.792 481.295H209.592ZM217.002 486.586C215.793 486.586 214.801 486.108 214.109 485.214C213.415 484.318 213.015 482.995 213.015 481.295H212.815C212.815 483.023 213.221 484.395 213.951 485.337C214.683 486.282 215.735 486.786 217.002 486.786V486.586ZM213.015 481.295C213.015 479.603 213.415 478.283 214.109 477.388C214.801 476.497 215.793 476.019 217.002 476.019V475.819C215.735 475.819 214.683 476.323 213.951 477.266C213.221 478.206 212.815 479.574 212.815 481.295H213.015ZM217.002 476.019C218.211 476.019 219.202 476.497 219.895 477.388C220.589 478.283 220.989 479.603 220.989 481.295H221.189C221.189 479.574 220.783 478.206 220.053 477.266C219.32 476.323 218.269 475.819 217.002 475.819V476.019ZM220.989 481.295C220.989 482.995 220.593 484.318 219.9 485.214C219.21 486.108 218.218 486.586 217.002 486.586V486.786C218.276 486.786 219.328 486.282 220.058 485.337C220.787 484.395 221.189 483.023 221.189 481.295H220.989ZM239.502 473.59L239.596 473.624L239.644 473.49H239.502V473.59ZM236.191 473.59V473.49H236.118L236.096 473.56L236.191 473.59ZM232.324 485.909V486.009H232.398L232.42 485.939L232.324 485.909ZM232.266 485.909L232.17 485.939L232.192 486.009H232.266V485.909ZM228.398 473.59L228.494 473.56L228.472 473.49H228.398V473.59ZM225.029 473.59V473.49H224.887L224.935 473.624L225.029 473.59ZM230.581 489L230.487 489.034L230.511 489.1H230.581V489ZM233.979 489V489.1H234.05L234.074 489.034L233.979 489ZM239.502 473.49H236.191V473.69H239.502V473.49ZM236.096 473.56L232.229 485.879L232.42 485.939L236.287 473.62L236.096 473.56ZM232.324 485.809H232.266V486.009H232.324V485.809ZM232.361 485.879L228.494 473.56L228.303 473.62L232.17 485.939L232.361 485.879ZM228.398 473.49H225.029V473.69H228.398V473.49ZM224.935 473.624L230.487 489.034L230.675 488.966L225.123 473.556L224.935 473.624ZM230.581 489.1H233.979V488.9H230.581V489.1ZM234.074 489.034L239.596 473.624L239.408 473.556L233.885 488.966L234.074 489.034ZM251.104 479.874V479.974H251.207L251.203 479.871L251.104 479.874ZM243.398 479.874L243.299 479.867L243.291 479.974H243.398V479.874ZM251.089 484.474V484.374H251.016L250.993 484.444L251.089 484.474ZM243.384 482.086V481.986H243.284V482.086H243.384ZM254.268 482.086V482.186H254.368V482.086H254.268ZM254.092 484.474L254.191 484.489L254.209 484.374H254.092V484.474ZM247.324 475.96C248.404 475.96 249.303 476.364 249.943 477.051C250.583 477.739 250.968 478.718 251.004 479.877L251.203 479.871C251.166 478.672 250.767 477.644 250.089 476.915C249.41 476.185 248.457 475.76 247.324 475.76V475.96ZM251.104 479.774H243.398V479.974H251.104V479.774ZM243.498 479.881C243.656 477.594 245.174 475.96 247.324 475.96V475.76C245.05 475.76 243.463 477.496 243.299 479.867L243.498 479.881ZM250.993 484.444C250.585 485.741 249.297 486.629 247.529 486.629V486.829C249.365 486.829 250.744 485.902 251.184 484.504L250.993 484.444ZM247.529 486.629C246.287 486.629 245.278 486.196 244.58 485.44C243.88 484.684 243.484 483.597 243.484 482.276H243.284C243.284 483.637 243.693 484.776 244.433 485.576C245.174 486.377 246.238 486.829 247.529 486.829V486.629ZM243.484 482.276V482.086H243.284V482.276H243.484ZM243.384 482.186H254.268V481.986H243.384V482.186ZM254.368 482.086V481.002H254.168V482.086H254.368ZM254.368 481.002C254.368 478.647 253.696 476.699 252.474 475.338C251.252 473.975 249.488 473.212 247.324 473.212V473.412C249.438 473.412 251.146 474.156 252.325 475.471C253.507 476.787 254.168 478.684 254.168 481.002H254.368ZM247.324 473.212C245.123 473.212 243.311 474.028 242.051 475.461C240.792 476.893 240.09 478.932 240.09 481.368H240.29C240.29 478.97 240.981 476.981 242.201 475.593C243.42 474.207 245.175 473.412 247.324 473.412V473.212ZM240.09 481.368C240.09 483.818 240.781 485.826 242.052 487.222C243.324 488.619 245.169 489.393 247.456 489.393V489.193C245.216 489.193 243.429 488.436 242.2 487.087C240.97 485.736 240.29 483.782 240.29 481.368H240.09ZM247.456 489.393C251.022 489.393 253.742 487.363 254.191 484.489L253.993 484.458C253.563 487.21 250.951 489.193 247.456 489.193V489.393ZM254.092 484.374H251.089V484.574H254.092V484.374ZM263.745 469.942V469.842H263.645V469.942H263.745ZM263.745 473.59V473.69H263.845V473.59H263.745ZM261.504 473.59V473.49H261.404V473.59H261.504ZM261.504 476.095H261.404V476.195H261.504V476.095ZM263.745 476.095H263.845V475.995H263.745V476.095ZM269.839 488.956L269.863 489.053L269.939 489.034V488.956H269.839ZM269.839 486.451H269.939V486.327L269.818 486.353L269.839 486.451ZM266.924 476.095V475.995H266.824V476.095H266.924ZM269.854 476.095V476.195H269.954V476.095H269.854ZM269.854 473.59H269.954V473.49H269.854V473.59ZM266.924 473.59H266.824V473.69H266.924V473.59ZM266.924 469.942H267.024V469.842H266.924V469.942ZM263.645 469.942V473.59H263.845V469.942H263.645ZM263.745 473.49H261.504V473.69H263.745V473.49ZM261.404 473.59V476.095H261.604V473.59H261.404ZM261.504 476.195H263.745V475.995H261.504V476.195ZM263.645 476.095V484.942H263.845V476.095H263.645ZM263.645 484.942C263.645 486.44 263.951 487.513 264.674 488.21C265.396 488.905 266.512 489.203 268.081 489.203V489.003C266.53 489.003 265.478 488.707 264.812 488.066C264.148 487.425 263.845 486.419 263.845 484.942H263.645ZM268.081 489.203C268.786 489.203 269.499 489.144 269.863 489.053L269.815 488.859C269.475 488.944 268.782 489.003 268.081 489.003V489.203ZM269.939 488.956V486.451H269.739V488.956H269.939ZM269.818 486.353C269.624 486.395 269.12 486.424 268.799 486.424V486.624C269.122 486.624 269.644 486.595 269.86 486.549L269.818 486.353ZM268.799 486.424C268.168 486.424 267.731 486.277 267.45 485.988C267.168 485.698 267.024 485.245 267.024 484.591H266.824C266.824 485.27 266.973 485.784 267.306 486.127C267.64 486.471 268.141 486.624 268.799 486.624V486.424ZM267.024 484.591V476.095H266.824V484.591H267.024ZM266.924 476.195H269.854V475.995H266.924V476.195ZM269.954 476.095V473.59H269.754V476.095H269.954ZM269.854 473.49H266.924V473.69H269.854V473.49ZM267.024 473.59V469.942H266.824V473.59H267.024ZM266.924 469.842H263.745V470.042H266.924V469.842ZM272.578 489H272.478V489.1H272.578V489ZM275.742 489V489.1H275.842V489H275.742ZM282.891 489H282.791V489.1H282.891V489ZM286.069 489V489.1H286.169V489H286.069ZM275.786 476.168V476.268H275.85L275.877 476.211L275.786 476.168ZM275.713 476.168H275.613V476.268H275.713V476.168ZM275.713 467.862H275.813V467.762H275.713V467.862ZM272.578 467.862V467.762H272.478V467.862H272.578ZM272.578 489.1H275.742V488.9H272.578V489.1ZM275.842 489V480.094H275.642V489H275.842ZM275.842 480.094C275.842 478.897 276.195 477.913 276.826 477.228C277.457 476.545 278.374 476.151 279.521 476.151V475.951C278.326 475.951 277.353 476.363 276.679 477.093C276.007 477.822 275.642 478.859 275.642 480.094H275.842ZM279.521 476.151C280.614 476.151 281.426 476.484 281.967 477.083C282.509 477.683 282.791 478.564 282.791 479.684H282.991C282.991 478.533 282.701 477.597 282.115 476.949C281.528 476.298 280.656 475.951 279.521 475.951V476.151ZM282.791 479.684V489H282.991V479.684H282.791ZM282.891 489.1H286.069V488.9H282.891V489.1ZM286.169 489V479.068H285.969V489H286.169ZM286.169 479.068C286.169 477.306 285.658 475.844 284.709 474.822C283.759 473.799 282.379 473.226 280.664 473.226V473.426C282.333 473.426 283.656 473.982 284.562 474.958C285.47 475.935 285.969 477.344 285.969 479.068H286.169ZM280.664 473.226C278.287 473.226 276.564 474.284 275.696 476.125L275.877 476.211C276.708 474.448 278.354 473.426 280.664 473.426V473.226ZM275.786 476.068H275.713V476.268H275.786V476.068ZM275.813 476.168V467.862H275.613V476.168H275.813ZM275.713 467.762H272.578V467.962H275.713V467.762ZM272.478 467.862V489H272.678V467.862H272.478ZM299.355 479.874V479.974H299.459L299.455 479.871L299.355 479.874ZM291.65 479.874L291.551 479.867L291.543 479.974H291.65V479.874ZM299.341 484.474V484.374H299.267L299.245 484.444L299.341 484.474ZM291.636 482.086V481.986H291.536V482.086H291.636ZM302.52 482.086V482.186H302.62V482.086H302.52ZM302.344 484.474L302.443 484.489L302.461 484.374H302.344V484.474ZM295.576 475.96C296.656 475.96 297.555 476.364 298.195 477.051C298.835 477.739 299.22 478.718 299.256 479.877L299.455 479.871C299.418 478.672 299.019 477.644 298.341 476.915C297.662 476.185 296.709 475.76 295.576 475.76V475.96ZM299.355 479.774H291.65V479.974H299.355V479.774ZM291.75 479.881C291.908 477.594 293.426 475.96 295.576 475.96V475.76C293.302 475.76 291.715 477.496 291.551 479.867L291.75 479.881ZM299.245 484.444C298.837 485.741 297.549 486.629 295.781 486.629V486.829C297.617 486.829 298.995 485.902 299.436 484.504L299.245 484.444ZM295.781 486.629C294.539 486.629 293.53 486.196 292.832 485.44C292.132 484.684 291.736 483.597 291.736 482.276H291.536C291.536 483.637 291.945 484.776 292.685 485.576C293.426 486.377 294.49 486.829 295.781 486.829V486.629ZM291.736 482.276V482.086H291.536V482.276H291.736ZM291.636 482.186H302.52V481.986H291.636V482.186ZM302.62 482.086V481.002H302.42V482.086H302.62ZM302.62 481.002C302.62 478.647 301.948 476.699 300.726 475.338C299.504 473.975 297.74 473.212 295.576 473.212V473.412C297.69 473.412 299.397 474.156 300.577 475.471C301.758 476.787 302.42 478.684 302.42 481.002H302.62ZM295.576 473.212C293.375 473.212 291.563 474.028 290.303 475.461C289.044 476.893 288.342 478.932 288.342 481.368H288.542C288.542 478.97 289.233 476.981 290.453 475.593C291.672 474.207 293.427 473.412 295.576 473.412V473.212ZM288.342 481.368C288.342 483.818 289.032 485.826 290.304 487.222C291.576 488.619 293.421 489.393 295.708 489.393V489.193C293.468 489.193 291.681 488.436 290.452 487.087C289.222 485.736 288.542 483.782 288.542 481.368H288.342ZM295.708 489.393C299.274 489.393 301.994 487.363 302.443 484.489L302.245 484.458C301.815 487.21 299.203 489.193 295.708 489.193V489.393ZM302.344 484.374H299.341V484.574H302.344V484.374ZM316.611 482.247L316.605 482.147L316.604 482.147L316.611 482.247ZM320.405 482.013H320.505V481.906L320.399 481.913L320.405 482.013ZM320.449 486.466V486.366H320.389L320.361 486.42L320.449 486.466ZM320.522 486.466H320.622V486.366H320.522V486.466ZM320.522 489H320.422V489.1H320.522V489ZM323.555 489V489.1H323.655V489H323.555ZM311.074 478.146L310.974 478.139L310.968 478.246H311.074V478.146ZM314.062 478.146V478.246H314.144L314.161 478.165L314.062 478.146ZM320.405 479.815L320.411 479.915L320.505 479.91V479.815H320.405ZM316.187 480.064L316.192 480.164L316.192 480.164L316.187 480.064ZM316.465 486.659C315.631 486.659 314.952 486.443 314.483 486.072C314.017 485.703 313.752 485.176 313.752 484.532H313.552C313.552 485.236 313.844 485.822 314.359 486.229C314.872 486.635 315.599 486.859 316.465 486.859V486.659ZM313.752 484.532C313.752 483.904 314.006 483.395 314.484 483.024C314.967 482.65 315.685 482.412 316.618 482.347L316.604 482.147C315.648 482.214 314.887 482.459 314.362 482.866C313.834 483.275 313.552 483.842 313.552 484.532H313.752ZM316.617 482.347L320.411 482.113L320.399 481.913L316.605 482.147L316.617 482.347ZM320.305 482.013V483.229H320.505V482.013H320.305ZM320.305 483.229C320.305 485.17 318.633 486.659 316.465 486.659V486.859C318.721 486.859 320.505 485.301 320.505 483.229H320.305ZM315.586 489.364C317.64 489.364 319.625 488.263 320.538 486.512L320.361 486.42C319.486 488.097 317.574 489.164 315.586 489.164V489.364ZM320.449 486.566H320.522V486.366H320.449V486.566ZM320.422 486.466V489H320.622V486.466H320.422ZM320.522 489.1H323.555V488.9H320.522V489.1ZM323.655 489V478.38H323.455V489H323.655ZM323.655 478.38C323.655 476.807 323.046 475.511 321.958 474.61C320.871 473.71 319.316 473.212 317.432 473.212V473.412C319.283 473.412 320.789 473.901 321.83 474.764C322.87 475.624 323.455 476.862 323.455 478.38H323.655ZM317.432 473.212C315.51 473.212 313.941 473.729 312.829 474.606C311.715 475.484 311.064 476.719 310.974 478.139L311.174 478.152C311.26 476.789 311.883 475.606 312.953 474.763C314.023 473.919 315.545 473.412 317.432 473.412V473.212ZM311.074 478.246H314.062V478.046H311.074V478.246ZM314.161 478.165C314.295 477.5 314.637 476.959 315.164 476.583C315.693 476.206 316.415 475.99 317.314 475.99V475.79C316.383 475.79 315.618 476.013 315.048 476.42C314.477 476.827 314.108 477.414 313.964 478.126L314.161 478.165ZM317.314 475.99C318.264 475.99 319.011 476.241 319.519 476.691C320.025 477.14 320.305 477.796 320.305 478.629H320.505C320.505 477.748 320.207 477.034 319.651 476.542C319.097 476.051 318.298 475.79 317.314 475.79V475.99ZM320.305 478.629V479.815H320.505V478.629H320.305ZM320.399 479.716L316.181 479.965L316.192 480.164L320.411 479.915L320.399 479.716ZM316.181 479.965C314.338 480.068 312.883 480.537 311.887 481.33C310.888 482.127 310.359 483.244 310.359 484.62H310.559C310.559 483.301 311.063 482.243 312.012 481.487C312.964 480.728 314.373 480.266 316.192 480.164L316.181 479.965ZM310.359 484.62C310.359 486.031 310.897 487.22 311.824 488.054C312.75 488.888 314.057 489.364 315.586 489.364V489.164C314.098 489.164 312.841 488.701 311.958 487.906C311.075 487.111 310.559 485.978 310.559 484.62H310.359ZM329.751 476.241V476.341H329.812L329.84 476.287L329.751 476.241ZM329.692 476.241H329.592V476.341H329.692V476.241ZM329.692 473.59H329.792V473.49H329.692V473.59ZM326.631 473.59V473.49H326.531V473.59H326.631ZM326.631 494.098H326.531V494.198H326.631V494.098ZM329.795 494.098V494.198H329.895V494.098H329.795ZM329.795 486.466V486.366H329.695V486.466H329.795ZM329.868 486.466L329.957 486.42L329.929 486.366H329.868V486.466ZM334.658 473.241C332.395 473.241 330.588 474.389 329.662 476.196L329.84 476.287C330.731 474.549 332.468 473.441 334.658 473.441V473.241ZM329.751 476.141H329.692V476.341H329.751V476.141ZM329.792 476.241V473.59H329.592V476.241H329.792ZM329.692 473.49H326.631V473.69H329.692V473.49ZM326.531 473.59V494.098H326.731V473.59H326.531ZM326.631 494.198H329.795V493.998H326.631V494.198ZM329.895 494.098V486.466H329.695V494.098H329.895ZM329.795 486.566H329.868V486.366H329.795V486.566ZM329.779 486.511C330.676 488.261 332.47 489.364 334.717 489.364V489.164C332.54 489.164 330.818 488.098 329.957 486.42L329.779 486.511ZM334.717 489.364C336.679 489.364 338.316 488.578 339.46 487.172C340.602 485.767 341.247 483.751 341.247 481.295H341.047C341.047 483.717 340.411 485.685 339.305 487.045C338.2 488.404 336.621 489.164 334.717 489.164V489.364ZM341.247 481.295C341.247 478.839 340.598 476.826 339.447 475.425C338.293 474.022 336.642 473.241 334.658 473.241V473.441C336.585 473.441 338.179 474.198 339.292 475.552C340.407 476.909 341.047 478.873 341.047 481.295H341.247ZM333.823 486.483C332.639 486.483 331.657 485.978 330.969 485.081C330.279 484.182 329.88 482.883 329.88 481.295H329.68C329.68 482.915 330.087 484.26 330.811 485.203C331.536 486.148 332.576 486.683 333.823 486.683V486.483ZM329.88 481.295C329.88 479.722 330.283 478.423 330.975 477.52C331.665 476.619 332.647 476.107 333.823 476.107V475.907C332.583 475.907 331.543 476.45 330.816 477.398C330.091 478.344 329.68 479.69 329.68 481.295H329.88ZM333.823 476.107C335.045 476.107 336.034 476.609 336.719 477.503C337.407 478.4 337.796 479.699 337.796 481.295H337.996C337.996 479.669 337.6 478.323 336.878 477.382C336.154 476.437 335.106 475.907 333.823 475.907V476.107ZM337.796 481.295C337.796 482.899 337.407 484.197 336.719 485.092C336.034 485.984 335.045 486.483 333.823 486.483V486.683C335.106 486.683 336.154 486.156 336.878 485.214C337.6 484.274 337.996 482.928 337.996 481.295H337.796ZM346.714 476.241V476.341H346.775L346.803 476.287L346.714 476.241ZM346.655 476.241H346.555V476.341H346.655V476.241ZM346.655 473.59H346.755V473.49H346.655V473.59ZM343.594 473.59V473.49H343.494V473.59H343.594ZM343.594 494.098H343.494V494.198H343.594V494.098ZM346.758 494.098V494.198H346.858V494.098H346.758ZM346.758 486.466V486.366H346.658V486.466H346.758ZM346.831 486.466L346.92 486.42L346.892 486.366H346.831V486.466ZM351.621 473.241C349.358 473.241 347.551 474.389 346.625 476.196L346.803 476.287C347.694 474.549 349.431 473.441 351.621 473.441V473.241ZM346.714 476.141H346.655V476.341H346.714V476.141ZM346.755 476.241V473.59H346.555V476.241H346.755ZM346.655 473.49H343.594V473.69H346.655V473.49ZM343.494 473.59V494.098H343.694V473.59H343.494ZM343.594 494.198H346.758V493.998H343.594V494.198ZM346.858 494.098V486.466H346.658V494.098H346.858ZM346.758 486.566H346.831V486.366H346.758V486.566ZM346.742 486.511C347.639 488.261 349.433 489.364 351.68 489.364V489.164C349.503 489.164 347.781 488.098 346.92 486.42L346.742 486.511ZM351.68 489.364C353.642 489.364 355.279 488.578 356.423 487.172C357.565 485.767 358.21 483.751 358.21 481.295H358.01C358.01 483.717 357.374 485.685 356.268 487.045C355.163 488.404 353.584 489.164 351.68 489.164V489.364ZM358.21 481.295C358.21 478.839 357.561 476.826 356.41 475.425C355.256 474.022 353.605 473.241 351.621 473.241V473.441C353.548 473.441 355.142 474.198 356.255 475.552C357.37 476.909 358.01 478.873 358.01 481.295H358.21ZM350.786 486.483C349.602 486.483 348.62 485.978 347.932 485.081C347.242 484.182 346.843 482.883 346.843 481.295H346.643C346.643 482.915 347.05 484.26 347.773 485.203C348.499 486.148 349.539 486.683 350.786 486.683V486.483ZM346.843 481.295C346.843 479.722 347.246 478.423 347.938 477.52C348.628 476.619 349.61 476.107 350.786 476.107V475.907C349.545 475.907 348.506 476.45 347.779 477.398C347.054 478.344 346.643 479.69 346.643 481.295H346.843ZM350.786 476.107C352.008 476.107 352.997 476.609 353.682 477.503C354.37 478.4 354.758 479.699 354.758 481.295H354.958C354.958 479.669 354.563 478.323 353.841 477.382C353.117 476.437 352.069 475.907 350.786 475.907V476.107ZM354.758 481.295C354.758 482.899 354.37 484.197 353.682 485.092C352.997 485.984 352.008 486.483 350.786 486.483V486.683C352.069 486.683 353.117 486.156 353.841 485.214C354.563 484.274 354.958 482.928 354.958 481.295H354.758Z"
            fill="white" />
    </g>
    <defs>
        <clipPath id="clip0_6_1167">
            <rect width="375" height="812" fill="white" />
        </clipPath>
    </defs>
</svg>
