<svg width="20" height="20" viewBox="0 0 20 20" fill="none" xmlns="http://www.w3.org/2000/svg">
    <path
        d="M17.43 10.975C17.47 10.655 17.5 10.33 17.5 10C17.5 9.67 17.47 9.345 17.43 9.025L19.545 7.37C19.735 7.22 19.79 6.95 19.665 6.73L17.665 3.265C17.54 3.05 17.28 2.96 17.055 3.05L14.565 4.055C14.05 3.66 13.485 3.325 12.875 3.07L12.5 0.42C12.455 0.185 12.25 0 12 0H8.00001C7.75001 0 7.54501 0.185 7.50501 0.42L7.13001 3.07C6.52001 3.325 5.95501 3.655 5.44001 4.055L2.95001 3.05C2.72501 2.965 2.46501 3.05 2.34001 3.265L0.340011 6.73C0.215011 6.945 0.270011 7.215 0.460011 7.37L2.57001 9.025C2.53001 9.345 2.50001 9.67 2.50001 10C2.50001 10.33 2.53001 10.655 2.57001 10.975L0.460011 12.63C0.270011 12.78 0.215011 13.05 0.340011 13.27L2.34001 16.735C2.46501 16.95 2.72501 17.04 2.95001 16.95L5.44001 15.945C5.95501 16.34 6.52001 16.675 7.13001 16.93L7.50501 19.58C7.54501 19.815 7.75001 20 8.00001 20H12C12.25 20 12.455 19.815 12.495 19.58L12.87 16.93C13.48 16.675 14.045 16.345 14.56 15.945L17.05 16.95C17.275 17.035 17.535 16.95 17.66 16.735L19.66 13.27C19.785 13.055 19.73 12.785 19.54 12.63L17.43 10.975ZM10 13.5C8.06501 13.5 6.50001 11.935 6.50001 10C6.50001 8.065 8.06501 6.5 10 6.5C11.935 6.5 13.5 8.065 13.5 10C13.5 11.935 11.935 13.5 10 13.5Z"
        fill="#AFAFAF" />
</svg>
